{"glyphs":{"0":{"ha":856,"x_min":21,"x_max":832,"o":"m 343 -21 q 629 72 517 -21 q 772 333 742 165 l 825 638 q 832 719 832 674 q 747 931 832 854 q 506 1007 663 1007 q 223 914 333 1007 q 83 654 113 821 l 29 350 q 21 263 21 304 q 103 53 21 128 q 343 -21 186 -21 m 374 222 q 296 292 296 222 q 299 322 296 300 l 357 649 q 398 733 365 701 q 482 764 431 764 q 558 694 558 764 q 556 665 558 688 l 499 339 q 457 253 489 285 q 374 222 425 222 "},"1":{"ha":578,"x_min":58,"x_max":569,"o":"m 193 0 l 350 0 q 397 9 385 0 q 415 50 410 18 l 568 919 q 569 939 569 926 q 515 986 569 986 l 432 986 q 388 983 403 986 q 346 967 372 979 l 97 838 q 67 817 76 826 q 58 793 58 807 q 65 761 58 782 l 107 642 q 123 607 114 618 q 150 596 132 596 q 186 606 165 596 l 244 638 l 143 67 q 140 46 140 50 q 193 0 140 0 "},"2":{"ha":806,"x_min":-32,"x_max":800,"o":"m 18 0 l 613 0 q 656 11 644 0 q 674 56 668 22 l 696 181 q 697 199 697 188 q 643 243 697 243 l 299 243 q 313 267 300 251 q 374 305 333 286 q 492 354 415 324 q 728 513 656 422 q 800 733 800 603 q 722 938 800 869 q 492 1007 643 1007 q 258 950 357 1007 q 108 775 160 893 q 97 733 97 749 q 135 693 97 706 l 276 643 q 313 633 303 633 q 331 640 322 633 q 349 661 339 646 q 408 740 382 718 q 472 763 433 763 q 524 711 524 763 q 500 637 524 667 q 438 587 476 607 q 328 538 400 567 q 247 504 281 519 q -6 210 29 408 l -31 67 q -32 50 -32 61 q -19 13 -32 26 q 18 0 -6 0 "},"3":{"ha":818,"x_min":0,"x_max":789,"o":"m 342 -21 q 549 22 458 -21 q 690 140 640 64 q 740 313 740 215 q 717 428 740 378 q 650 507 693 479 q 753 615 717 551 q 789 754 789 678 q 707 941 789 875 q 472 1007 625 1007 q 244 953 339 1007 q 92 781 150 900 q 82 742 82 761 q 121 692 82 704 l 254 647 q 286 639 275 639 q 324 667 306 639 q 375 744 347 721 q 443 768 403 768 q 508 710 508 768 q 481 642 508 669 q 411 615 453 615 l 367 615 q 325 607 335 615 q 310 564 315 599 l 288 442 q 285 419 285 425 q 332 382 285 382 l 383 382 q 458 314 458 382 q 430 244 458 269 q 354 218 401 218 q 240 314 264 218 q 230 342 236 335 q 210 350 224 350 q 179 344 196 350 l 33 300 q 8 285 15 294 q 0 258 0 276 q 10 206 0 236 q 342 -21 76 -21 "},"4":{"ha":853,"x_min":-22,"x_max":806,"o":"m 425 0 l 576 0 q 619 10 607 0 q 638 50 632 19 l 663 196 l 725 196 q 768 206 756 196 q 786 246 781 215 l 803 344 l 806 367 q 794 399 806 389 q 758 410 782 410 l 700 410 l 790 919 q 793 939 793 933 q 780 974 793 961 q 743 986 767 986 l 593 986 q 540 981 556 986 q 503 951 525 975 l 35 450 q 12 419 19 433 q 1 383 4 404 q -4 354 -3 363 l -19 263 q -22 239 -22 246 q 22 196 -22 196 l 403 196 l 381 67 q 378 43 378 50 q 425 0 378 0 m 443 410 l 285 410 l 488 644 l 443 410 "},"5":{"ha":811,"x_min":-11,"x_max":813,"o":"m 338 -21 q 549 31 456 -21 q 696 175 643 83 q 749 382 749 267 q 674 578 749 507 q 447 649 599 649 l 379 649 l 403 744 l 725 744 q 770 753 758 744 q 788 794 782 763 l 810 919 q 813 950 813 942 q 768 988 813 988 l 281 988 q 215 974 233 988 q 185 913 197 960 l 78 500 q 74 471 74 483 q 88 436 74 449 q 128 424 101 424 l 379 424 q 465 353 465 424 q 433 262 465 297 q 347 226 401 226 q 285 242 308 226 q 250 292 261 258 q 232 329 240 318 q 208 340 224 340 q 186 336 199 340 l 32 285 q -1 268 8 276 q -11 244 -11 260 q -8 225 -11 242 q 102 39 21 99 q 338 -21 183 -21 "},"6":{"ha":857,"x_min":22,"x_max":847,"o":"m 354 -21 q 670 83 556 -21 q 785 376 785 188 q 710 559 785 500 q 475 618 635 618 q 344 601 421 618 l 353 633 q 406 733 371 701 q 503 764 440 764 q 597 710 581 764 q 614 674 606 685 q 638 663 622 663 q 658 667 646 663 l 808 710 q 838 725 828 715 q 847 751 847 735 q 844 769 847 756 q 738 949 813 890 q 517 1007 663 1007 q 223 914 335 1007 q 81 642 111 821 l 53 482 q 28 338 33 374 q 22 268 22 301 q 107 55 22 131 q 354 -21 192 -21 m 374 214 q 311 229 329 214 q 293 276 293 244 q 297 314 293 292 q 310 378 300 336 q 428 397 376 397 q 490 382 469 397 q 510 333 510 367 q 474 244 510 275 q 374 214 439 214 "},"7":{"ha":744,"x_min":43,"x_max":803,"o":"m 88 0 l 247 0 q 298 1 283 0 q 324 12 313 3 q 347 43 335 21 l 757 743 q 776 783 771 768 q 785 825 781 797 l 801 919 q 803 939 803 926 q 753 986 803 986 l 158 986 q 118 977 129 986 q 101 936 107 968 l 79 811 q 78 793 78 804 q 128 743 78 743 l 453 743 l 51 67 q 43 36 43 50 q 55 10 43 19 q 88 0 67 0 "},"8":{"ha":854,"x_min":-1,"x_max":824,"o":"m 343 -21 q 665 66 551 -21 q 778 311 778 153 q 752 426 778 374 q 683 513 726 479 q 785 626 747 557 q 824 767 824 696 q 738 944 824 882 q 497 1007 651 1007 q 211 923 314 1007 q 108 690 108 839 q 176 506 108 568 q -1 221 -1 394 q 86 40 -1 101 q 343 -21 174 -21 m 476 603 q 403 641 422 621 q 385 690 385 661 q 411 754 385 731 q 482 778 438 778 q 531 763 514 778 q 549 722 549 749 q 528 660 549 693 q 476 603 508 626 m 367 206 q 303 221 325 206 q 281 267 281 236 q 304 337 281 301 q 367 396 328 372 q 464 358 432 382 q 496 300 496 335 q 460 232 496 258 q 367 206 425 206 "},"9":{"ha":857,"x_min":8,"x_max":835,"o":"m 351 -21 q 776 344 710 -21 q 826 626 817 565 q 835 735 835 686 q 747 938 835 868 q 500 1007 660 1007 q 185 909 299 1007 q 72 629 72 811 q 156 435 72 501 q 399 368 240 368 q 510 379 454 368 l 504 353 q 455 253 490 285 q 357 222 419 222 q 251 290 282 222 q 233 320 242 311 q 213 329 225 329 q 190 325 203 329 l 49 276 q 18 260 28 269 q 8 238 8 251 q 13 217 8 229 q 136 35 54 92 q 351 -21 218 -21 m 429 589 q 369 606 390 589 q 349 657 349 624 q 379 744 349 717 q 472 772 410 772 q 541 756 517 772 q 565 707 565 739 q 549 608 565 669 q 429 589 485 589 "}," ":{"ha":250,"x_min":0,"x_max":0,"o":""},"A":{"ha":900,"x_min":-81,"x_max":818,"o":"m -39 0 l 126 0 q 172 3 157 0 q 194 17 186 7 q 213 50 201 26 l 260 160 l 517 160 l 526 57 q 539 14 529 28 q 582 0 549 0 l 754 0 q 802 12 786 0 q 814 51 818 24 l 679 932 q 619 986 671 986 l 442 986 q 396 980 410 986 q 368 946 382 974 l -74 65 q -81 36 -81 47 q -69 10 -81 19 q -39 0 -58 0 m 501 378 l 354 378 l 419 531 q 486 756 467 640 l 499 756 q 492 601 492 686 q 493 543 492 561 l 501 378 "},"Á":{"ha":900,"x_min":-81,"x_max":818,"o":"m -39 0 l 126 0 q 172 3 157 0 q 194 17 186 7 q 213 50 201 26 l 260 160 l 517 160 l 526 57 q 539 14 529 28 q 582 0 549 0 l 754 0 q 802 12 786 0 q 814 51 818 24 l 679 932 q 619 986 671 986 l 442 986 q 396 980 410 986 q 368 946 382 974 l -74 65 q -81 36 -81 47 q -69 10 -81 19 q -39 0 -58 0 m 501 378 l 354 378 l 419 531 q 486 756 467 640 l 499 756 q 492 601 492 686 q 493 543 492 561 l 501 378 m 378 1107 l 411 1057 q 438 1042 422 1042 q 471 1049 447 1042 l 729 1131 q 754 1154 754 1139 q 736 1190 754 1169 l 678 1265 q 635 1289 660 1289 q 593 1275 618 1289 l 383 1160 q 364 1138 364 1150 q 378 1107 364 1128 "},"Ă":{"ha":900,"x_min":-81,"x_max":825,"o":"m -39 0 l 126 0 q 172 3 157 0 q 194 17 186 7 q 213 50 201 26 l 260 160 l 517 160 l 526 57 q 539 14 529 28 q 582 0 549 0 l 754 0 q 802 12 786 0 q 814 51 818 24 l 679 932 q 619 986 671 986 l 442 986 q 396 980 410 986 q 368 946 382 974 l -74 65 q -81 36 -81 47 q -69 10 -81 19 q -39 0 -58 0 m 501 378 l 354 378 l 419 531 q 486 756 467 640 l 499 756 q 492 601 492 686 q 493 543 492 561 l 501 378 m 556 1049 q 711 1083 644 1049 q 817 1182 778 1117 q 825 1207 825 1197 q 794 1240 825 1226 l 703 1276 q 685 1283 694 1279 q 672 1288 676 1288 q 654 1279 665 1288 q 563 1217 619 1217 q 519 1229 535 1217 q 492 1265 504 1242 q 467 1286 481 1286 q 444 1281 461 1286 l 351 1249 q 334 1240 339 1244 q 329 1228 329 1235 q 332 1213 329 1224 q 408 1091 351 1133 q 556 1049 465 1049 "},"Â":{"ha":900,"x_min":-81,"x_max":825,"o":"m -39 0 l 126 0 q 172 3 157 0 q 194 17 186 7 q 213 50 201 26 l 260 160 l 517 160 l 526 57 q 539 14 529 28 q 582 0 549 0 l 754 0 q 802 12 786 0 q 814 51 818 24 l 679 932 q 619 986 671 986 l 442 986 q 396 980 410 986 q 368 946 382 974 l -74 65 q -81 36 -81 47 q -69 10 -81 19 q -39 0 -58 0 m 501 378 l 354 378 l 419 531 q 486 756 467 640 l 499 756 q 492 601 492 686 q 493 543 492 561 l 501 378 m 313 1049 l 447 1049 q 463 1049 451 1049 q 485 1052 474 1049 q 511 1072 496 1056 l 561 1126 l 599 1085 q 610 1070 603 1081 q 630 1054 618 1060 q 669 1049 642 1049 l 786 1049 q 825 1065 825 1049 q 813 1089 825 1076 l 696 1231 q 655 1270 671 1261 q 603 1279 639 1279 l 560 1279 q 500 1273 518 1279 q 457 1244 482 1267 l 293 1100 q 274 1069 274 1083 q 313 1049 274 1049 "},"Ä":{"ha":900,"x_min":-81,"x_max":824,"o":"m -39 0 l 126 0 q 172 3 157 0 q 194 17 186 7 q 213 50 201 26 l 260 160 l 517 160 l 526 57 q 539 14 529 28 q 582 0 549 0 l 754 0 q 802 12 786 0 q 814 51 818 24 l 679 932 q 619 986 671 986 l 442 986 q 396 980 410 986 q 368 946 382 974 l -74 65 q -81 36 -81 47 q -69 10 -81 19 q -39 0 -58 0 m 501 378 l 354 378 l 419 531 q 486 756 467 640 l 499 756 q 492 601 492 686 q 493 543 492 561 l 501 378 m 397 1054 l 408 1054 q 488 1072 465 1054 q 521 1144 511 1089 l 524 1163 q 526 1196 526 1188 q 505 1252 526 1235 q 435 1269 483 1269 l 424 1269 q 363 1263 383 1269 q 331 1237 342 1256 q 314 1179 321 1218 l 311 1161 q 308 1126 308 1149 q 329 1072 308 1089 q 397 1054 350 1054 m 697 1054 l 707 1054 q 786 1072 764 1054 q 818 1144 808 1089 l 821 1163 q 824 1196 824 1175 q 802 1252 824 1235 q 733 1269 781 1269 l 724 1269 q 643 1252 665 1269 q 611 1179 621 1235 l 608 1161 q 606 1128 606 1136 q 627 1072 606 1090 q 697 1054 649 1054 "},"À":{"ha":900,"x_min":-81,"x_max":818,"o":"m -39 0 l 126 0 q 172 3 157 0 q 194 17 186 7 q 213 50 201 26 l 260 160 l 517 160 l 526 57 q 539 14 529 28 q 582 0 549 0 l 754 0 q 802 12 786 0 q 814 51 818 24 l 679 932 q 619 986 671 986 l 442 986 q 396 980 410 986 q 368 946 382 974 l -74 65 q -81 36 -81 47 q -69 10 -81 19 q -39 0 -58 0 m 501 378 l 354 378 l 419 531 q 486 756 467 640 l 499 756 q 492 601 492 686 q 493 543 492 561 l 501 378 m 407 1136 l 638 1053 q 675 1043 663 1043 q 700 1054 689 1043 l 749 1100 q 764 1126 764 1115 q 744 1150 764 1138 l 571 1267 q 560 1274 568 1269 q 542 1285 553 1279 q 519 1292 531 1292 q 485 1276 501 1292 l 400 1201 q 381 1167 381 1185 q 407 1136 381 1144 "},"Ā":{"ha":900,"x_min":-81,"x_max":818,"o":"m -39 0 l 126 0 q 172 3 157 0 q 194 17 186 7 q 213 50 201 26 l 260 160 l 517 160 l 526 57 q 539 14 529 28 q 582 0 549 0 l 754 0 q 802 12 786 0 q 814 51 818 24 l 679 932 q 619 986 671 986 l 442 986 q 396 980 410 986 q 368 946 382 974 l -74 65 q -81 36 -81 47 q -69 10 -81 19 q -39 0 -58 0 m 501 378 l 354 378 l 419 531 q 486 756 467 640 l 499 756 q 492 601 492 686 q 493 543 492 561 l 501 378 m 381 1081 l 719 1081 q 763 1088 751 1081 q 779 1124 774 1094 l 789 1181 q 792 1207 792 1200 q 783 1231 792 1224 q 753 1239 774 1239 l 410 1239 q 369 1232 381 1239 q 353 1197 358 1225 l 343 1139 q 340 1114 340 1119 q 350 1089 340 1097 q 381 1081 360 1081 "},"Ą":{"ha":900,"x_min":-81,"x_max":817,"o":"m 631 -342 q 775 -307 724 -342 q 792 -283 792 -294 q 789 -268 792 -279 l 767 -183 q 754 -172 764 -172 q 743 -175 747 -172 q 731 -181 740 -176 q 710 -186 722 -186 q 694 -182 699 -186 q 690 -167 690 -178 q 719 -98 690 -137 q 807 -4 747 -58 q 817 22 817 4 q 814 49 817 29 l 679 932 q 617 986 675 986 l 439 986 q 394 980 407 986 q 368 946 382 974 l -74 65 q -81 36 -81 47 q -69 10 -81 19 q -39 0 -58 0 l 122 0 q 172 3 156 0 q 195 17 188 7 q 213 50 203 26 l 260 160 l 517 160 l 526 57 q 542 10 529 21 q 590 -1 556 -1 l 625 0 q 523 -114 558 -56 q 488 -229 488 -172 q 526 -317 488 -292 q 631 -342 564 -342 m 501 378 l 354 378 l 419 531 q 486 756 467 640 l 499 756 q 492 601 492 686 q 493 543 492 561 l 501 378 "},"Å":{"ha":900,"x_min":-81,"x_max":818,"o":"m -37 0 l 124 0 q 173 3 158 0 q 194 16 188 7 q 213 50 201 25 l 260 160 l 517 160 l 526 65 q 533 26 529 38 q 549 7 536 14 q 594 0 563 0 l 763 0 q 803 13 788 0 q 814 49 818 25 l 681 918 q 727 983 713 946 q 742 1061 742 1021 q 694 1178 742 1132 q 565 1224 647 1224 q 408 1171 468 1224 q 347 1025 347 1118 q 372 935 347 971 l -74 65 q -81 38 -81 53 q -69 10 -81 21 q -37 0 -58 0 m 532 988 q 494 1000 507 988 q 481 1033 481 1013 q 502 1083 481 1065 q 556 1101 524 1101 q 592 1089 579 1101 q 606 1054 606 1076 q 585 1006 606 1024 q 532 988 564 988 m 501 378 l 354 378 l 419 531 q 486 756 467 640 l 499 756 q 492 601 492 686 q 493 543 492 561 l 501 378 "},"Ǻ":{"ha":900,"x_min":-81,"x_max":818,"o":"m 511 1242 l 746 1297 q 771 1319 771 1303 q 764 1336 771 1326 l 701 1408 q 672 1424 690 1424 q 644 1417 660 1424 q 625 1410 629 1411 l 436 1332 q 417 1310 417 1324 q 428 1286 417 1300 l 457 1254 q 472 1242 465 1246 q 489 1239 478 1239 q 511 1242 503 1239 m -37 0 l 124 0 q 173 3 158 0 q 194 16 188 7 q 213 50 201 25 l 260 160 l 517 160 l 526 65 q 533 26 529 38 q 549 7 536 14 q 594 0 563 0 l 763 0 q 803 13 788 0 q 814 49 818 25 l 681 918 q 727 983 713 946 q 742 1061 742 1021 q 694 1178 742 1132 q 565 1224 647 1224 q 408 1171 468 1224 q 347 1025 347 1118 q 372 935 347 971 l -74 65 q -81 38 -81 53 q -69 10 -81 21 q -37 0 -58 0 m 532 988 q 494 1000 507 988 q 481 1033 481 1013 q 502 1083 481 1065 q 556 1101 524 1101 q 592 1089 579 1101 q 606 1054 606 1076 q 585 1006 606 1024 q 532 988 564 988 m 501 378 l 354 378 l 419 531 q 486 756 467 640 l 499 756 q 492 601 492 686 q 493 543 492 561 l 501 378 "},"Ã":{"ha":900,"x_min":-81,"x_max":818,"o":"m -39 0 l 126 0 q 172 3 157 0 q 194 17 186 7 q 213 50 201 26 l 260 160 l 517 160 l 526 57 q 539 14 529 28 q 582 0 549 0 l 754 0 q 802 12 786 0 q 814 51 818 24 l 679 932 q 619 986 671 986 l 442 986 q 396 980 410 986 q 368 946 382 974 l -74 65 q -81 36 -81 47 q -69 10 -81 19 q -39 0 -58 0 m 501 378 l 354 378 l 419 531 q 486 756 467 640 l 499 756 q 492 601 492 686 q 493 543 492 561 l 501 378 m 339 1061 l 425 1061 q 440 1065 433 1061 q 447 1078 446 1069 q 483 1118 453 1118 q 507 1113 496 1118 q 535 1099 518 1108 q 592 1071 565 1081 q 661 1061 618 1061 q 761 1097 725 1061 q 814 1219 797 1132 l 817 1242 q 812 1259 817 1254 q 793 1264 807 1264 l 701 1264 q 679 1246 679 1264 q 669 1214 678 1222 q 644 1206 661 1206 q 619 1210 632 1206 q 590 1226 607 1215 q 531 1254 558 1244 q 458 1264 503 1264 q 360 1228 397 1264 q 311 1104 322 1192 q 310 1086 310 1097 q 316 1067 310 1072 q 339 1061 322 1061 "},"Æ":{"ha":1188,"x_min":-87,"x_max":1222,"o":"m -39 0 l 110 0 q 174 8 154 0 q 214 44 193 15 l 278 146 l 539 146 l 525 67 q 522 42 522 47 q 569 0 522 0 l 1015 0 q 1060 10 1047 0 q 1079 50 1074 21 l 1101 176 q 1104 200 1104 193 q 1092 233 1104 222 q 1050 243 1079 243 l 803 243 l 826 376 l 997 376 q 1042 387 1029 376 q 1060 428 1054 397 l 1081 553 q 1083 575 1083 569 q 1033 619 1083 619 l 869 619 l 892 743 l 1133 743 q 1179 753 1167 743 q 1197 796 1192 763 l 1219 919 q 1222 943 1222 936 q 1174 986 1222 986 l 699 986 q 653 979 668 986 q 618 946 638 972 l -75 65 q -87 36 -87 51 q -74 10 -87 21 q -39 0 -61 0 m 576 356 l 453 356 l 618 596 l 576 356 "},"Ǽ":{"ha":1188,"x_min":-87,"x_max":1222,"o":"m -39 0 l 110 0 q 174 8 154 0 q 214 44 193 15 l 278 146 l 539 146 l 525 67 q 522 42 522 47 q 569 0 522 0 l 1015 0 q 1060 10 1047 0 q 1079 50 1074 21 l 1101 176 q 1104 200 1104 193 q 1092 233 1104 222 q 1050 243 1079 243 l 803 243 l 826 376 l 997 376 q 1042 387 1029 376 q 1060 428 1054 397 l 1081 553 q 1083 575 1083 569 q 1033 619 1083 619 l 869 619 l 892 743 l 1133 743 q 1179 753 1167 743 q 1197 796 1192 763 l 1219 919 q 1222 943 1222 936 q 1174 986 1222 986 l 699 986 q 653 979 668 986 q 618 946 638 972 l -75 65 q -87 36 -87 51 q -74 10 -87 21 q -39 0 -61 0 m 576 356 l 453 356 l 618 596 l 576 356 m 775 1107 l 808 1057 q 835 1042 819 1042 q 868 1049 844 1042 l 1126 1131 q 1151 1154 1151 1139 q 1133 1190 1151 1169 l 1075 1265 q 1032 1289 1057 1289 q 990 1275 1015 1289 l 781 1160 q 761 1138 761 1150 q 775 1107 761 1128 "},"B":{"ha":858,"x_min":-8,"x_max":835,"o":"m 39 0 l 422 0 q 694 85 594 0 q 793 322 793 169 q 689 510 793 454 l 689 513 q 799 613 764 553 q 835 760 835 674 q 760 926 835 867 q 549 986 686 986 l 208 986 q 166 977 179 986 q 147 936 153 968 l -6 67 q -8 44 -8 53 q 39 0 -8 0 m 454 607 l 364 607 l 392 764 l 481 764 q 539 747 521 764 q 557 696 557 731 q 527 629 557 651 q 454 607 497 607 m 417 225 l 297 225 l 326 392 l 435 392 q 522 329 522 392 q 494 252 522 279 q 417 225 467 225 "},"C":{"ha":849,"x_min":17,"x_max":867,"o":"m 369 -21 q 615 35 517 -21 q 772 208 714 92 q 785 250 785 233 q 750 294 785 282 l 607 343 q 571 351 583 351 q 538 324 551 351 q 478 245 513 268 q 393 222 443 222 q 292 314 292 222 q 296 354 292 332 l 342 611 q 394 728 357 692 q 500 764 431 764 q 610 693 588 764 q 627 654 618 667 q 653 642 636 642 q 669 644 658 642 l 825 685 q 858 701 849 690 q 867 729 867 711 q 865 746 867 740 q 759 938 850 869 q 514 1007 668 1007 q 215 908 328 1007 q 69 626 103 810 l 25 376 q 17 289 17 331 q 108 62 17 144 q 369 -21 200 -21 "},"Ć":{"ha":849,"x_min":17,"x_max":867,"o":"m 369 -21 q 615 35 517 -21 q 772 208 714 92 q 785 250 785 233 q 750 294 785 282 l 607 343 q 571 351 583 351 q 538 324 551 351 q 478 245 513 268 q 393 222 443 222 q 292 314 292 222 q 296 354 292 332 l 342 611 q 394 728 357 692 q 500 764 431 764 q 610 693 588 764 q 627 654 618 667 q 653 642 636 642 q 669 644 658 642 l 825 685 q 858 701 849 690 q 867 729 867 711 q 865 746 867 740 q 759 938 850 869 q 514 1007 668 1007 q 215 908 328 1007 q 69 626 103 810 l 25 376 q 17 289 17 331 q 108 62 17 144 q 369 -21 200 -21 m 378 1107 l 411 1057 q 438 1042 422 1042 q 471 1049 447 1042 l 729 1131 q 754 1154 754 1139 q 736 1190 754 1169 l 678 1265 q 635 1289 660 1289 q 593 1275 618 1289 l 383 1160 q 364 1138 364 1150 q 378 1107 364 1128 "},"Č":{"ha":849,"x_min":17,"x_max":867,"o":"m 369 -21 q 615 35 517 -21 q 772 208 714 92 q 785 250 785 233 q 750 294 785 282 l 607 343 q 571 351 583 351 q 538 324 551 351 q 478 245 513 268 q 393 222 443 222 q 292 314 292 222 q 296 354 292 332 l 342 611 q 394 728 357 692 q 500 764 431 764 q 610 693 588 764 q 627 654 618 667 q 653 642 636 642 q 669 644 658 642 l 825 685 q 858 701 849 690 q 867 729 867 711 q 865 746 867 740 q 759 938 850 869 q 514 1007 668 1007 q 215 908 328 1007 q 69 626 103 810 l 25 376 q 17 289 17 331 q 108 62 17 144 q 369 -21 200 -21 m 533 1047 l 576 1047 q 636 1053 618 1047 q 679 1082 654 1060 l 843 1226 q 863 1257 863 1243 q 824 1278 863 1278 l 689 1278 q 674 1278 685 1278 q 651 1274 663 1278 q 625 1254 640 1271 l 575 1200 l 538 1242 q 526 1256 533 1246 q 506 1272 518 1267 q 467 1278 494 1278 l 350 1278 q 311 1261 311 1278 q 324 1238 311 1250 l 440 1096 q 481 1056 464 1065 q 533 1047 497 1047 "},"Ç":{"ha":849,"x_min":17,"x_max":867,"o":"m 292 -340 q 456 -300 394 -340 q 518 -171 518 -260 q 468 -79 518 -103 q 400 -67 438 -62 l 436 -18 q 638 49 556 -7 q 772 208 721 106 q 785 250 785 233 q 750 294 785 282 l 607 343 q 571 351 583 351 q 538 324 551 351 q 478 245 513 268 q 393 222 443 222 q 292 314 292 222 q 296 354 292 332 l 342 611 q 394 728 357 692 q 500 764 431 764 q 610 693 588 764 q 627 654 618 667 q 653 642 636 642 q 669 644 658 642 l 825 685 q 858 701 849 690 q 867 729 867 711 q 865 746 867 740 q 759 938 850 869 q 514 1007 668 1007 q 215 908 328 1007 q 69 626 103 810 l 25 376 q 17 289 17 331 q 90 80 17 160 q 300 -17 163 0 l 236 -112 q 226 -140 226 -126 q 231 -154 226 -149 q 244 -160 236 -160 l 296 -158 q 329 -165 321 -158 q 338 -183 338 -171 q 320 -213 338 -204 q 269 -222 303 -222 q 188 -203 231 -222 q 176 -199 182 -199 q 164 -215 167 -199 l 151 -282 q 160 -307 147 -299 q 292 -340 218 -340 "},"Ĉ":{"ha":849,"x_min":17,"x_max":867,"o":"m 369 -21 q 615 35 517 -21 q 772 208 714 92 q 785 250 785 233 q 750 294 785 282 l 607 343 q 571 351 583 351 q 538 324 551 351 q 478 245 513 268 q 393 222 443 222 q 292 314 292 222 q 296 354 292 332 l 342 611 q 394 728 357 692 q 500 764 431 764 q 610 693 588 764 q 627 654 618 667 q 653 642 636 642 q 669 644 658 642 l 825 685 q 858 701 849 690 q 867 729 867 711 q 865 746 867 740 q 759 938 850 869 q 514 1007 668 1007 q 215 908 328 1007 q 69 626 103 810 l 25 376 q 17 289 17 331 q 108 62 17 144 q 369 -21 200 -21 m 313 1049 l 447 1049 q 463 1049 451 1049 q 485 1052 474 1049 q 511 1072 496 1056 l 561 1126 l 599 1085 q 610 1070 603 1081 q 630 1054 618 1060 q 669 1049 642 1049 l 786 1049 q 825 1065 825 1049 q 813 1089 825 1076 l 696 1231 q 655 1270 671 1261 q 603 1279 639 1279 l 560 1279 q 500 1273 518 1279 q 457 1244 482 1267 l 293 1100 q 274 1069 274 1083 q 313 1049 274 1049 "},"Ċ":{"ha":849,"x_min":17,"x_max":867,"o":"m 369 -21 q 615 35 517 -21 q 772 208 714 92 q 785 250 785 233 q 750 294 785 282 l 607 343 q 571 351 583 351 q 538 324 551 351 q 478 245 513 268 q 393 222 443 222 q 292 314 292 222 q 296 354 292 332 l 342 611 q 394 728 357 692 q 500 764 431 764 q 610 693 588 764 q 627 654 618 667 q 653 642 636 642 q 669 644 658 642 l 825 685 q 858 701 849 690 q 867 729 867 711 q 865 746 867 740 q 759 938 850 869 q 514 1007 668 1007 q 215 908 328 1007 q 69 626 103 810 l 25 376 q 17 289 17 331 q 108 62 17 144 q 369 -21 200 -21 m 549 1051 l 557 1051 q 620 1059 599 1051 q 653 1086 642 1067 q 672 1147 665 1106 l 674 1158 q 678 1199 678 1182 q 656 1254 678 1238 q 585 1271 633 1271 l 576 1271 q 513 1263 535 1271 q 480 1236 492 1256 q 461 1175 468 1217 l 458 1164 q 454 1125 454 1143 q 476 1069 454 1086 q 549 1051 499 1051 "},"D":{"ha":894,"x_min":-8,"x_max":872,"o":"m 39 0 l 361 0 q 676 99 556 0 q 829 381 797 199 l 865 589 q 872 671 872 625 q 776 902 872 818 q 508 986 681 986 l 210 986 q 166 976 179 986 q 147 936 153 967 l -6 67 q -8 43 -8 50 q 3 10 -8 21 q 39 0 14 0 m 372 243 l 300 243 l 389 743 l 461 743 q 567 719 536 743 q 599 647 599 696 q 593 601 599 635 l 557 401 q 525 305 546 339 q 469 257 504 271 q 372 243 433 243 "},"Ð":{"ha":922,"x_min":4,"x_max":900,"o":"m 67 0 l 389 0 q 704 99 583 0 q 857 381 825 199 l 893 589 q 900 671 900 625 q 804 902 900 818 q 536 986 708 986 l 238 986 q 194 976 207 986 q 175 936 181 967 l 114 589 l 63 589 q 36 583 44 589 q 25 560 28 576 l 6 450 q 4 433 4 443 q 10 416 4 421 q 32 411 17 411 l 83 411 l 22 67 q 19 43 19 50 q 31 10 19 21 q 67 0 42 0 m 400 243 l 328 243 l 358 411 l 443 411 q 469 417 461 411 q 481 440 478 424 l 500 550 q 501 567 501 557 q 495 584 501 579 q 474 589 489 589 l 389 589 l 417 743 l 489 743 q 595 719 564 743 q 626 647 626 696 q 621 601 626 635 l 585 401 q 553 305 574 339 q 497 257 532 271 q 400 243 461 243 "},"Ď":{"ha":894,"x_min":-8,"x_max":872,"o":"m 39 0 l 361 0 q 676 99 556 0 q 829 381 797 199 l 865 589 q 872 671 872 625 q 776 902 872 818 q 508 986 681 986 l 210 986 q 166 976 179 986 q 147 936 153 967 l -6 67 q -8 43 -8 50 q 3 10 -8 21 q 39 0 14 0 m 372 243 l 300 243 l 389 743 l 461 743 q 567 719 536 743 q 599 647 599 696 q 593 601 599 635 l 557 401 q 525 305 546 339 q 469 257 504 271 q 372 243 433 243 m 504 1047 l 547 1047 q 607 1053 589 1047 q 650 1082 625 1060 l 814 1226 q 833 1257 833 1243 q 794 1278 833 1278 l 660 1278 q 644 1278 656 1278 q 622 1274 633 1278 q 596 1254 611 1271 l 546 1200 l 508 1242 q 497 1256 504 1246 q 477 1272 489 1267 q 438 1278 465 1278 l 321 1278 q 282 1261 282 1278 q 294 1238 282 1250 l 411 1096 q 451 1056 435 1065 q 504 1047 468 1047 "},"Đ":{"ha":922,"x_min":4,"x_max":900,"o":"m 67 0 l 389 0 q 704 99 583 0 q 857 381 825 199 l 893 589 q 900 671 900 625 q 804 902 900 818 q 536 986 708 986 l 238 986 q 194 976 207 986 q 175 936 181 967 l 114 589 l 63 589 q 36 583 44 589 q 25 560 28 576 l 6 450 q 4 433 4 443 q 10 416 4 421 q 32 411 17 411 l 83 411 l 22 67 q 19 43 19 50 q 31 10 19 21 q 67 0 42 0 m 400 243 l 328 243 l 358 411 l 443 411 q 469 417 461 411 q 481 440 478 424 l 500 550 q 501 567 501 557 q 495 584 501 579 q 474 589 489 589 l 389 589 l 417 743 l 489 743 q 595 719 564 743 q 626 647 626 696 q 621 601 626 635 l 585 401 q 553 305 574 339 q 497 257 532 271 q 400 243 461 243 "},"E":{"ha":778,"x_min":-8,"x_max":808,"o":"m 39 0 l 596 0 q 645 10 631 0 q 665 50 660 19 l 688 176 q 690 200 690 193 q 678 233 690 222 q 638 243 667 243 l 300 243 l 324 376 l 583 376 q 628 388 615 376 q 646 428 640 399 l 667 553 q 669 576 669 569 q 657 609 669 599 q 615 619 644 619 l 367 619 l 389 743 l 722 743 q 767 755 754 743 q 783 794 779 767 l 806 919 q 808 944 808 939 q 760 986 808 986 l 214 986 q 166 977 179 986 q 147 936 153 968 l -6 67 q -8 43 -8 50 q 3 10 -8 21 q 39 0 14 0 "},"É":{"ha":778,"x_min":-8,"x_max":808,"o":"m 39 0 l 596 0 q 645 10 631 0 q 665 50 660 19 l 688 176 q 690 200 690 193 q 678 233 690 222 q 638 243 667 243 l 300 243 l 324 376 l 583 376 q 628 388 615 376 q 646 428 640 399 l 667 553 q 669 576 669 569 q 657 609 669 599 q 615 619 644 619 l 367 619 l 389 743 l 722 743 q 767 755 754 743 q 783 794 779 767 l 806 919 q 808 944 808 939 q 760 986 808 986 l 214 986 q 166 977 179 986 q 147 936 153 968 l -6 67 q -8 43 -8 50 q 3 10 -8 21 q 39 0 14 0 m 336 1107 l 369 1057 q 396 1042 381 1042 q 429 1049 406 1042 l 688 1131 q 713 1154 713 1139 q 694 1190 713 1169 l 636 1265 q 593 1289 618 1289 q 551 1275 576 1289 l 342 1160 q 322 1138 322 1150 q 336 1107 322 1128 "},"Ĕ":{"ha":778,"x_min":-8,"x_max":808,"o":"m 39 0 l 596 0 q 645 10 631 0 q 665 50 660 19 l 688 176 q 690 200 690 193 q 678 233 690 222 q 638 243 667 243 l 300 243 l 324 376 l 583 376 q 628 388 615 376 q 646 428 640 399 l 667 553 q 669 576 669 569 q 657 609 669 599 q 615 619 644 619 l 367 619 l 389 743 l 722 743 q 767 755 754 743 q 783 794 779 767 l 806 919 q 808 944 808 939 q 760 986 808 986 l 214 986 q 166 977 179 986 q 147 936 153 968 l -6 67 q -8 43 -8 50 q 3 10 -8 21 q 39 0 14 0 m 514 1049 q 669 1083 603 1049 q 775 1182 736 1117 q 783 1207 783 1197 q 753 1240 783 1226 l 661 1276 q 644 1283 653 1279 q 631 1288 635 1288 q 613 1279 624 1288 q 521 1217 578 1217 q 478 1229 493 1217 q 450 1265 463 1242 q 425 1286 439 1286 q 403 1281 419 1286 l 310 1249 q 292 1240 297 1244 q 288 1228 288 1235 q 290 1213 288 1224 q 367 1091 310 1133 q 514 1049 424 1049 "},"Ě":{"ha":778,"x_min":-8,"x_max":821,"o":"m 39 0 l 596 0 q 645 10 631 0 q 665 50 660 19 l 688 176 q 690 200 690 193 q 678 233 690 222 q 638 243 667 243 l 300 243 l 324 376 l 583 376 q 628 388 615 376 q 646 428 640 399 l 667 553 q 669 576 669 569 q 657 609 669 599 q 615 619 644 619 l 367 619 l 389 743 l 722 743 q 767 755 754 743 q 783 794 779 767 l 806 919 q 808 944 808 939 q 760 986 808 986 l 214 986 q 166 977 179 986 q 147 936 153 968 l -6 67 q -8 43 -8 50 q 3 10 -8 21 q 39 0 14 0 m 492 1047 l 535 1047 q 594 1053 576 1047 q 638 1082 613 1060 l 801 1226 q 821 1257 821 1243 q 782 1278 821 1278 l 647 1278 q 632 1278 643 1278 q 610 1274 621 1278 q 583 1254 599 1271 l 533 1200 l 496 1242 q 484 1256 492 1246 q 465 1272 476 1267 q 425 1278 453 1278 l 308 1278 q 269 1261 269 1278 q 282 1238 269 1250 l 399 1096 q 439 1056 422 1065 q 492 1047 456 1047 "},"Ê":{"ha":778,"x_min":-8,"x_max":808,"o":"m 39 0 l 596 0 q 645 10 631 0 q 665 50 660 19 l 688 176 q 690 200 690 193 q 678 233 690 222 q 638 243 667 243 l 300 243 l 324 376 l 583 376 q 628 388 615 376 q 646 428 640 399 l 667 553 q 669 576 669 569 q 657 609 669 599 q 615 619 644 619 l 367 619 l 389 743 l 722 743 q 767 755 754 743 q 783 794 779 767 l 806 919 q 808 944 808 939 q 760 986 808 986 l 214 986 q 166 977 179 986 q 147 936 153 968 l -6 67 q -8 43 -8 50 q 3 10 -8 21 q 39 0 14 0 m 271 1049 l 406 1049 q 421 1049 410 1049 q 443 1052 432 1049 q 469 1072 454 1056 l 519 1126 l 557 1085 q 569 1070 561 1081 q 588 1054 576 1060 q 628 1049 600 1049 l 744 1049 q 783 1065 783 1049 q 771 1089 783 1076 l 654 1231 q 613 1270 629 1261 q 561 1279 597 1279 l 518 1279 q 458 1273 476 1279 q 415 1244 440 1267 l 251 1100 q 232 1069 232 1083 q 271 1049 232 1049 "},"Ë":{"ha":778,"x_min":-8,"x_max":808,"o":"m 39 0 l 596 0 q 645 10 631 0 q 665 50 660 19 l 688 176 q 690 200 690 193 q 678 233 690 222 q 638 243 667 243 l 300 243 l 324 376 l 583 376 q 628 388 615 376 q 646 428 640 399 l 667 553 q 669 576 669 569 q 657 609 669 599 q 615 619 644 619 l 367 619 l 389 743 l 722 743 q 767 755 754 743 q 783 794 779 767 l 806 919 q 808 944 808 939 q 760 986 808 986 l 214 986 q 166 977 179 986 q 147 936 153 968 l -6 67 q -8 43 -8 50 q 3 10 -8 21 q 39 0 14 0 m 356 1054 l 367 1054 q 447 1072 424 1054 q 479 1144 469 1089 l 482 1163 q 485 1196 485 1188 q 463 1252 485 1235 q 393 1269 442 1269 l 382 1269 q 321 1263 342 1269 q 290 1237 300 1256 q 272 1179 279 1218 l 269 1161 q 267 1126 267 1149 q 288 1072 267 1089 q 356 1054 308 1054 m 656 1054 l 665 1054 q 744 1072 722 1054 q 776 1144 767 1089 l 779 1163 q 782 1196 782 1175 q 760 1252 782 1235 q 692 1269 739 1269 l 682 1269 q 601 1252 624 1269 q 569 1179 579 1235 l 567 1161 q 564 1128 564 1136 q 585 1072 564 1090 q 656 1054 607 1054 "},"Ė":{"ha":778,"x_min":-8,"x_max":808,"o":"m 39 0 l 596 0 q 645 10 631 0 q 665 50 660 19 l 688 176 q 690 200 690 193 q 678 233 690 222 q 638 243 667 243 l 300 243 l 324 376 l 583 376 q 628 388 615 376 q 646 428 640 399 l 667 553 q 669 576 669 569 q 657 609 669 599 q 615 619 644 619 l 367 619 l 389 743 l 722 743 q 767 755 754 743 q 783 794 779 767 l 806 919 q 808 944 808 939 q 760 986 808 986 l 214 986 q 166 977 179 986 q 147 936 153 968 l -6 67 q -8 43 -8 50 q 3 10 -8 21 q 39 0 14 0 m 507 1051 l 515 1051 q 578 1059 557 1051 q 612 1086 600 1067 q 631 1147 624 1106 l 632 1158 q 636 1199 636 1182 q 614 1254 636 1238 q 543 1271 592 1271 l 535 1271 q 472 1263 493 1271 q 438 1236 450 1256 q 419 1175 426 1217 l 417 1164 q 413 1125 413 1143 q 435 1069 413 1086 q 507 1051 457 1051 "},"È":{"ha":778,"x_min":-8,"x_max":808,"o":"m 39 0 l 596 0 q 645 10 631 0 q 665 50 660 19 l 688 176 q 690 200 690 193 q 678 233 690 222 q 638 243 667 243 l 300 243 l 324 376 l 583 376 q 628 388 615 376 q 646 428 640 399 l 667 553 q 669 576 669 569 q 657 609 669 599 q 615 619 644 619 l 367 619 l 389 743 l 722 743 q 767 755 754 743 q 783 794 779 767 l 806 919 q 808 944 808 939 q 760 986 808 986 l 214 986 q 166 977 179 986 q 147 936 153 968 l -6 67 q -8 43 -8 50 q 3 10 -8 21 q 39 0 14 0 m 365 1136 l 596 1053 q 633 1043 621 1043 q 658 1054 647 1043 l 707 1100 q 722 1126 722 1115 q 703 1150 722 1138 l 529 1267 q 519 1274 526 1269 q 500 1285 511 1279 q 478 1292 489 1292 q 443 1276 460 1292 l 358 1201 q 339 1167 339 1185 q 365 1136 339 1144 "},"Ē":{"ha":778,"x_min":-8,"x_max":808,"o":"m 39 0 l 596 0 q 645 10 631 0 q 665 50 660 19 l 688 176 q 690 200 690 193 q 678 233 690 222 q 638 243 667 243 l 300 243 l 324 376 l 583 376 q 628 388 615 376 q 646 428 640 399 l 667 553 q 669 576 669 569 q 657 609 669 599 q 615 619 644 619 l 367 619 l 389 743 l 722 743 q 767 755 754 743 q 783 794 779 767 l 806 919 q 808 944 808 939 q 760 986 808 986 l 214 986 q 166 977 179 986 q 147 936 153 968 l -6 67 q -8 43 -8 50 q 3 10 -8 21 q 39 0 14 0 m 339 1081 l 678 1081 q 721 1088 710 1081 q 738 1124 732 1094 l 747 1181 q 750 1207 750 1200 q 741 1231 750 1224 q 711 1239 732 1239 l 368 1239 q 328 1232 339 1239 q 311 1197 317 1225 l 301 1139 q 299 1114 299 1119 q 308 1089 299 1097 q 339 1081 318 1081 "},"Ę":{"ha":778,"x_min":-8,"x_max":808,"o":"m 446 -342 q 601 -303 550 -342 q 613 -283 613 -294 q 608 -262 613 -275 l 589 -189 q 576 -172 585 -172 q 565 -175 569 -172 q 529 -186 543 -186 q 511 -167 511 -186 l 511 -164 q 639 -1 518 -97 q 665 50 658 15 l 688 176 q 689 199 689 185 q 678 232 689 221 q 640 243 667 243 l 300 243 l 324 376 l 583 376 q 628 387 615 376 q 646 428 640 397 l 667 553 q 669 576 669 569 q 657 609 669 599 q 615 619 644 619 l 367 619 l 389 743 l 722 743 q 765 753 751 743 q 783 794 778 764 l 806 919 q 808 944 808 939 q 797 976 808 965 q 760 986 785 986 l 210 986 q 165 977 176 986 q 147 936 153 968 l -6 67 q -8 43 -8 50 q 3 10 -8 21 q 39 0 14 0 l 447 0 q 344 -112 381 -53 q 308 -231 308 -171 q 347 -316 308 -290 q 446 -342 385 -342 "},"F":{"ha":764,"x_min":-7,"x_max":813,"o":"m 47 0 l 206 0 q 249 9 238 0 q 267 50 261 18 l 317 339 l 582 339 q 624 349 610 339 q 643 390 638 360 l 664 515 q 667 539 667 532 q 654 572 667 561 q 613 582 642 582 l 360 582 l 389 743 l 724 743 q 769 753 756 743 q 788 794 782 763 l 810 919 q 813 944 813 939 q 764 986 813 986 l 208 986 q 166 976 179 986 q 147 936 153 967 l -6 67 q -7 47 -7 60 q 47 0 -7 0 "},"G":{"ha":890,"x_min":17,"x_max":867,"o":"m 368 -21 q 674 68 558 -21 q 818 315 789 157 l 851 499 q 854 524 854 518 q 841 558 854 549 q 800 567 828 567 l 471 567 q 431 558 440 567 q 414 515 421 549 l 396 411 q 393 389 393 394 q 443 344 393 344 l 553 344 l 550 325 q 506 250 543 278 q 403 222 468 222 q 293 315 293 222 q 297 358 293 336 l 342 611 q 390 726 354 688 q 499 764 426 764 q 610 696 589 764 q 626 653 618 665 q 651 642 635 642 q 676 646 661 642 l 835 688 q 867 732 867 696 q 865 750 867 744 q 756 941 846 875 q 513 1007 665 1007 q 213 908 324 1007 q 69 626 103 810 l 25 376 q 17 289 17 331 q 108 62 17 144 q 368 -21 200 -21 "},"Ğ":{"ha":890,"x_min":17,"x_max":867,"o":"m 368 -21 q 674 68 558 -21 q 818 315 789 157 l 851 499 q 854 524 854 518 q 841 558 854 549 q 800 567 828 567 l 471 567 q 431 558 440 567 q 414 515 421 549 l 396 411 q 393 389 393 394 q 443 344 393 344 l 553 344 l 550 325 q 506 250 543 278 q 403 222 468 222 q 293 315 293 222 q 297 358 293 336 l 342 611 q 390 726 354 688 q 499 764 426 764 q 610 696 589 764 q 626 653 618 665 q 651 642 635 642 q 676 646 661 642 l 835 688 q 867 732 867 696 q 865 750 867 744 q 756 941 846 875 q 513 1007 665 1007 q 213 908 324 1007 q 69 626 103 810 l 25 376 q 17 289 17 331 q 108 62 17 144 q 368 -21 200 -21 m 557 1063 q 713 1097 646 1063 q 818 1196 779 1131 q 826 1221 826 1211 q 796 1254 826 1240 l 704 1290 q 687 1297 696 1293 q 674 1301 678 1301 q 656 1293 667 1301 q 564 1231 621 1231 q 521 1243 536 1231 q 493 1279 506 1256 q 468 1300 482 1300 q 446 1294 463 1300 l 353 1263 q 335 1253 340 1258 q 331 1242 331 1249 q 333 1226 331 1238 q 410 1105 353 1147 q 557 1063 467 1063 "},"Ĝ":{"ha":890,"x_min":17,"x_max":867,"o":"m 368 -21 q 674 68 558 -21 q 818 315 789 157 l 851 499 q 854 524 854 518 q 841 558 854 549 q 800 567 828 567 l 471 567 q 431 558 440 567 q 414 515 421 549 l 396 411 q 393 389 393 394 q 443 344 393 344 l 553 344 l 550 325 q 506 250 543 278 q 403 222 468 222 q 293 315 293 222 q 297 358 293 336 l 342 611 q 390 726 354 688 q 499 764 426 764 q 610 696 589 764 q 626 653 618 665 q 651 642 635 642 q 676 646 661 642 l 835 688 q 867 732 867 696 q 865 750 867 744 q 756 941 846 875 q 513 1007 665 1007 q 213 908 324 1007 q 69 626 103 810 l 25 376 q 17 289 17 331 q 108 62 17 144 q 368 -21 200 -21 m 314 1063 l 449 1063 q 464 1063 453 1063 q 486 1066 475 1063 q 513 1086 497 1069 l 563 1140 l 600 1099 q 612 1084 604 1094 q 631 1068 619 1074 q 671 1063 643 1063 l 788 1063 q 826 1079 826 1063 q 814 1103 826 1090 l 697 1244 q 656 1284 672 1275 q 604 1293 640 1293 l 561 1293 q 501 1287 519 1293 q 458 1258 483 1281 l 294 1114 q 275 1083 275 1097 q 314 1063 275 1063 "},"Ģ":{"ha":890,"x_min":17,"x_max":867,"o":"m 368 -21 q 674 68 558 -21 q 818 315 789 157 l 851 499 q 854 524 854 518 q 841 558 854 549 q 800 567 828 567 l 471 567 q 431 558 440 567 q 414 515 421 549 l 396 411 q 393 389 393 394 q 443 344 393 344 l 553 344 l 550 325 q 506 250 543 278 q 403 222 468 222 q 293 315 293 222 q 297 358 293 336 l 342 611 q 390 726 354 688 q 499 764 426 764 q 610 696 589 764 q 626 653 618 665 q 651 642 635 642 q 676 646 661 642 l 835 688 q 867 732 867 696 q 865 750 867 744 q 756 941 846 875 q 513 1007 665 1007 q 213 908 324 1007 q 69 626 103 810 l 25 376 q 17 289 17 331 q 108 62 17 144 q 368 -21 200 -21 m 219 -361 l 308 -361 q 347 -354 336 -361 q 371 -324 358 -347 l 474 -133 q 481 -106 481 -117 q 467 -77 481 -87 q 429 -67 454 -67 l 304 -67 q 260 -76 272 -67 q 239 -117 249 -86 l 182 -311 q 179 -326 179 -322 q 190 -351 179 -342 q 219 -361 201 -361 "},"Ġ":{"ha":890,"x_min":17,"x_max":867,"o":"m 368 -21 q 674 68 558 -21 q 818 315 789 157 l 851 499 q 854 524 854 518 q 841 558 854 549 q 800 567 828 567 l 471 567 q 431 558 440 567 q 414 515 421 549 l 396 411 q 393 389 393 394 q 443 344 393 344 l 553 344 l 550 325 q 506 250 543 278 q 403 222 468 222 q 293 315 293 222 q 297 358 293 336 l 342 611 q 390 726 354 688 q 499 764 426 764 q 610 696 589 764 q 626 653 618 665 q 651 642 635 642 q 676 646 661 642 l 835 688 q 867 732 867 696 q 865 750 867 744 q 756 941 846 875 q 513 1007 665 1007 q 213 908 324 1007 q 69 626 103 810 l 25 376 q 17 289 17 331 q 108 62 17 144 q 368 -21 200 -21 m 550 1065 l 558 1065 q 622 1073 600 1065 q 655 1100 643 1081 q 674 1161 667 1119 l 675 1172 q 679 1213 679 1196 q 657 1268 679 1251 q 586 1285 635 1285 l 578 1285 q 515 1277 536 1285 q 481 1250 493 1269 q 463 1189 469 1231 l 460 1178 q 456 1139 456 1157 q 478 1083 456 1100 q 550 1065 500 1065 "},"H":{"ha":914,"x_min":-7,"x_max":922,"o":"m 40 0 l 199 0 q 247 10 233 0 q 267 50 261 19 l 324 378 l 549 378 l 494 67 q 492 42 492 47 q 539 0 492 0 l 697 0 q 747 10 732 0 q 767 50 761 19 l 919 919 q 922 943 922 936 q 910 976 922 965 q 872 986 899 986 l 715 986 q 667 976 681 986 q 647 935 653 967 l 592 621 l 367 621 l 419 919 q 421 942 421 928 q 410 975 421 964 q 374 986 399 986 l 215 986 q 167 977 181 986 q 147 936 153 968 l -6 67 q -7 44 -7 58 q 4 11 -7 22 q 40 0 15 0 "},"Ħ":{"ha":960,"x_min":14,"x_max":1015,"o":"m 64 0 l 221 0 q 269 9 256 0 q 289 50 283 18 l 346 378 l 571 378 l 517 67 q 514 40 514 47 q 524 10 514 19 q 560 0 535 0 l 721 0 q 769 9 756 0 q 789 50 783 18 l 908 726 l 963 726 q 989 733 982 726 q 999 756 996 739 l 1013 829 l 1015 851 q 990 874 1015 874 l 933 874 l 942 919 q 944 943 944 936 q 933 976 944 965 q 894 986 921 986 l 739 986 q 690 977 704 986 q 669 936 675 968 l 658 874 l 433 874 l 442 919 q 444 943 444 936 q 433 976 444 965 q 394 986 421 986 l 238 986 q 189 977 203 986 q 169 936 175 968 l 158 874 l 110 874 q 81 869 90 874 q 69 846 72 865 l 56 771 q 53 750 53 754 q 81 726 53 726 l 133 726 l 17 67 q 14 43 14 50 q 64 0 14 0 m 614 621 l 389 621 l 407 726 l 633 726 l 614 621 "},"Ĥ":{"ha":914,"x_min":-7,"x_max":922,"o":"m 40 0 l 199 0 q 247 10 233 0 q 267 50 261 19 l 324 378 l 549 378 l 494 67 q 492 42 492 47 q 539 0 492 0 l 697 0 q 747 10 732 0 q 767 50 761 19 l 919 919 q 922 943 922 936 q 910 976 922 965 q 872 986 899 986 l 715 986 q 667 976 681 986 q 647 935 653 967 l 592 621 l 367 621 l 419 919 q 421 942 421 928 q 410 975 421 964 q 374 986 399 986 l 215 986 q 167 977 181 986 q 147 936 153 968 l -6 67 q -7 44 -7 58 q 4 11 -7 22 q 40 0 15 0 m 318 1049 l 453 1049 q 468 1049 457 1049 q 490 1052 479 1049 q 517 1072 501 1056 l 567 1126 l 604 1085 q 616 1070 608 1081 q 635 1054 624 1060 q 675 1049 647 1049 l 792 1049 q 831 1065 831 1049 q 818 1089 831 1076 l 701 1231 q 660 1270 676 1261 q 608 1279 644 1279 l 565 1279 q 506 1273 524 1279 q 463 1244 488 1267 l 299 1100 q 279 1069 279 1083 q 318 1049 279 1049 "},"I":{"ha":415,"x_min":-7,"x_max":421,"o":"m 40 0 l 203 0 q 247 10 232 0 q 267 49 261 19 l 419 922 q 421 942 421 929 q 374 986 421 986 l 210 986 q 167 976 181 986 q 147 938 153 967 l -6 64 q -7 43 -7 57 q 4 10 -7 21 q 40 0 15 0 "},"Ĳ":{"ha":1188,"x_min":-7,"x_max":1201,"o":"m 40 0 l 203 0 q 247 10 232 0 q 267 49 261 19 l 419 922 q 421 942 421 929 q 374 986 421 986 l 210 986 q 167 976 181 986 q 147 938 153 967 l -6 64 q -7 43 -7 57 q 4 10 -7 21 q 40 0 15 0 m 693 -21 q 967 63 871 -21 q 1096 333 1063 147 l 1200 921 q 1201 942 1201 928 q 1190 975 1201 964 q 1154 986 1179 986 l 990 986 q 947 977 963 986 q 928 938 932 968 l 824 346 q 788 251 813 281 q 719 222 764 222 q 665 243 685 222 q 636 311 646 264 q 601 343 628 343 q 578 339 590 343 l 414 288 q 387 273 394 282 q 379 249 379 264 q 381 229 379 236 q 478 49 400 118 q 693 -21 557 -21 "},"Í":{"ha":415,"x_min":-7,"x_max":514,"o":"m 40 0 l 203 0 q 247 10 232 0 q 267 49 261 19 l 419 922 q 421 942 421 929 q 374 986 421 986 l 210 986 q 167 976 181 986 q 147 938 153 967 l -6 64 q -7 43 -7 57 q 4 10 -7 21 q 40 0 15 0 m 138 1107 l 171 1057 q 197 1042 182 1042 q 231 1049 207 1042 l 489 1131 q 514 1154 514 1139 q 496 1190 514 1169 l 438 1265 q 394 1289 419 1289 q 353 1275 378 1289 l 143 1160 q 124 1138 124 1150 q 138 1107 124 1128 "},"Ĭ":{"ha":415,"x_min":-7,"x_max":585,"o":"m 40 0 l 203 0 q 247 10 232 0 q 267 49 261 19 l 419 922 q 421 942 421 929 q 374 986 421 986 l 210 986 q 167 976 181 986 q 147 938 153 967 l -6 64 q -7 43 -7 57 q 4 10 -7 21 q 40 0 15 0 m 315 1049 q 471 1083 404 1049 q 576 1182 538 1117 q 585 1207 585 1197 q 554 1240 585 1226 l 463 1276 q 445 1283 454 1279 q 432 1288 436 1288 q 414 1279 425 1288 q 322 1217 379 1217 q 279 1229 294 1217 q 251 1265 264 1242 q 226 1286 240 1286 q 204 1281 221 1286 l 111 1249 q 94 1240 99 1244 q 89 1228 89 1235 q 92 1213 89 1224 q 168 1091 111 1133 q 315 1049 225 1049 "},"Î":{"ha":415,"x_min":-7,"x_max":585,"o":"m 40 0 l 203 0 q 247 10 232 0 q 267 49 261 19 l 419 922 q 421 942 421 929 q 374 986 421 986 l 210 986 q 167 976 181 986 q 147 938 153 967 l -6 64 q -7 43 -7 57 q 4 10 -7 21 q 40 0 15 0 m 72 1049 l 207 1049 q 222 1049 211 1049 q 244 1052 233 1049 q 271 1072 256 1056 l 321 1126 l 358 1085 q 370 1070 363 1081 q 390 1054 378 1060 q 429 1049 401 1049 l 546 1049 q 585 1065 585 1049 q 572 1089 585 1076 l 456 1231 q 415 1270 431 1261 q 363 1279 399 1279 l 319 1279 q 260 1273 278 1279 q 217 1244 242 1267 l 53 1100 q 33 1069 33 1083 q 72 1049 33 1049 "},"Ï":{"ha":415,"x_min":-7,"x_max":583,"o":"m 40 0 l 203 0 q 247 10 232 0 q 267 49 261 19 l 419 922 q 421 942 421 929 q 374 986 421 986 l 210 986 q 167 976 181 986 q 147 938 153 967 l -6 64 q -7 43 -7 57 q 4 10 -7 21 q 40 0 15 0 m 157 1054 l 168 1054 q 248 1072 225 1054 q 281 1144 271 1089 l 283 1163 q 286 1196 286 1188 q 265 1252 286 1235 q 194 1269 243 1269 l 183 1269 q 122 1263 143 1269 q 91 1237 101 1256 q 74 1179 81 1218 l 71 1161 q 68 1126 68 1149 q 89 1072 68 1089 q 157 1054 110 1054 m 457 1054 l 467 1054 q 546 1072 524 1054 q 578 1144 568 1089 l 581 1163 q 583 1196 583 1175 q 562 1252 583 1235 q 493 1269 540 1269 l 483 1269 q 403 1252 425 1269 q 371 1179 381 1235 l 368 1161 q 365 1128 365 1136 q 387 1072 365 1090 q 457 1054 408 1054 "},"İ":{"ha":415,"x_min":-7,"x_max":438,"o":"m 40 0 l 203 0 q 247 10 232 0 q 267 49 261 19 l 419 922 q 421 942 421 929 q 374 986 421 986 l 210 986 q 167 976 181 986 q 147 938 153 967 l -6 64 q -7 43 -7 57 q 4 10 -7 21 q 40 0 15 0 m 308 1051 l 317 1051 q 380 1059 358 1051 q 413 1086 401 1067 q 432 1147 425 1106 l 433 1158 q 438 1199 438 1182 q 415 1254 438 1238 q 344 1271 393 1271 l 336 1271 q 273 1263 294 1271 q 240 1236 251 1256 q 221 1175 228 1217 l 218 1164 q 214 1125 214 1143 q 236 1069 214 1086 q 308 1051 258 1051 "},"Ì":{"ha":415,"x_min":-7,"x_max":524,"o":"m 40 0 l 203 0 q 247 10 232 0 q 267 49 261 19 l 419 922 q 421 942 421 929 q 374 986 421 986 l 210 986 q 167 976 181 986 q 147 938 153 967 l -6 64 q -7 43 -7 57 q 4 10 -7 21 q 40 0 15 0 m 167 1136 l 397 1053 q 435 1043 422 1043 q 460 1054 449 1043 l 508 1100 q 524 1126 524 1115 q 504 1150 524 1138 l 331 1267 q 320 1274 328 1269 q 301 1285 313 1279 q 279 1292 290 1292 q 244 1276 261 1292 l 160 1201 q 140 1167 140 1185 q 167 1136 140 1144 "},"Ī":{"ha":415,"x_min":-7,"x_max":551,"o":"m 40 0 l 203 0 q 247 10 232 0 q 267 49 261 19 l 419 922 q 421 942 421 929 q 374 986 421 986 l 210 986 q 167 976 181 986 q 147 938 153 967 l -6 64 q -7 43 -7 57 q 4 10 -7 21 q 40 0 15 0 m 140 1081 l 479 1081 q 522 1088 511 1081 q 539 1124 533 1094 l 549 1181 q 551 1207 551 1200 q 542 1231 551 1224 q 513 1239 533 1239 l 169 1239 q 129 1232 140 1239 q 113 1197 118 1225 l 103 1139 q 100 1114 100 1119 q 110 1089 100 1097 q 140 1081 119 1081 "},"Į":{"ha":415,"x_min":-76,"x_max":421,"o":"m 67 -342 q 148 -333 110 -342 q 210 -308 186 -324 q 224 -297 219 -301 q 228 -283 228 -292 l 225 -267 l 203 -182 q 190 -172 200 -172 q 176 -176 185 -172 q 144 -186 160 -186 q 126 -167 126 -186 q 151 -101 126 -133 q 215 -32 176 -68 q 231 -16 224 -24 q 244 -1 239 -8 q 260 20 256 11 q 267 47 264 29 l 419 922 q 421 940 421 929 q 371 986 421 986 l 214 986 q 167 977 181 986 q 147 938 153 968 l -6 65 q -8 44 -8 51 q 63 0 -8 -6 q -41 -117 -6 -57 q -76 -228 -76 -176 q 67 -342 -76 -342 "},"Ĩ":{"ha":415,"x_min":-7,"x_max":576,"o":"m 40 0 l 203 0 q 247 10 232 0 q 267 49 261 19 l 419 922 q 421 942 421 929 q 374 986 421 986 l 210 986 q 167 976 181 986 q 147 938 153 967 l -6 64 q -7 43 -7 57 q 4 10 -7 21 q 40 0 15 0 m 99 1061 l 185 1061 q 199 1065 193 1061 q 207 1078 206 1069 q 243 1118 213 1118 q 267 1113 256 1118 q 294 1099 278 1108 q 351 1071 325 1081 q 421 1061 378 1061 q 521 1097 485 1061 q 574 1219 557 1132 l 576 1242 q 572 1259 576 1254 q 553 1264 567 1264 l 461 1264 q 439 1246 439 1264 q 429 1214 438 1222 q 404 1206 421 1206 q 379 1210 392 1206 q 350 1226 367 1215 q 290 1254 318 1244 q 218 1264 263 1264 q 119 1228 157 1264 q 71 1104 82 1192 q 69 1086 69 1097 q 76 1067 69 1072 q 99 1061 82 1061 "},"J":{"ha":772,"x_min":-36,"x_max":786,"o":"m 278 -21 q 551 63 456 -21 q 681 333 647 147 l 785 921 q 786 942 786 928 q 775 975 786 964 q 739 986 764 986 l 575 986 q 532 977 547 986 q 513 938 517 968 l 408 346 q 373 251 397 281 q 304 222 349 222 q 250 243 269 222 q 221 311 231 264 q 186 343 213 343 q 163 339 175 343 l -1 288 q -28 273 -21 282 q -36 249 -36 264 q -35 229 -36 236 q 63 49 -15 118 q 278 -21 142 -21 "},"Ĵ":{"ha":772,"x_min":-36,"x_max":950,"o":"m 278 -21 q 551 63 456 -21 q 681 333 647 147 l 785 921 q 786 942 786 928 q 775 975 786 964 q 739 986 764 986 l 575 986 q 532 977 547 986 q 513 938 517 968 l 408 346 q 373 251 397 281 q 304 222 349 222 q 250 243 269 222 q 221 311 231 264 q 186 343 213 343 q 163 339 175 343 l -1 288 q -28 273 -21 282 q -36 249 -36 264 q -35 229 -36 236 q 63 49 -15 118 q 278 -21 142 -21 m 438 1049 l 572 1049 q 588 1049 576 1049 q 610 1052 599 1049 q 636 1072 621 1056 l 686 1126 l 724 1085 q 735 1070 728 1081 q 755 1054 743 1060 q 794 1049 767 1049 l 911 1049 q 950 1065 950 1049 q 938 1089 950 1076 l 821 1231 q 780 1270 796 1261 q 728 1279 764 1279 l 685 1279 q 625 1273 643 1279 q 582 1244 607 1267 l 418 1100 q 399 1069 399 1083 q 438 1049 399 1049 "},"K":{"ha":868,"x_min":-8,"x_max":925,"o":"m 39 0 l 197 0 q 247 10 232 0 q 267 50 261 19 l 324 375 l 347 375 q 402 362 386 375 q 426 314 418 349 l 492 61 q 503 22 500 31 q 519 6 507 13 q 561 0 532 0 l 736 0 q 781 31 781 0 q 775 60 781 38 l 675 406 q 651 477 663 450 q 619 517 639 504 l 914 917 q 925 949 925 932 q 913 976 925 965 q 879 986 900 986 l 725 986 q 669 985 683 986 q 644 975 654 983 q 619 943 635 967 l 404 618 l 392 618 l 367 618 l 419 919 q 422 942 422 936 q 372 986 422 986 l 214 986 q 167 976 181 986 q 147 936 153 967 l -6 67 q -8 42 -8 47 q 39 0 -8 0 "},"Ķ":{"ha":868,"x_min":-8,"x_max":925,"o":"m 39 0 l 197 0 q 247 10 232 0 q 267 50 261 19 l 324 375 l 347 375 q 402 362 386 375 q 426 314 418 349 l 492 61 q 503 22 500 31 q 519 6 507 13 q 561 0 532 0 l 736 0 q 781 31 781 0 q 775 60 781 38 l 675 406 q 651 477 663 450 q 619 517 639 504 l 914 917 q 925 949 925 932 q 913 976 925 965 q 879 986 900 986 l 725 986 q 669 985 683 986 q 644 975 654 983 q 619 943 635 967 l 404 618 l 392 618 l 367 618 l 419 919 q 422 942 422 936 q 372 986 422 986 l 214 986 q 167 976 181 986 q 147 936 153 967 l -6 67 q -8 42 -8 47 q 39 0 -8 0 m 226 -361 l 315 -361 q 354 -354 343 -361 q 378 -324 365 -347 l 481 -133 q 488 -106 488 -117 q 474 -77 488 -87 q 436 -67 461 -67 l 311 -67 q 267 -76 279 -67 q 246 -117 256 -86 l 189 -311 q 186 -326 186 -322 q 197 -351 186 -342 q 226 -361 208 -361 "},"L":{"ha":718,"x_min":-7,"x_max":649,"o":"m 40 0 l 563 0 q 607 10 594 0 q 625 50 619 21 l 647 179 q 649 199 649 186 q 637 233 649 222 q 597 243 625 243 l 300 243 l 419 919 q 421 940 421 928 q 409 975 421 964 q 372 986 397 986 l 214 986 q 167 976 181 986 q 147 936 153 967 l -4 68 q -7 44 -7 51 q 4 11 -7 22 q 40 0 15 0 "},"Ĺ":{"ha":718,"x_min":-7,"x_max":649,"o":"m 40 0 l 563 0 q 607 10 594 0 q 625 50 619 21 l 647 179 q 649 199 649 186 q 637 233 649 222 q 597 243 625 243 l 300 243 l 419 919 q 421 940 421 928 q 409 975 421 964 q 372 986 397 986 l 214 986 q 167 976 181 986 q 147 936 153 967 l -4 68 q -7 44 -7 51 q 4 11 -7 22 q 40 0 15 0 m 138 1107 l 171 1057 q 197 1042 182 1042 q 231 1049 207 1042 l 489 1131 q 514 1154 514 1139 q 496 1190 514 1169 l 438 1265 q 394 1289 419 1289 q 353 1275 378 1289 l 143 1160 q 124 1138 124 1150 q 138 1107 124 1128 "},"Ľ":{"ha":719,"x_min":-8,"x_max":746,"o":"m 39 0 l 561 0 q 606 10 593 0 q 624 50 618 21 l 646 179 q 647 199 647 186 q 635 233 647 222 q 596 243 624 243 l 299 243 l 418 919 q 419 940 419 928 q 408 975 419 964 q 371 986 396 986 l 213 986 q 165 976 179 986 q 146 936 151 967 l -6 68 q -8 44 -8 51 q 3 11 -8 22 q 39 0 14 0 m 493 665 l 561 665 q 603 672 592 665 q 628 704 614 678 l 739 924 q 746 950 746 936 q 693 986 746 986 l 593 986 q 549 978 560 986 q 528 940 538 971 l 463 710 l 460 693 q 493 665 460 665 "},"Ļ":{"ha":718,"x_min":-7,"x_max":649,"o":"m 40 0 l 563 0 q 607 10 594 0 q 625 50 619 21 l 647 179 q 649 199 649 186 q 637 233 649 222 q 597 243 625 243 l 300 243 l 419 919 q 421 940 421 928 q 409 975 421 964 q 372 986 397 986 l 214 986 q 167 976 181 986 q 147 936 153 967 l -4 68 q -7 44 -7 51 q 4 11 -7 22 q 40 0 15 0 m 151 -361 l 240 -361 q 279 -354 268 -361 q 303 -324 290 -347 l 406 -133 q 413 -106 413 -117 q 399 -77 413 -87 q 361 -67 386 -67 l 236 -67 q 192 -76 204 -67 q 171 -117 181 -86 l 114 -311 q 111 -326 111 -322 q 122 -351 111 -342 q 151 -361 133 -361 "},"Ŀ":{"ha":718,"x_min":-7,"x_max":656,"o":"m 40 0 l 563 0 q 607 10 594 0 q 625 50 619 21 l 647 179 q 649 199 649 186 q 637 233 649 222 q 597 243 625 243 l 300 243 l 419 919 q 421 940 421 928 q 409 975 421 964 q 372 986 397 986 l 214 986 q 167 976 181 986 q 147 936 153 967 l -4 68 q -7 44 -7 51 q 4 11 -7 22 q 40 0 15 0 m 488 442 l 535 442 q 613 459 590 442 q 644 532 635 476 l 653 582 q 656 615 656 594 q 635 671 656 653 q 568 689 614 689 l 521 689 q 444 671 465 689 q 411 597 422 653 l 403 546 q 399 510 399 528 q 420 458 399 475 q 488 442 442 442 "},"Ł":{"ha":764,"x_min":-22,"x_max":694,"o":"m 89 0 l 608 0 q 652 10 639 0 q 671 50 665 19 l 693 176 q 694 199 694 185 q 683 232 694 221 q 646 243 672 243 l 346 243 l 386 468 l 583 544 q 606 571 606 554 q 601 592 606 579 l 578 660 q 565 685 571 676 q 546 694 558 694 q 525 689 536 694 l 415 639 l 465 919 q 468 940 468 933 q 415 986 468 986 l 257 986 q 211 977 224 986 q 193 936 199 968 l 119 517 l -3 469 q -22 444 -22 461 q -18 424 -22 435 l 4 353 q 35 321 14 321 q 56 326 44 321 l 90 343 l 42 67 q 40 46 40 58 q 52 11 40 22 q 89 0 64 0 "},"M":{"ha":1089,"x_min":-7,"x_max":1097,"o":"m 42 0 l 194 0 q 235 12 224 0 q 251 49 247 24 l 285 239 q 307 372 300 319 q 314 497 314 425 q 304 640 314 567 l 318 640 q 354 401 325 549 l 385 247 q 401 210 389 222 q 438 199 413 199 l 544 199 q 585 204 574 199 q 608 231 597 210 l 693 385 q 761 526 714 422 q 817 640 811 629 l 831 640 q 750 433 776 521 q 707 254 724 344 l 674 65 q 671 42 671 49 q 683 10 671 21 q 719 0 694 0 l 885 0 q 926 13 914 0 q 942 50 938 25 l 1094 921 q 1097 943 1097 938 q 1047 986 1097 986 l 885 986 q 839 980 851 986 q 811 949 826 974 l 538 494 l 426 936 q 410 976 421 965 q 367 986 399 986 l 215 986 q 169 977 183 986 q 149 938 154 968 l -6 65 q -7 43 -7 57 q 4 10 -7 21 q 42 0 15 0 "},"N":{"ha":926,"x_min":-8,"x_max":935,"o":"m 44 0 l 194 0 q 235 12 222 0 q 253 50 249 24 l 292 276 q 318 539 318 435 q 314 640 318 586 l 328 640 q 347 505 335 554 q 389 363 358 456 l 500 38 q 517 10 506 19 q 550 0 528 0 l 719 0 q 760 11 747 0 q 779 50 774 22 l 932 919 q 935 943 935 936 q 888 986 935 986 l 736 986 q 690 977 703 986 q 671 936 676 968 l 631 708 q 614 536 614 608 q 619 442 614 493 q 632 340 625 392 l 618 340 q 613 376 615 351 q 587 508 597 463 q 556 613 576 553 l 438 950 q 422 976 435 965 q 389 986 408 986 l 210 986 q 166 976 179 986 q 147 936 153 967 l -6 67 q -8 42 -8 47 q 4 10 -8 19 q 44 0 17 0 "},"Ń":{"ha":926,"x_min":-8,"x_max":935,"o":"m 44 0 l 194 0 q 235 12 222 0 q 253 50 249 24 l 292 276 q 318 539 318 435 q 314 640 318 586 l 328 640 q 347 505 335 554 q 389 363 358 456 l 500 38 q 517 10 506 19 q 550 0 528 0 l 719 0 q 760 11 747 0 q 779 50 774 22 l 932 919 q 935 943 935 936 q 888 986 935 986 l 736 986 q 690 977 703 986 q 671 936 676 968 l 631 708 q 614 536 614 608 q 619 442 614 493 q 632 340 625 392 l 618 340 q 613 376 615 351 q 587 508 597 463 q 556 613 576 553 l 438 950 q 422 976 435 965 q 389 986 408 986 l 210 986 q 166 976 179 986 q 147 936 153 967 l -6 67 q -8 42 -8 47 q 4 10 -8 19 q 44 0 17 0 m 397 1107 l 431 1057 q 457 1042 442 1042 q 490 1049 467 1042 l 749 1131 q 774 1154 774 1139 q 756 1190 774 1169 l 697 1265 q 654 1289 679 1289 q 613 1275 638 1289 l 403 1160 q 383 1138 383 1150 q 397 1107 383 1128 "},"Ň":{"ha":926,"x_min":-8,"x_max":935,"o":"m 44 0 l 194 0 q 235 12 222 0 q 253 50 249 24 l 292 276 q 318 539 318 435 q 314 640 318 586 l 328 640 q 347 505 335 554 q 389 363 358 456 l 500 38 q 517 10 506 19 q 550 0 528 0 l 719 0 q 760 11 747 0 q 779 50 774 22 l 932 919 q 935 943 935 936 q 888 986 935 986 l 736 986 q 690 977 703 986 q 671 936 676 968 l 631 708 q 614 536 614 608 q 619 442 614 493 q 632 340 625 392 l 618 340 q 613 376 615 351 q 587 508 597 463 q 556 613 576 553 l 438 950 q 422 976 435 965 q 389 986 408 986 l 210 986 q 166 976 179 986 q 147 936 153 967 l -6 67 q -8 42 -8 47 q 4 10 -8 19 q 44 0 17 0 m 553 1047 l 596 1047 q 656 1053 638 1047 q 699 1082 674 1060 l 863 1226 q 882 1257 882 1243 q 843 1278 882 1278 l 708 1278 q 693 1278 704 1278 q 671 1274 682 1278 q 644 1254 660 1271 l 594 1200 l 557 1242 q 545 1256 553 1246 q 526 1272 538 1267 q 486 1278 514 1278 l 369 1278 q 331 1261 331 1278 q 343 1238 331 1250 l 460 1096 q 500 1056 483 1065 q 553 1047 517 1047 "},"Ņ":{"ha":926,"x_min":-8,"x_max":935,"o":"m 44 0 l 194 0 q 235 12 222 0 q 253 50 249 24 l 292 276 q 318 539 318 435 q 314 640 318 586 l 328 640 q 347 505 335 554 q 389 363 358 456 l 500 38 q 517 10 506 19 q 550 0 528 0 l 719 0 q 760 11 747 0 q 779 50 774 22 l 932 919 q 935 943 935 936 q 888 986 935 986 l 736 986 q 690 977 703 986 q 671 936 676 968 l 631 708 q 614 536 614 608 q 619 442 614 493 q 632 340 625 392 l 618 340 q 613 376 615 351 q 587 508 597 463 q 556 613 576 553 l 438 950 q 422 976 435 965 q 389 986 408 986 l 210 986 q 166 976 179 986 q 147 936 153 967 l -6 67 q -8 42 -8 47 q 4 10 -8 19 q 44 0 17 0 m 225 -361 l 314 -361 q 353 -354 342 -361 q 376 -324 364 -347 l 479 -133 q 486 -106 486 -117 q 473 -77 486 -87 q 435 -67 460 -67 l 310 -67 q 266 -76 278 -67 q 244 -117 254 -86 l 188 -311 q 185 -326 185 -322 q 196 -351 185 -342 q 225 -361 207 -361 "},"Ŋ":{"ha":926,"x_min":-8,"x_max":935,"o":"m 397 -321 q 651 -250 565 -321 q 765 -22 738 -179 l 932 919 q 935 943 935 936 q 888 986 935 986 l 736 986 q 690 977 703 986 q 671 936 676 968 l 631 708 q 614 536 614 608 q 619 442 614 493 q 632 340 625 392 l 618 340 q 613 376 615 351 q 587 508 597 463 q 556 613 576 553 l 438 950 q 422 976 435 965 q 389 986 408 986 l 210 986 q 166 976 179 986 q 147 936 153 967 l -6 67 q -8 42 -8 47 q 4 10 -8 19 q 44 0 17 0 l 194 0 q 235 12 222 0 q 253 50 249 24 l 292 276 q 318 539 318 435 q 314 640 318 586 l 328 640 q 347 505 335 554 q 389 363 358 456 l 510 0 l 506 -15 q 476 -74 494 -56 q 417 -92 457 -92 q 381 -100 390 -92 q 367 -139 372 -108 l 346 -257 q 344 -276 344 -264 q 397 -321 344 -321 "},"Ñ":{"ha":926,"x_min":-8,"x_max":935,"o":"m 44 0 l 194 0 q 235 12 222 0 q 253 50 249 24 l 292 276 q 318 539 318 435 q 314 640 318 586 l 328 640 q 347 505 335 554 q 389 363 358 456 l 500 38 q 517 10 506 19 q 550 0 528 0 l 719 0 q 760 11 747 0 q 779 50 774 22 l 932 919 q 935 943 935 936 q 888 986 935 986 l 736 986 q 690 977 703 986 q 671 936 676 968 l 631 708 q 614 536 614 608 q 619 442 614 493 q 632 340 625 392 l 618 340 q 613 376 615 351 q 587 508 597 463 q 556 613 576 553 l 438 950 q 422 976 435 965 q 389 986 408 986 l 210 986 q 166 976 179 986 q 147 936 153 967 l -6 67 q -8 42 -8 47 q 4 10 -8 19 q 44 0 17 0 m 358 1061 l 444 1061 q 459 1065 453 1061 q 467 1078 465 1069 q 503 1118 472 1118 q 526 1113 515 1118 q 554 1099 538 1108 q 611 1071 585 1081 q 681 1061 638 1061 q 781 1097 744 1061 q 833 1219 817 1132 l 836 1242 q 831 1259 836 1254 q 813 1264 826 1264 l 721 1264 q 699 1246 699 1264 q 689 1214 697 1222 q 664 1206 681 1206 q 639 1210 651 1206 q 610 1226 626 1215 q 550 1254 578 1244 q 478 1264 522 1264 q 379 1228 417 1264 q 331 1104 342 1192 q 329 1086 329 1097 q 335 1067 329 1072 q 358 1061 342 1061 "},"O":{"ha":897,"x_min":17,"x_max":879,"o":"m 367 -21 q 675 78 556 -21 q 826 360 794 178 l 871 610 q 879 697 879 656 q 787 924 879 842 q 524 1007 694 1007 q 219 908 336 1007 q 69 626 101 808 l 25 376 q 17 288 17 329 q 107 61 17 143 q 367 -21 197 -21 m 392 222 q 317 246 343 222 q 292 314 292 269 q 294 347 292 322 l 343 622 q 396 730 357 696 q 503 764 435 764 q 604 672 604 764 q 601 638 604 650 l 553 364 q 501 257 540 292 q 392 222 461 222 "},"Ó":{"ha":897,"x_min":17,"x_max":879,"o":"m 367 -21 q 675 78 556 -21 q 826 360 794 178 l 871 610 q 879 697 879 656 q 787 924 879 842 q 524 1007 694 1007 q 219 908 336 1007 q 69 626 101 808 l 25 376 q 17 288 17 329 q 107 61 17 143 q 367 -21 197 -21 m 392 222 q 317 246 343 222 q 292 314 292 269 q 294 347 292 322 l 343 622 q 396 730 357 696 q 503 764 435 764 q 604 672 604 764 q 601 638 604 650 l 553 364 q 501 257 540 292 q 392 222 461 222 m 381 1121 l 414 1071 q 440 1056 425 1056 q 474 1063 450 1056 l 732 1144 q 757 1168 757 1153 q 739 1204 757 1183 l 681 1279 q 638 1303 663 1303 q 596 1289 621 1303 l 386 1174 q 367 1151 367 1164 q 381 1121 367 1142 "},"Ŏ":{"ha":897,"x_min":17,"x_max":879,"o":"m 367 -21 q 675 78 556 -21 q 826 360 794 178 l 871 610 q 879 697 879 656 q 787 924 879 842 q 524 1007 694 1007 q 219 908 336 1007 q 69 626 101 808 l 25 376 q 17 288 17 329 q 107 61 17 143 q 367 -21 197 -21 m 392 222 q 317 246 343 222 q 292 314 292 269 q 294 347 292 322 l 343 622 q 396 730 357 696 q 503 764 435 764 q 604 672 604 764 q 601 638 604 650 l 553 364 q 501 257 540 292 q 392 222 461 222 m 558 1063 q 714 1097 647 1063 q 819 1196 781 1131 q 828 1221 828 1211 q 797 1254 828 1240 l 706 1290 q 688 1297 697 1293 q 675 1301 679 1301 q 657 1293 668 1301 q 565 1231 622 1231 q 522 1243 538 1231 q 494 1279 507 1256 q 469 1300 483 1300 q 447 1294 464 1300 l 354 1263 q 337 1253 342 1258 q 332 1242 332 1249 q 335 1226 332 1238 q 411 1105 354 1147 q 558 1063 468 1063 "},"Ô":{"ha":897,"x_min":17,"x_max":879,"o":"m 367 -21 q 675 78 556 -21 q 826 360 794 178 l 871 610 q 879 697 879 656 q 787 924 879 842 q 524 1007 694 1007 q 219 908 336 1007 q 69 626 101 808 l 25 376 q 17 288 17 329 q 107 61 17 143 q 367 -21 197 -21 m 392 222 q 317 246 343 222 q 292 314 292 269 q 294 347 292 322 l 343 622 q 396 730 357 696 q 503 764 435 764 q 604 672 604 764 q 601 638 604 650 l 553 364 q 501 257 540 292 q 392 222 461 222 m 315 1063 l 450 1063 q 465 1063 454 1063 q 488 1066 476 1063 q 514 1086 499 1069 l 564 1140 l 601 1099 q 613 1084 606 1094 q 633 1068 621 1074 q 672 1063 644 1063 l 789 1063 q 828 1079 828 1063 q 815 1103 828 1090 l 699 1244 q 658 1284 674 1275 q 606 1293 642 1293 l 563 1293 q 503 1287 521 1293 q 460 1258 485 1281 l 296 1114 q 276 1083 276 1097 q 315 1063 276 1063 "},"Ö":{"ha":897,"x_min":17,"x_max":879,"o":"m 367 -21 q 675 78 556 -21 q 826 360 794 178 l 871 610 q 879 697 879 656 q 787 924 879 842 q 524 1007 694 1007 q 219 908 336 1007 q 69 626 101 808 l 25 376 q 17 288 17 329 q 107 61 17 143 q 367 -21 197 -21 m 392 222 q 317 246 343 222 q 292 314 292 269 q 294 347 292 322 l 343 622 q 396 730 357 696 q 503 764 435 764 q 604 672 604 764 q 601 638 604 650 l 553 364 q 501 257 540 292 q 392 222 461 222 m 400 1068 l 411 1068 q 491 1085 468 1068 q 524 1158 514 1103 l 526 1176 q 529 1210 529 1201 q 508 1266 529 1249 q 438 1283 486 1283 l 426 1283 q 365 1276 386 1283 q 334 1251 344 1269 q 317 1193 324 1232 l 314 1175 q 311 1140 311 1163 q 332 1085 311 1103 q 400 1068 353 1068 m 700 1068 l 710 1068 q 789 1085 767 1068 q 821 1158 811 1103 l 824 1176 q 826 1210 826 1189 q 805 1266 826 1249 q 736 1283 783 1283 l 726 1283 q 646 1266 668 1283 q 614 1193 624 1249 l 611 1175 q 608 1142 608 1150 q 630 1086 608 1104 q 700 1068 651 1068 "},"Ò":{"ha":897,"x_min":17,"x_max":879,"o":"m 367 -21 q 675 78 556 -21 q 826 360 794 178 l 871 610 q 879 697 879 656 q 787 924 879 842 q 524 1007 694 1007 q 219 908 336 1007 q 69 626 101 808 l 25 376 q 17 288 17 329 q 107 61 17 143 q 367 -21 197 -21 m 392 222 q 317 246 343 222 q 292 314 292 269 q 294 347 292 322 l 343 622 q 396 730 357 696 q 503 764 435 764 q 604 672 604 764 q 601 638 604 650 l 553 364 q 501 257 540 292 q 392 222 461 222 m 410 1150 l 640 1067 q 678 1057 665 1057 q 703 1068 692 1057 l 751 1114 q 767 1140 767 1129 q 747 1164 767 1151 l 574 1281 q 563 1288 571 1283 q 544 1299 556 1293 q 522 1306 533 1306 q 488 1290 504 1306 l 403 1215 q 383 1181 383 1199 q 410 1150 383 1158 "},"Ő":{"ha":897,"x_min":17,"x_max":918,"o":"m 367 -21 q 675 78 556 -21 q 826 360 794 178 l 871 610 q 879 697 879 656 q 787 924 879 842 q 524 1007 694 1007 q 219 908 336 1007 q 69 626 101 808 l 25 376 q 17 288 17 329 q 107 61 17 143 q 367 -21 197 -21 m 392 222 q 317 246 343 222 q 292 314 292 269 q 294 347 292 322 l 343 622 q 396 730 357 696 q 503 764 435 764 q 604 672 604 764 q 601 638 604 650 l 553 364 q 501 257 540 292 q 392 222 461 222 m 317 1078 l 379 1064 q 403 1060 392 1060 q 443 1076 421 1060 l 624 1207 q 640 1235 640 1222 q 597 1269 640 1258 l 507 1290 q 476 1296 482 1296 q 453 1289 464 1296 q 425 1264 442 1282 l 301 1132 q 289 1103 289 1118 q 317 1078 289 1083 m 594 1078 l 657 1064 q 681 1060 669 1060 q 721 1076 699 1060 l 901 1207 q 918 1233 918 1219 q 875 1269 918 1260 l 785 1290 q 754 1296 760 1296 q 731 1289 742 1296 q 703 1264 719 1282 l 579 1132 q 565 1104 565 1115 q 594 1078 565 1085 "},"Ō":{"ha":897,"x_min":17,"x_max":879,"o":"m 367 -21 q 675 78 556 -21 q 826 360 794 178 l 871 610 q 879 697 879 656 q 787 924 879 842 q 524 1007 694 1007 q 219 908 336 1007 q 69 626 101 808 l 25 376 q 17 288 17 329 q 107 61 17 143 q 367 -21 197 -21 m 392 222 q 317 246 343 222 q 292 314 292 269 q 294 347 292 322 l 343 622 q 396 730 357 696 q 503 764 435 764 q 604 672 604 764 q 601 638 604 650 l 553 364 q 501 257 540 292 q 392 222 461 222 m 383 1094 l 722 1094 q 765 1101 754 1094 q 782 1138 776 1108 l 792 1194 q 794 1221 794 1214 q 785 1245 794 1238 q 756 1253 776 1253 l 413 1253 q 372 1246 383 1253 q 356 1211 361 1239 l 346 1153 q 343 1128 343 1133 q 353 1103 343 1111 q 383 1094 363 1094 "},"Ø":{"ha":897,"x_min":-65,"x_max":969,"o":"m -50 -58 l 79 -58 q 115 -55 106 -58 q 136 -39 125 -51 l 179 14 q 368 -21 260 -21 q 676 78 557 -21 q 826 360 794 178 l 871 610 q 879 697 879 656 q 836 864 879 793 l 961 1014 q 969 1032 969 1022 q 946 1046 969 1046 l 807 1046 q 782 1042 790 1046 q 764 1026 774 1039 l 717 969 q 526 1007 638 1007 q 219 908 338 1007 q 69 626 101 808 l 25 376 q 17 288 17 331 q 60 118 17 189 l -60 -24 q -65 -42 -65 -31 q -50 -58 -65 -58 m 567 750 l 307 424 l 322 504 l 343 624 q 393 727 354 690 q 496 764 432 764 q 567 750 539 764 m 399 222 q 332 235 353 222 l 588 556 l 575 486 l 553 364 q 399 222 528 222 "},"Ǿ":{"ha":897,"x_min":-65,"x_max":969,"o":"m -50 -58 l 79 -58 q 115 -55 106 -58 q 136 -39 125 -51 l 179 14 q 368 -21 260 -21 q 676 78 557 -21 q 826 360 794 178 l 871 610 q 879 697 879 656 q 836 864 879 793 l 961 1014 q 969 1032 969 1022 q 946 1046 969 1046 l 807 1046 q 782 1042 790 1046 q 764 1026 774 1039 l 717 969 q 526 1007 638 1007 q 219 908 338 1007 q 69 626 101 808 l 25 376 q 17 288 17 331 q 60 118 17 189 l -60 -24 q -65 -42 -65 -31 q -50 -58 -65 -58 m 567 750 l 307 424 l 322 504 l 343 624 q 393 727 354 690 q 496 764 432 764 q 567 750 539 764 m 399 222 q 332 235 353 222 l 588 556 l 575 486 l 553 364 q 399 222 528 222 m 404 1121 l 438 1071 q 464 1056 449 1056 q 497 1063 474 1056 l 756 1144 q 781 1168 781 1153 q 763 1204 781 1183 l 704 1279 q 661 1303 686 1303 q 619 1289 644 1303 l 410 1174 q 390 1151 390 1164 q 404 1121 390 1142 "},"Õ":{"ha":897,"x_min":17,"x_max":879,"o":"m 367 -21 q 675 78 556 -21 q 826 360 794 178 l 871 610 q 879 697 879 656 q 787 924 879 842 q 524 1007 694 1007 q 219 908 336 1007 q 69 626 101 808 l 25 376 q 17 288 17 329 q 107 61 17 143 q 367 -21 197 -21 m 392 222 q 317 246 343 222 q 292 314 292 269 q 294 347 292 322 l 343 622 q 396 730 357 696 q 503 764 435 764 q 604 672 604 764 q 601 638 604 650 l 553 364 q 501 257 540 292 q 392 222 461 222 m 342 1075 l 428 1075 q 442 1079 436 1075 q 450 1092 449 1083 q 486 1132 456 1132 q 510 1127 499 1132 q 538 1113 521 1122 q 594 1085 568 1094 q 664 1075 621 1075 q 764 1110 728 1075 q 817 1233 800 1146 l 819 1256 q 815 1273 819 1268 q 796 1278 810 1278 l 704 1278 q 682 1260 682 1278 q 672 1228 681 1236 q 647 1219 664 1219 q 622 1224 635 1219 q 593 1240 610 1229 q 533 1268 561 1258 q 461 1278 506 1278 q 363 1242 400 1278 q 314 1118 325 1206 q 313 1100 313 1111 q 319 1081 313 1086 q 342 1075 325 1075 "},"Œ":{"ha":1128,"x_min":17,"x_max":1161,"o":"m 365 -21 q 521 0 447 -21 l 956 0 q 995 10 981 0 q 1014 50 1010 21 l 1036 174 l 1039 196 q 986 240 1039 240 l 722 240 l 747 381 l 943 381 q 981 392 968 381 q 1000 432 994 403 l 1019 547 q 1021 569 1021 556 q 1010 603 1021 592 q 972 614 999 614 l 788 614 l 811 744 l 1074 744 q 1118 755 1106 744 q 1136 796 1131 765 l 1158 919 q 1161 943 1161 936 q 1150 976 1161 965 q 1113 986 1139 986 l 683 986 q 529 1007 603 1007 q 220 908 339 1007 q 69 626 101 808 l 25 376 q 17 286 17 329 q 106 60 17 142 q 365 -21 196 -21 m 389 222 q 317 244 343 222 q 290 313 290 265 q 294 347 290 329 l 343 622 q 395 729 356 693 q 510 765 435 765 q 575 758 556 765 l 471 233 q 389 222 429 222 "},"P":{"ha":851,"x_min":-8,"x_max":851,"o":"m 42 0 l 200 0 q 247 10 233 0 q 267 50 261 19 l 310 296 l 439 296 q 656 345 563 296 q 801 485 750 394 q 851 692 851 575 q 769 905 851 824 q 522 986 686 986 l 213 986 q 167 976 181 986 q 147 936 153 967 l -6 67 q -8 43 -8 50 q 42 0 -8 0 m 446 539 l 353 539 l 389 743 l 483 743 q 576 661 576 743 q 540 569 576 599 q 446 539 503 539 "},"Þ":{"ha":851,"x_min":-8,"x_max":828,"o":"m 40 0 l 197 0 q 247 10 232 0 q 267 50 261 19 l 282 139 l 397 139 q 625 193 528 139 q 775 344 722 247 q 828 567 828 440 q 740 783 828 704 q 501 861 653 861 l 408 861 l 419 924 q 422 943 422 938 q 369 986 422 986 l 213 986 q 166 977 179 986 q 147 936 153 968 l -6 67 q -8 43 -8 50 q 40 0 -8 0 m 407 382 l 325 382 l 365 618 l 454 618 q 529 592 506 618 q 553 528 553 567 q 517 422 553 463 q 407 382 481 382 "},"Q":{"ha":917,"x_min":17,"x_max":879,"o":"m 647 -119 l 768 -39 q 796 -1 796 -21 q 779 42 796 13 l 728 132 q 826 360 800 218 l 871 610 q 879 700 879 658 q 788 925 879 843 q 525 1007 696 1007 q 219 908 338 1007 q 69 626 101 808 l 25 376 q 17 286 17 329 q 107 60 17 142 q 367 -21 197 -21 q 504 -4 438 -21 l 574 -101 q 594 -124 586 -117 q 614 -132 603 -132 q 647 -119 626 -132 m 394 222 q 292 313 292 222 q 294 347 292 335 l 343 622 q 394 726 354 689 q 497 764 433 764 q 604 672 604 764 q 601 639 604 651 l 553 364 q 394 222 528 222 "},"R":{"ha":871,"x_min":-8,"x_max":856,"o":"m 40 0 l 199 0 q 247 10 232 0 q 267 50 261 19 l 315 328 l 338 328 q 387 315 372 328 q 411 265 401 301 l 463 75 q 489 17 474 35 q 543 0 504 0 l 701 0 q 756 40 756 0 q 753 58 756 44 l 675 311 q 663 348 668 333 q 654 371 657 363 q 806 514 756 429 q 856 714 856 599 q 770 914 856 842 q 546 986 685 986 l 211 986 q 167 976 181 986 q 147 936 153 967 l -6 67 q -8 43 -8 50 q 40 0 -8 0 m 461 560 l 356 560 l 389 743 l 496 743 q 561 724 542 743 q 581 668 581 704 q 549 590 581 621 q 461 560 518 560 "},"Ŕ":{"ha":871,"x_min":-8,"x_max":856,"o":"m 40 0 l 199 0 q 247 10 232 0 q 267 50 261 19 l 315 328 l 338 328 q 387 315 372 328 q 411 265 401 301 l 463 75 q 489 17 474 35 q 543 0 504 0 l 701 0 q 756 40 756 0 q 753 58 756 44 l 675 311 q 663 348 668 333 q 654 371 657 363 q 806 514 756 429 q 856 714 856 599 q 770 914 856 842 q 546 986 685 986 l 211 986 q 167 976 181 986 q 147 936 153 967 l -6 67 q -8 43 -8 50 q 40 0 -8 0 m 461 560 l 356 560 l 389 743 l 496 743 q 561 724 542 743 q 581 668 581 704 q 549 590 581 621 q 461 560 518 560 m 371 1107 l 404 1057 q 431 1042 415 1042 q 464 1049 440 1042 l 722 1131 q 747 1154 747 1139 q 729 1190 747 1169 l 671 1265 q 628 1289 653 1289 q 586 1275 611 1289 l 376 1160 q 357 1138 357 1150 q 371 1107 357 1128 "},"Ř":{"ha":871,"x_min":-8,"x_max":856,"o":"m 40 0 l 199 0 q 247 10 232 0 q 267 50 261 19 l 315 328 l 338 328 q 387 315 372 328 q 411 265 401 301 l 463 75 q 489 17 474 35 q 543 0 504 0 l 701 0 q 756 40 756 0 q 753 58 756 44 l 675 311 q 663 348 668 333 q 654 371 657 363 q 806 514 756 429 q 856 714 856 599 q 770 914 856 842 q 546 986 685 986 l 211 986 q 167 976 181 986 q 147 936 153 967 l -6 67 q -8 43 -8 50 q 40 0 -8 0 m 461 560 l 356 560 l 389 743 l 496 743 q 561 724 542 743 q 581 668 581 704 q 549 590 581 621 q 461 560 518 560 m 526 1047 l 569 1047 q 629 1053 611 1047 q 672 1082 647 1060 l 836 1226 q 856 1257 856 1243 q 817 1278 856 1278 l 682 1278 q 667 1278 678 1278 q 644 1274 656 1278 q 618 1254 633 1271 l 568 1200 l 531 1242 q 519 1256 526 1246 q 499 1272 511 1267 q 460 1278 488 1278 l 343 1278 q 304 1261 304 1278 q 317 1238 304 1250 l 433 1096 q 474 1056 457 1065 q 526 1047 490 1047 "},"Ŗ":{"ha":871,"x_min":-8,"x_max":856,"o":"m 40 0 l 199 0 q 247 10 232 0 q 267 50 261 19 l 315 328 l 338 328 q 387 315 372 328 q 411 265 401 301 l 463 75 q 489 17 474 35 q 543 0 504 0 l 701 0 q 756 40 756 0 q 753 58 756 44 l 675 311 q 663 348 668 333 q 654 371 657 363 q 806 514 756 429 q 856 714 856 599 q 770 914 856 842 q 546 986 685 986 l 211 986 q 167 976 181 986 q 147 936 153 967 l -6 67 q -8 43 -8 50 q 40 0 -8 0 m 461 560 l 356 560 l 389 743 l 496 743 q 561 724 542 743 q 581 668 581 704 q 549 590 581 621 q 461 560 518 560 m 235 -361 l 324 -361 q 363 -354 351 -361 q 386 -324 374 -347 l 489 -133 q 496 -106 496 -117 q 483 -77 496 -87 q 444 -67 469 -67 l 319 -67 q 276 -76 288 -67 q 254 -117 264 -86 l 197 -311 q 194 -326 194 -322 q 206 -351 194 -342 q 235 -361 217 -361 "},"S":{"ha":849,"x_min":-10,"x_max":842,"o":"m 357 -21 q 674 69 560 -21 q 789 344 789 160 q 702 537 789 476 q 489 613 615 597 q 410 625 433 619 q 369 647 388 631 q 351 697 351 664 q 384 758 351 739 q 483 776 417 776 q 594 711 572 776 q 633 674 607 674 q 656 678 643 674 l 806 731 q 833 745 825 736 q 842 769 842 754 q 838 794 842 781 q 719 953 804 900 q 490 1007 633 1007 q 183 926 296 1007 q 71 685 71 844 q 165 469 71 543 q 392 379 260 394 q 479 353 450 372 q 508 297 508 335 q 472 235 508 256 q 369 214 436 214 q 244 283 276 214 q 224 315 235 306 q 199 325 214 325 q 172 321 186 325 l 25 272 q -10 228 -10 260 q -8 211 -10 217 q 112 38 18 96 q 357 -21 206 -21 "},"Ś":{"ha":849,"x_min":-10,"x_max":842,"o":"m 357 -21 q 674 69 560 -21 q 789 344 789 160 q 702 537 789 476 q 489 613 615 597 q 410 625 433 619 q 369 647 388 631 q 351 697 351 664 q 384 758 351 739 q 483 776 417 776 q 594 711 572 776 q 633 674 607 674 q 656 678 643 674 l 806 731 q 833 745 825 736 q 842 769 842 754 q 838 794 842 781 q 719 953 804 900 q 490 1007 633 1007 q 183 926 296 1007 q 71 685 71 844 q 165 469 71 543 q 392 379 260 394 q 479 353 450 372 q 508 297 508 335 q 472 235 508 256 q 369 214 436 214 q 244 283 276 214 q 224 315 235 306 q 199 325 214 325 q 172 321 186 325 l 25 272 q -10 228 -10 260 q -8 211 -10 217 q 112 38 18 96 q 357 -21 206 -21 m 356 1121 l 389 1071 q 415 1056 400 1056 q 449 1063 425 1056 l 707 1144 q 732 1168 732 1153 q 714 1204 732 1183 l 656 1279 q 613 1303 638 1303 q 571 1289 596 1303 l 361 1174 q 342 1151 342 1164 q 356 1121 342 1142 "},"Š":{"ha":849,"x_min":-10,"x_max":842,"o":"m 357 -21 q 674 69 560 -21 q 789 344 789 160 q 702 537 789 476 q 489 613 615 597 q 410 625 433 619 q 369 647 388 631 q 351 697 351 664 q 384 758 351 739 q 483 776 417 776 q 594 711 572 776 q 633 674 607 674 q 656 678 643 674 l 806 731 q 833 745 825 736 q 842 769 842 754 q 838 794 842 781 q 719 953 804 900 q 490 1007 633 1007 q 183 926 296 1007 q 71 685 71 844 q 165 469 71 543 q 392 379 260 394 q 479 353 450 372 q 508 297 508 335 q 472 235 508 256 q 369 214 436 214 q 244 283 276 214 q 224 315 235 306 q 199 325 214 325 q 172 321 186 325 l 25 272 q -10 228 -10 260 q -8 211 -10 217 q 112 38 18 96 q 357 -21 206 -21 m 511 1061 l 554 1061 q 614 1067 596 1061 q 657 1096 632 1074 l 821 1240 q 840 1271 840 1257 q 801 1292 840 1292 l 667 1292 q 651 1292 663 1292 q 629 1288 640 1292 q 603 1268 618 1285 l 553 1214 l 515 1256 q 503 1270 511 1260 q 484 1286 496 1281 q 444 1292 472 1292 l 328 1292 q 289 1275 289 1292 q 301 1251 289 1264 l 418 1110 q 458 1070 442 1079 q 511 1061 475 1061 "},"Ş":{"ha":849,"x_min":-10,"x_max":842,"o":"m 838 794 q 719 953 804 900 q 490 1007 633 1007 q 183 926 296 1007 q 71 685 71 844 q 165 469 71 543 q 392 379 260 394 q 479 353 450 372 q 508 297 508 335 q 472 235 508 256 q 369 214 436 214 q 244 283 276 214 q 224 315 235 306 q 199 325 214 325 q 172 321 186 325 l 25 272 q -10 228 -10 260 q -8 211 -10 217 q 94 51 15 108 q 299 -18 172 -7 l 236 -112 q 226 -140 226 -126 q 231 -154 226 -149 q 244 -160 236 -160 l 296 -158 q 329 -165 321 -158 q 338 -183 338 -171 q 320 -213 338 -204 q 269 -222 303 -222 q 188 -203 231 -222 q 176 -199 182 -199 q 164 -215 167 -199 l 151 -282 q 160 -307 147 -299 q 292 -340 218 -340 q 456 -300 394 -340 q 518 -171 518 -260 q 500 -108 518 -133 q 449 -72 482 -83 q 400 -67 431 -67 l 436 -17 q 696 90 603 0 q 789 344 789 179 q 702 537 789 476 q 489 613 615 597 q 410 625 433 619 q 369 647 388 631 q 351 697 351 664 q 384 758 351 739 q 483 776 417 776 q 594 711 572 776 q 633 674 607 674 q 656 678 643 674 l 806 731 q 833 745 825 736 q 842 769 842 754 q 838 794 842 781 "},"Ŝ":{"ha":849,"x_min":-10,"x_max":842,"o":"m 357 -21 q 674 69 560 -21 q 789 344 789 160 q 702 537 789 476 q 489 613 615 597 q 410 625 433 619 q 369 647 388 631 q 351 697 351 664 q 384 758 351 739 q 483 776 417 776 q 594 711 572 776 q 633 674 607 674 q 656 678 643 674 l 806 731 q 833 745 825 736 q 842 769 842 754 q 838 794 842 781 q 719 953 804 900 q 490 1007 633 1007 q 183 926 296 1007 q 71 685 71 844 q 165 469 71 543 q 392 379 260 394 q 479 353 450 372 q 508 297 508 335 q 472 235 508 256 q 369 214 436 214 q 244 283 276 214 q 224 315 235 306 q 199 325 214 325 q 172 321 186 325 l 25 272 q -10 228 -10 260 q -8 211 -10 217 q 112 38 18 96 q 357 -21 206 -21 m 290 1063 l 425 1063 q 440 1063 429 1063 q 463 1066 451 1063 q 489 1086 474 1069 l 539 1140 l 576 1099 q 588 1084 581 1094 q 608 1068 596 1074 q 647 1063 619 1063 l 764 1063 q 803 1079 803 1063 q 790 1103 803 1090 l 674 1244 q 633 1284 649 1275 q 581 1293 617 1293 l 538 1293 q 478 1287 496 1293 q 435 1258 460 1281 l 271 1114 q 251 1083 251 1097 q 290 1063 251 1063 "},"Ș":{"ha":849,"x_min":-10,"x_max":842,"o":"m 357 -21 q 674 69 560 -21 q 789 344 789 160 q 702 537 789 476 q 489 613 615 597 q 410 625 433 619 q 369 647 388 631 q 351 697 351 664 q 384 758 351 739 q 483 776 417 776 q 594 711 572 776 q 633 674 607 674 q 656 678 643 674 l 806 731 q 833 745 825 736 q 842 769 842 754 q 838 794 842 781 q 719 953 804 900 q 490 1007 633 1007 q 183 926 296 1007 q 71 685 71 844 q 165 469 71 543 q 392 379 260 394 q 479 353 450 372 q 508 297 508 335 q 472 235 508 256 q 369 214 436 214 q 244 283 276 214 q 224 315 235 306 q 199 325 214 325 q 172 321 186 325 l 25 272 q -10 228 -10 260 q -8 211 -10 217 q 112 38 18 96 q 357 -21 206 -21 m 199 -361 l 288 -361 q 326 -354 315 -361 q 350 -324 338 -347 l 453 -133 q 460 -106 460 -117 q 447 -77 460 -87 q 408 -67 433 -67 l 283 -67 q 240 -76 251 -67 q 218 -117 228 -86 l 161 -311 q 158 -326 158 -322 q 169 -351 158 -342 q 199 -361 181 -361 "},"ẞ":{"ha":858,"x_min":-8,"x_max":860,"o":"m 808 986 l 214 986 q 165 974 178 986 q 146 926 153 963 l -7 61 q -8 44 -8 56 q 43 0 -8 0 l 196 0 q 268 61 257 0 l 392 764 l 571 764 l 463 603 q 442 567 449 582 q 431 532 435 553 l 417 453 q 414 431 414 436 q 425 401 414 410 q 458 392 436 392 l 465 392 q 524 335 524 392 q 521 310 524 329 q 484 244 513 264 q 419 225 456 225 l 406 225 q 356 209 374 225 q 333 164 338 193 l 315 61 q 314 44 314 56 q 365 0 314 0 l 408 0 q 665 62 565 0 q 790 275 764 124 q 797 356 797 310 q 770 482 797 428 q 688 563 743 536 l 799 725 q 826 771 819 756 q 838 808 833 786 l 858 925 q 860 947 860 933 q 848 977 860 968 q 808 986 836 986 "},"T":{"ha":799,"x_min":71,"x_max":861,"o":"m 240 0 l 399 0 q 442 9 431 0 q 460 50 454 18 l 582 743 l 775 743 q 819 752 808 743 q 836 794 831 761 l 858 919 q 861 946 861 939 q 849 976 861 967 q 806 986 836 986 l 160 986 q 113 977 126 986 q 94 936 100 968 l 72 811 q 71 793 71 804 q 125 743 71 743 l 307 743 l 188 67 q 186 47 186 60 q 240 0 186 0 "},"Ŧ":{"ha":801,"x_min":71,"x_max":860,"o":"m 240 0 l 399 0 q 443 9 432 0 q 460 50 454 18 l 513 350 l 625 350 q 656 358 647 350 q 668 390 664 367 l 685 482 q 686 494 686 486 q 678 512 686 507 q 653 517 671 517 l 542 517 l 582 743 l 776 743 q 819 752 808 743 q 836 794 831 761 l 858 919 q 860 942 860 928 q 849 975 860 964 q 813 986 838 986 l 158 986 q 113 977 125 986 q 94 936 100 968 l 72 811 q 71 792 71 804 q 124 743 71 743 l 307 743 l 267 517 l 149 517 q 125 510 131 517 q 115 483 119 504 l 99 390 q 97 372 97 383 q 103 355 97 360 q 125 350 110 350 l 238 350 l 188 67 q 186 49 186 60 q 240 0 186 0 "},"Ť":{"ha":799,"x_min":71,"x_max":861,"o":"m 240 0 l 399 0 q 442 9 431 0 q 460 50 454 18 l 582 743 l 775 743 q 819 752 808 743 q 836 794 831 761 l 858 919 q 861 946 861 939 q 849 976 861 967 q 806 986 836 986 l 160 986 q 113 977 126 986 q 94 936 100 968 l 72 811 q 71 793 71 804 q 125 743 71 743 l 307 743 l 188 67 q 186 47 186 60 q 240 0 186 0 m 485 1047 l 528 1047 q 588 1053 569 1047 q 631 1082 606 1060 l 794 1226 q 814 1257 814 1243 q 775 1278 814 1278 l 640 1278 q 625 1278 636 1278 q 603 1274 614 1278 q 576 1254 592 1271 l 526 1200 l 489 1242 q 477 1256 485 1246 q 458 1272 469 1267 q 418 1278 446 1278 l 301 1278 q 263 1261 263 1278 q 275 1238 263 1250 l 392 1096 q 432 1056 415 1065 q 485 1047 449 1047 "},"Ţ":{"ha":799,"x_min":71,"x_max":861,"o":"m 240 0 l 399 0 q 442 9 431 0 q 460 50 454 18 l 582 743 l 775 743 q 819 752 808 743 q 836 794 831 761 l 858 919 q 861 946 861 939 q 849 976 861 967 q 806 986 836 986 l 160 986 q 113 977 126 986 q 94 936 100 968 l 72 811 q 71 793 71 804 q 125 743 71 743 l 307 743 l 188 67 q 186 47 186 60 q 240 0 186 0 m 171 -361 l 260 -361 q 299 -354 288 -361 q 322 -324 310 -347 l 425 -133 q 432 -106 432 -117 q 419 -77 432 -87 q 381 -67 406 -67 l 256 -67 q 212 -76 224 -67 q 190 -117 200 -86 l 133 -311 q 131 -326 131 -322 q 142 -351 131 -342 q 171 -361 153 -361 "},"U":{"ha":915,"x_min":33,"x_max":932,"o":"m 378 -21 q 682 78 565 -21 q 829 354 799 176 l 929 919 q 932 943 932 936 q 885 986 932 986 l 724 986 q 676 976 690 986 q 657 936 663 967 l 556 358 q 509 255 543 288 q 407 222 475 222 q 308 307 308 222 q 311 342 308 329 l 413 919 q 415 943 415 936 q 369 986 415 986 l 203 986 q 159 976 172 986 q 140 936 146 967 l 42 371 q 33 281 33 324 q 122 60 33 140 q 378 -21 210 -21 "},"Ú":{"ha":915,"x_min":33,"x_max":932,"o":"m 378 -21 q 682 78 565 -21 q 829 354 799 176 l 929 919 q 932 943 932 936 q 885 986 932 986 l 724 986 q 676 976 690 986 q 657 936 663 967 l 556 358 q 509 255 543 288 q 407 222 475 222 q 308 307 308 222 q 311 342 308 329 l 413 919 q 415 943 415 936 q 369 986 415 986 l 203 986 q 159 976 172 986 q 140 936 146 967 l 42 371 q 33 281 33 324 q 122 60 33 140 q 378 -21 210 -21 m 386 1107 l 419 1057 q 446 1042 431 1042 q 479 1049 456 1042 l 738 1131 q 763 1154 763 1139 q 744 1190 763 1169 l 686 1265 q 643 1289 668 1289 q 601 1275 626 1289 l 392 1160 q 372 1138 372 1150 q 386 1107 372 1128 "},"Ŭ":{"ha":915,"x_min":33,"x_max":932,"o":"m 378 -21 q 682 78 565 -21 q 829 354 799 176 l 929 919 q 932 943 932 936 q 885 986 932 986 l 724 986 q 676 976 690 986 q 657 936 663 967 l 556 358 q 509 255 543 288 q 407 222 475 222 q 308 307 308 222 q 311 342 308 329 l 413 919 q 415 943 415 936 q 369 986 415 986 l 203 986 q 159 976 172 986 q 140 936 146 967 l 42 371 q 33 281 33 324 q 122 60 33 140 q 378 -21 210 -21 m 564 1049 q 719 1083 653 1049 q 825 1182 786 1117 q 833 1207 833 1197 q 803 1240 833 1226 l 711 1276 q 694 1283 703 1279 q 681 1288 685 1288 q 663 1279 674 1288 q 571 1217 628 1217 q 528 1229 543 1217 q 500 1265 513 1242 q 475 1286 489 1286 q 453 1281 469 1286 l 360 1249 q 342 1240 347 1244 q 338 1228 338 1235 q 340 1213 338 1224 q 417 1091 360 1133 q 564 1049 474 1049 "},"Û":{"ha":915,"x_min":33,"x_max":932,"o":"m 378 -21 q 682 78 565 -21 q 829 354 799 176 l 929 919 q 932 943 932 936 q 885 986 932 986 l 724 986 q 676 976 690 986 q 657 936 663 967 l 556 358 q 509 255 543 288 q 407 222 475 222 q 308 307 308 222 q 311 342 308 329 l 413 919 q 415 943 415 936 q 369 986 415 986 l 203 986 q 159 976 172 986 q 140 936 146 967 l 42 371 q 33 281 33 324 q 122 60 33 140 q 378 -21 210 -21 m 321 1049 l 456 1049 q 471 1049 460 1049 q 493 1052 482 1049 q 519 1072 504 1056 l 569 1126 l 607 1085 q 619 1070 611 1081 q 638 1054 626 1060 q 678 1049 650 1049 l 794 1049 q 833 1065 833 1049 q 821 1089 833 1076 l 704 1231 q 663 1270 679 1261 q 611 1279 647 1279 l 568 1279 q 508 1273 526 1279 q 465 1244 490 1267 l 301 1100 q 282 1069 282 1083 q 321 1049 282 1049 "},"Ü":{"ha":915,"x_min":33,"x_max":932,"o":"m 378 -21 q 682 78 565 -21 q 829 354 799 176 l 929 919 q 932 943 932 936 q 885 986 932 986 l 724 986 q 676 976 690 986 q 657 936 663 967 l 556 358 q 509 255 543 288 q 407 222 475 222 q 308 307 308 222 q 311 342 308 329 l 413 919 q 415 943 415 936 q 369 986 415 986 l 203 986 q 159 976 172 986 q 140 936 146 967 l 42 371 q 33 281 33 324 q 122 60 33 140 q 378 -21 210 -21 m 406 1054 l 417 1054 q 497 1072 474 1054 q 529 1144 519 1089 l 532 1163 q 535 1196 535 1188 q 513 1252 535 1235 q 443 1269 492 1269 l 432 1269 q 371 1263 392 1269 q 340 1237 350 1256 q 322 1179 329 1218 l 319 1161 q 317 1126 317 1149 q 338 1072 317 1089 q 406 1054 358 1054 m 706 1054 l 715 1054 q 794 1072 772 1054 q 826 1144 817 1089 l 829 1163 q 832 1196 832 1175 q 810 1252 832 1235 q 742 1269 789 1269 l 732 1269 q 651 1252 674 1269 q 619 1179 629 1235 l 617 1161 q 614 1128 614 1136 q 635 1072 614 1090 q 706 1054 657 1054 "},"Ù":{"ha":915,"x_min":33,"x_max":932,"o":"m 378 -21 q 682 78 565 -21 q 829 354 799 176 l 929 919 q 932 943 932 936 q 885 986 932 986 l 724 986 q 676 976 690 986 q 657 936 663 967 l 556 358 q 509 255 543 288 q 407 222 475 222 q 308 307 308 222 q 311 342 308 329 l 413 919 q 415 943 415 936 q 369 986 415 986 l 203 986 q 159 976 172 986 q 140 936 146 967 l 42 371 q 33 281 33 324 q 122 60 33 140 q 378 -21 210 -21 m 415 1136 l 646 1053 q 683 1043 671 1043 q 708 1054 697 1043 l 757 1100 q 772 1126 772 1115 q 753 1150 772 1138 l 579 1267 q 569 1274 576 1269 q 550 1285 561 1279 q 528 1292 539 1292 q 493 1276 510 1292 l 408 1201 q 389 1167 389 1185 q 415 1136 389 1144 "},"Ű":{"ha":915,"x_min":33,"x_max":932,"o":"m 378 -21 q 682 78 565 -21 q 829 354 799 176 l 929 919 q 932 943 932 936 q 885 986 932 986 l 724 986 q 676 976 690 986 q 657 936 663 967 l 556 358 q 509 255 543 288 q 407 222 475 222 q 308 307 308 222 q 311 342 308 329 l 413 919 q 415 943 415 936 q 369 986 415 986 l 203 986 q 159 976 172 986 q 140 936 146 967 l 42 371 q 33 281 33 324 q 122 60 33 140 q 378 -21 210 -21 m 322 1064 l 385 1050 q 408 1046 397 1046 q 449 1063 426 1046 l 629 1193 q 646 1221 646 1208 q 603 1256 646 1244 l 513 1276 q 482 1282 488 1282 q 458 1275 469 1282 q 431 1250 447 1268 l 307 1118 q 294 1089 294 1104 q 322 1064 294 1069 m 600 1064 l 663 1050 q 686 1046 675 1046 q 726 1063 704 1046 l 907 1193 q 924 1219 924 1206 q 881 1256 924 1246 l 790 1276 q 760 1282 765 1282 q 736 1275 747 1282 q 708 1250 725 1268 l 585 1118 q 571 1090 571 1101 q 600 1064 571 1071 "},"Ū":{"ha":915,"x_min":33,"x_max":932,"o":"m 378 -21 q 682 78 565 -21 q 829 354 799 176 l 929 919 q 932 943 932 936 q 885 986 932 986 l 724 986 q 676 976 690 986 q 657 936 663 967 l 556 358 q 509 255 543 288 q 407 222 475 222 q 308 307 308 222 q 311 342 308 329 l 413 919 q 415 943 415 936 q 369 986 415 986 l 203 986 q 159 976 172 986 q 140 936 146 967 l 42 371 q 33 281 33 324 q 122 60 33 140 q 378 -21 210 -21 m 389 1081 l 728 1081 q 771 1088 760 1081 q 788 1124 782 1094 l 797 1181 q 800 1207 800 1200 q 791 1231 800 1224 q 761 1239 782 1239 l 418 1239 q 378 1232 389 1239 q 361 1197 367 1225 l 351 1139 q 349 1114 349 1119 q 358 1089 349 1097 q 389 1081 368 1081 "},"Ų":{"ha":915,"x_min":33,"x_max":932,"o":"m 408 -342 q 490 -333 451 -342 q 551 -308 528 -324 q 565 -297 561 -301 q 569 -283 569 -292 l 567 -267 l 544 -182 q 532 -172 542 -172 q 518 -176 526 -172 q 486 -186 501 -186 q 468 -167 468 -186 q 522 -64 468 -124 q 638 42 575 -4 q 765 174 718 100 q 829 354 811 249 l 929 919 q 932 943 932 936 q 885 986 932 986 l 724 986 q 676 976 690 986 q 657 936 663 967 l 556 358 q 512 256 544 290 q 408 222 479 222 q 307 306 307 222 q 311 342 307 324 l 413 919 q 415 943 415 936 q 369 986 415 986 l 203 986 q 159 976 172 986 q 140 936 146 967 l 42 371 q 33 281 33 324 q 122 60 33 140 q 378 -21 210 -21 q 401 -19 393 -21 q 302 -125 342 -68 q 265 -231 263 -182 q 408 -342 263 -342 "},"Ů":{"ha":915,"x_min":33,"x_max":932,"o":"m 378 -21 q 682 78 565 -21 q 829 354 799 176 l 929 919 q 932 943 932 936 q 885 986 932 986 l 724 986 q 676 976 690 986 q 657 936 663 967 l 556 358 q 509 255 543 288 q 407 222 475 222 q 308 307 308 222 q 311 342 308 329 l 413 919 q 415 943 415 936 q 369 986 415 986 l 203 986 q 159 976 172 986 q 140 936 146 967 l 42 371 q 33 281 33 324 q 122 60 33 140 q 378 -21 210 -21 m 568 1036 q 706 1084 653 1036 q 760 1214 760 1132 q 715 1320 760 1281 q 597 1360 671 1360 q 457 1311 511 1360 q 403 1178 403 1263 q 448 1074 403 1113 q 568 1036 493 1036 m 571 1146 q 536 1157 549 1146 q 524 1188 524 1168 q 543 1232 524 1215 q 592 1249 563 1249 q 625 1238 613 1249 q 638 1206 638 1226 q 619 1162 638 1178 q 571 1146 600 1146 "},"Ũ":{"ha":915,"x_min":33,"x_max":932,"o":"m 378 -21 q 682 78 565 -21 q 829 354 799 176 l 929 919 q 932 943 932 936 q 885 986 932 986 l 724 986 q 676 976 690 986 q 657 936 663 967 l 556 358 q 509 255 543 288 q 407 222 475 222 q 308 307 308 222 q 311 342 308 329 l 413 919 q 415 943 415 936 q 369 986 415 986 l 203 986 q 159 976 172 986 q 140 936 146 967 l 42 371 q 33 281 33 324 q 122 60 33 140 q 378 -21 210 -21 m 347 1061 l 433 1061 q 448 1065 442 1061 q 456 1078 454 1069 q 492 1118 461 1118 q 515 1113 504 1118 q 543 1099 526 1108 q 600 1071 574 1081 q 669 1061 626 1061 q 769 1097 733 1061 q 822 1219 806 1132 l 825 1242 q 820 1259 825 1254 q 801 1264 815 1264 l 710 1264 q 688 1246 688 1264 q 678 1214 686 1222 q 653 1206 669 1206 q 628 1210 640 1206 q 599 1226 615 1215 q 539 1254 567 1244 q 467 1264 511 1264 q 368 1228 406 1264 q 319 1104 331 1192 q 318 1086 318 1097 q 324 1067 318 1072 q 347 1061 331 1061 "},"V":{"ha":901,"x_min":82,"x_max":979,"o":"m 268 0 l 468 0 q 515 6 500 0 q 543 40 529 13 l 972 921 q 979 950 979 939 q 924 986 979 986 l 758 986 q 706 977 721 986 q 676 936 690 968 l 489 488 q 422 251 438 364 l 408 251 q 419 421 419 368 q 417 478 419 442 l 381 919 q 374 960 378 947 q 355 979 369 972 q 308 986 340 986 l 146 986 q 89 938 82 986 l 211 54 q 227 13 214 25 q 268 0 240 0 "},"W":{"ha":1247,"x_min":99,"x_max":1315,"o":"m 200 0 l 368 0 q 423 6 404 0 q 451 40 442 13 l 567 361 q 639 629 610 489 l 653 629 q 631 378 631 500 l 632 54 q 643 13 631 26 q 685 0 656 0 l 860 0 q 911 7 893 0 q 940 42 929 14 l 1307 921 q 1315 953 1315 940 q 1272 986 1315 986 l 1093 986 q 1047 979 1060 986 q 1025 943 1033 972 l 906 579 q 846 317 878 493 l 832 317 q 848 439 840 365 q 854 563 856 513 l 850 928 q 836 973 850 960 q 790 986 822 986 l 638 986 q 587 979 601 986 q 561 942 572 972 l 421 579 q 385 453 401 532 q 358 317 368 375 l 344 317 q 374 563 371 468 l 383 926 q 374 974 385 961 q 331 986 364 986 l 149 986 q 108 976 118 986 q 100 938 99 967 l 150 54 q 162 13 150 26 q 200 0 174 0 "},"Ẃ":{"ha":1247,"x_min":99,"x_max":1315,"o":"m 200 0 l 368 0 q 423 6 404 0 q 451 40 442 13 l 567 361 q 639 629 610 489 l 653 629 q 631 378 631 500 l 632 54 q 643 13 631 26 q 685 0 656 0 l 860 0 q 911 7 893 0 q 940 42 929 14 l 1307 921 q 1315 953 1315 940 q 1272 986 1315 986 l 1093 986 q 1047 979 1060 986 q 1025 943 1033 972 l 906 579 q 846 317 878 493 l 832 317 q 848 439 840 365 q 854 563 856 513 l 850 928 q 836 973 850 960 q 790 986 822 986 l 638 986 q 587 979 601 986 q 561 942 572 972 l 421 579 q 385 453 401 532 q 358 317 368 375 l 344 317 q 374 563 371 468 l 383 926 q 374 974 385 961 q 331 986 364 986 l 149 986 q 108 976 118 986 q 100 938 99 967 l 150 54 q 162 13 150 26 q 200 0 174 0 m 557 1107 l 590 1057 q 617 1042 601 1042 q 650 1049 626 1042 l 908 1131 q 933 1154 933 1139 q 915 1190 933 1169 l 857 1265 q 814 1289 839 1289 q 772 1275 797 1289 l 563 1160 q 543 1138 543 1150 q 557 1107 543 1128 "},"Ŵ":{"ha":1247,"x_min":99,"x_max":1315,"o":"m 200 0 l 368 0 q 423 6 404 0 q 451 40 442 13 l 567 361 q 639 629 610 489 l 653 629 q 631 378 631 500 l 632 54 q 643 13 631 26 q 685 0 656 0 l 860 0 q 911 7 893 0 q 940 42 929 14 l 1307 921 q 1315 953 1315 940 q 1272 986 1315 986 l 1093 986 q 1047 979 1060 986 q 1025 943 1033 972 l 906 579 q 846 317 878 493 l 832 317 q 848 439 840 365 q 854 563 856 513 l 850 928 q 836 973 850 960 q 790 986 822 986 l 638 986 q 587 979 601 986 q 561 942 572 972 l 421 579 q 385 453 401 532 q 358 317 368 375 l 344 317 q 374 563 371 468 l 383 926 q 374 974 385 961 q 331 986 364 986 l 149 986 q 108 976 118 986 q 100 938 99 967 l 150 54 q 162 13 150 26 q 200 0 174 0 m 492 1049 l 626 1049 q 642 1049 631 1049 q 664 1052 653 1049 q 690 1072 675 1056 l 740 1126 l 778 1085 q 790 1070 782 1081 q 809 1054 797 1060 q 849 1049 821 1049 l 965 1049 q 1004 1065 1004 1049 q 992 1089 1004 1076 l 875 1231 q 834 1270 850 1261 q 782 1279 818 1279 l 739 1279 q 679 1273 697 1279 q 636 1244 661 1267 l 472 1100 q 453 1069 453 1083 q 492 1049 453 1049 "},"Ẅ":{"ha":1247,"x_min":99,"x_max":1315,"o":"m 200 0 l 368 0 q 423 6 404 0 q 451 40 442 13 l 567 361 q 639 629 610 489 l 653 629 q 631 378 631 500 l 632 54 q 643 13 631 26 q 685 0 656 0 l 860 0 q 911 7 893 0 q 940 42 929 14 l 1307 921 q 1315 953 1315 940 q 1272 986 1315 986 l 1093 986 q 1047 979 1060 986 q 1025 943 1033 972 l 906 579 q 846 317 878 493 l 832 317 q 848 439 840 365 q 854 563 856 513 l 850 928 q 836 973 850 960 q 790 986 822 986 l 638 986 q 587 979 601 986 q 561 942 572 972 l 421 579 q 385 453 401 532 q 358 317 368 375 l 344 317 q 374 563 371 468 l 383 926 q 374 974 385 961 q 331 986 364 986 l 149 986 q 108 976 118 986 q 100 938 99 967 l 150 54 q 162 13 150 26 q 200 0 174 0 m 576 1054 l 588 1054 q 667 1072 644 1054 q 700 1144 690 1089 l 703 1163 q 706 1196 706 1188 q 684 1252 706 1235 q 614 1269 663 1269 l 603 1269 q 542 1263 563 1269 q 510 1237 521 1256 q 493 1179 500 1218 l 490 1161 q 488 1126 488 1149 q 508 1072 488 1089 q 576 1054 529 1054 m 876 1054 l 886 1054 q 965 1072 943 1054 q 997 1144 988 1089 l 1000 1163 q 1003 1196 1003 1175 q 981 1252 1003 1235 q 913 1269 960 1269 l 903 1269 q 822 1252 844 1269 q 790 1179 800 1235 l 788 1161 q 785 1128 785 1136 q 806 1072 785 1090 q 876 1054 828 1054 "},"Ẁ":{"ha":1247,"x_min":99,"x_max":1315,"o":"m 200 0 l 368 0 q 423 6 404 0 q 451 40 442 13 l 567 361 q 639 629 610 489 l 653 629 q 631 378 631 500 l 632 54 q 643 13 631 26 q 685 0 656 0 l 860 0 q 911 7 893 0 q 940 42 929 14 l 1307 921 q 1315 953 1315 940 q 1272 986 1315 986 l 1093 986 q 1047 979 1060 986 q 1025 943 1033 972 l 906 579 q 846 317 878 493 l 832 317 q 848 439 840 365 q 854 563 856 513 l 850 928 q 836 973 850 960 q 790 986 822 986 l 638 986 q 587 979 601 986 q 561 942 572 972 l 421 579 q 385 453 401 532 q 358 317 368 375 l 344 317 q 374 563 371 468 l 383 926 q 374 974 385 961 q 331 986 364 986 l 149 986 q 108 976 118 986 q 100 938 99 967 l 150 54 q 162 13 150 26 q 200 0 174 0 m 586 1136 l 817 1053 q 854 1043 842 1043 q 879 1054 868 1043 l 928 1100 q 943 1126 943 1115 q 924 1150 943 1138 l 750 1267 q 740 1274 747 1269 q 721 1285 732 1279 q 699 1292 710 1292 q 664 1276 681 1292 l 579 1201 q 560 1167 560 1185 q 586 1136 560 1144 "},"X":{"ha":868,"x_min":-79,"x_max":932,"o":"m -35 0 l 136 0 q 190 1 176 0 q 216 12 203 3 q 243 43 229 21 l 400 294 l 467 61 q 491 12 476 24 q 547 0 506 0 l 732 0 q 781 31 781 0 q 776 50 781 40 l 600 503 l 922 922 q 932 951 932 936 q 922 976 932 967 q 892 986 911 986 l 710 986 q 653 979 672 986 q 617 944 635 972 l 465 707 l 401 928 q 388 965 394 954 q 369 981 382 975 q 329 986 357 986 l 151 986 q 104 957 104 986 q 108 939 104 950 l 271 503 l -68 67 q -79 35 -79 51 q -67 10 -79 19 q -35 0 -56 0 "},"Y":{"ha":882,"x_min":88,"x_max":961,"o":"m 279 0 l 444 0 q 487 9 476 0 q 503 50 497 18 l 561 374 l 950 919 q 961 951 961 938 q 949 976 961 967 q 910 986 936 986 l 732 986 q 676 978 692 986 q 642 940 660 971 l 465 646 l 393 925 q 379 965 386 953 q 357 981 372 976 q 310 986 342 986 l 131 986 q 88 958 88 986 q 92 936 88 949 l 286 374 l 231 67 q 228 46 228 53 q 279 0 228 0 "},"Ý":{"ha":882,"x_min":88,"x_max":961,"o":"m 279 0 l 444 0 q 487 9 476 0 q 503 50 497 18 l 561 374 l 950 919 q 961 951 961 938 q 949 976 961 967 q 910 986 936 986 l 732 986 q 676 978 692 986 q 642 940 660 971 l 465 646 l 393 925 q 379 965 386 953 q 357 981 372 976 q 310 986 342 986 l 131 986 q 88 958 88 986 q 92 936 88 949 l 286 374 l 231 67 q 228 46 228 53 q 279 0 228 0 m 374 1107 l 407 1057 q 433 1042 418 1042 q 467 1049 443 1042 l 725 1131 q 750 1154 750 1139 q 732 1190 750 1169 l 674 1265 q 631 1289 656 1289 q 589 1275 614 1289 l 379 1160 q 360 1138 360 1150 q 374 1107 360 1128 "},"Ŷ":{"ha":882,"x_min":88,"x_max":961,"o":"m 279 0 l 444 0 q 487 9 476 0 q 503 50 497 18 l 561 374 l 950 919 q 961 951 961 938 q 949 976 961 967 q 910 986 936 986 l 732 986 q 676 978 692 986 q 642 940 660 971 l 465 646 l 393 925 q 379 965 386 953 q 357 981 372 976 q 310 986 342 986 l 131 986 q 88 958 88 986 q 92 936 88 949 l 286 374 l 231 67 q 228 46 228 53 q 279 0 228 0 m 308 1049 l 443 1049 q 458 1049 447 1049 q 481 1052 469 1049 q 507 1072 492 1056 l 557 1126 l 594 1085 q 606 1070 599 1081 q 626 1054 614 1060 q 665 1049 638 1049 l 782 1049 q 821 1065 821 1049 q 808 1089 821 1076 l 692 1231 q 651 1270 667 1261 q 599 1279 635 1279 l 556 1279 q 496 1273 514 1279 q 453 1244 478 1267 l 289 1100 q 269 1069 269 1083 q 308 1049 269 1049 "},"Ÿ":{"ha":882,"x_min":88,"x_max":961,"o":"m 279 0 l 444 0 q 487 9 476 0 q 503 50 497 18 l 561 374 l 950 919 q 961 951 961 938 q 949 976 961 967 q 910 986 936 986 l 732 986 q 676 978 692 986 q 642 940 660 971 l 465 646 l 393 925 q 379 965 386 953 q 357 981 372 976 q 310 986 342 986 l 131 986 q 88 958 88 986 q 92 936 88 949 l 286 374 l 231 67 q 228 46 228 53 q 279 0 228 0 m 393 1054 l 404 1054 q 484 1072 461 1054 q 517 1144 507 1089 l 519 1163 q 522 1196 522 1188 q 501 1252 522 1235 q 431 1269 479 1269 l 419 1269 q 358 1263 379 1269 q 327 1237 338 1256 q 310 1179 317 1218 l 307 1161 q 304 1126 304 1149 q 325 1072 304 1089 q 393 1054 346 1054 m 693 1054 l 703 1054 q 782 1072 760 1054 q 814 1144 804 1089 l 817 1163 q 819 1196 819 1175 q 798 1252 819 1235 q 729 1269 776 1269 l 719 1269 q 639 1252 661 1269 q 607 1179 617 1235 l 604 1161 q 601 1128 601 1136 q 623 1072 601 1090 q 693 1054 644 1054 "},"Ỳ":{"ha":882,"x_min":88,"x_max":961,"o":"m 279 0 l 444 0 q 487 9 476 0 q 503 50 497 18 l 561 374 l 950 919 q 961 951 961 938 q 949 976 961 967 q 910 986 936 986 l 732 986 q 676 978 692 986 q 642 940 660 971 l 465 646 l 393 925 q 379 965 386 953 q 357 981 372 976 q 310 986 342 986 l 131 986 q 88 958 88 986 q 92 936 88 949 l 286 374 l 231 67 q 228 46 228 53 q 279 0 228 0 m 382 1136 l 613 1053 q 650 1043 638 1043 q 675 1054 664 1043 l 724 1100 q 739 1126 739 1115 q 719 1150 739 1138 l 546 1267 q 535 1274 543 1269 q 517 1285 528 1279 q 494 1292 506 1292 q 460 1276 476 1292 l 375 1201 q 356 1167 356 1185 q 382 1136 356 1144 "},"Z":{"ha":803,"x_min":-40,"x_max":836,"o":"m 10 0 l 629 0 q 669 10 656 0 q 688 50 682 21 l 710 178 q 713 199 713 194 q 661 243 713 243 l 344 243 l 797 775 q 810 800 807 788 q 818 836 814 813 l 833 919 q 836 944 836 939 q 824 976 836 965 q 785 986 813 986 l 183 986 q 139 977 151 986 q 121 936 126 968 l 99 811 q 97 793 97 806 q 150 743 97 743 l 451 743 l -1 210 q -24 151 -18 186 l -37 67 q -40 44 -40 50 q -28 10 -40 21 q 10 0 -15 0 "},"Ź":{"ha":803,"x_min":-40,"x_max":836,"o":"m 10 0 l 629 0 q 669 10 656 0 q 688 50 682 21 l 710 178 q 713 199 713 194 q 661 243 713 243 l 344 243 l 797 775 q 810 800 807 788 q 818 836 814 813 l 833 919 q 836 944 836 939 q 824 976 836 965 q 785 986 813 986 l 183 986 q 139 977 151 986 q 121 936 126 968 l 99 811 q 97 793 97 806 q 150 743 97 743 l 451 743 l -1 210 q -24 151 -18 186 l -37 67 q -40 44 -40 50 q -28 10 -40 21 q 10 0 -15 0 m 338 1107 l 371 1057 q 397 1042 382 1042 q 431 1049 407 1042 l 689 1131 q 714 1154 714 1139 q 696 1190 714 1169 l 638 1265 q 594 1289 619 1289 q 553 1275 578 1289 l 343 1160 q 324 1138 324 1150 q 338 1107 324 1128 "},"Ž":{"ha":803,"x_min":-40,"x_max":836,"o":"m 10 0 l 629 0 q 669 10 656 0 q 688 50 682 21 l 710 178 q 713 199 713 194 q 661 243 713 243 l 344 243 l 797 775 q 810 800 807 788 q 818 836 814 813 l 833 919 q 836 944 836 939 q 824 976 836 965 q 785 986 813 986 l 183 986 q 139 977 151 986 q 121 936 126 968 l 99 811 q 97 793 97 806 q 150 743 97 743 l 451 743 l -1 210 q -24 151 -18 186 l -37 67 q -40 44 -40 50 q -28 10 -40 21 q 10 0 -15 0 m 493 1047 l 536 1047 q 596 1053 578 1047 q 639 1082 614 1060 l 803 1226 q 822 1257 822 1243 q 783 1278 822 1278 l 649 1278 q 633 1278 644 1278 q 611 1274 622 1278 q 585 1254 600 1271 l 535 1200 l 497 1242 q 485 1256 493 1246 q 466 1272 478 1267 q 426 1278 454 1278 l 310 1278 q 271 1261 271 1278 q 283 1238 271 1250 l 400 1096 q 440 1056 424 1065 q 493 1047 457 1047 "},"Ż":{"ha":803,"x_min":-40,"x_max":836,"o":"m 10 0 l 629 0 q 669 10 656 0 q 688 50 682 21 l 710 178 q 713 199 713 194 q 661 243 713 243 l 344 243 l 797 775 q 810 800 807 788 q 818 836 814 813 l 833 919 q 836 944 836 939 q 824 976 836 965 q 785 986 813 986 l 183 986 q 139 977 151 986 q 121 936 126 968 l 99 811 q 97 793 97 806 q 150 743 97 743 l 451 743 l -1 210 q -24 151 -18 186 l -37 67 q -40 44 -40 50 q -28 10 -40 21 q 10 0 -15 0 m 508 1051 l 517 1051 q 580 1059 558 1051 q 613 1086 601 1067 q 632 1147 625 1106 l 633 1158 q 638 1199 638 1182 q 615 1254 638 1238 q 544 1271 593 1271 l 536 1271 q 473 1263 494 1271 q 440 1236 451 1256 q 421 1175 428 1217 l 418 1164 q 414 1125 414 1143 q 436 1069 414 1086 q 508 1051 458 1051 "},"a":{"ha":700,"x_min":-19,"x_max":650,"o":"m 263 -21 q 400 -10 342 -21 q 513 21 458 1 q 563 51 550 35 q 583 111 576 67 q 640 436 601 219 q 650 528 650 494 q 590 688 650 632 q 396 743 529 743 q 208 709 278 743 q 83 600 139 675 q 68 564 68 578 q 96 531 68 543 l 206 482 q 240 472 229 472 q 274 493 260 472 q 308 533 290 518 q 353 547 325 547 q 394 514 394 547 q 392 494 394 506 q 389 476 390 483 l 383 446 l 310 446 q -19 189 -19 446 q 42 36 -19 93 q 263 -21 103 -21 m 290 163 q 232 208 232 163 q 250 253 232 235 q 304 272 268 272 q 354 268 333 272 l 338 181 q 329 169 336 172 q 290 163 315 163 "},"á":{"ha":700,"x_min":-19,"x_max":650,"o":"m 263 -21 q 400 -10 342 -21 q 513 21 458 1 q 563 51 550 35 q 583 111 576 67 q 640 436 601 219 q 650 528 650 494 q 590 688 650 632 q 396 743 529 743 q 208 709 278 743 q 83 600 139 675 q 68 564 68 578 q 96 531 68 543 l 206 482 q 240 472 229 472 q 274 493 260 472 q 308 533 290 518 q 353 547 325 547 q 394 514 394 547 q 392 494 394 506 q 389 476 390 483 l 383 446 l 310 446 q -19 189 -19 446 q 42 36 -19 93 q 263 -21 103 -21 m 290 163 q 232 208 232 163 q 250 253 232 235 q 304 272 268 272 q 354 268 333 272 l 338 181 q 329 169 336 172 q 290 163 315 163 m 231 856 l 264 806 q 290 790 275 790 q 324 797 300 790 l 582 879 q 607 903 607 888 q 589 939 607 918 l 531 1014 q 488 1038 513 1038 q 446 1024 471 1038 l 236 908 q 217 886 217 899 q 231 856 217 876 "},"ă":{"ha":700,"x_min":-19,"x_max":681,"o":"m 263 -21 q 400 -10 342 -21 q 513 21 458 1 q 563 51 550 35 q 583 111 576 67 q 640 436 601 219 q 650 528 650 494 q 590 688 650 632 q 396 743 529 743 q 208 709 278 743 q 83 600 139 675 q 68 564 68 578 q 96 531 68 543 l 206 482 q 240 472 229 472 q 274 493 260 472 q 308 533 290 518 q 353 547 325 547 q 394 514 394 547 q 392 494 394 506 q 389 476 390 483 l 383 446 l 310 446 q -19 189 -19 446 q 42 36 -19 93 q 263 -21 103 -21 m 290 163 q 232 208 232 163 q 250 253 232 235 q 304 272 268 272 q 354 268 333 272 l 338 181 q 329 169 336 172 q 290 163 315 163 m 411 797 q 567 831 500 797 q 672 931 633 865 q 681 956 681 946 q 650 989 681 975 l 558 1025 q 541 1032 550 1028 q 528 1036 532 1036 q 510 1028 521 1036 q 418 965 475 965 q 375 978 390 965 q 347 1014 360 990 q 322 1035 336 1035 q 300 1029 317 1035 l 207 997 q 190 988 194 993 q 185 976 185 983 q 188 961 185 972 q 264 840 207 882 q 411 797 321 797 "},"â":{"ha":700,"x_min":-19,"x_max":681,"o":"m 263 -21 q 400 -10 342 -21 q 513 21 458 1 q 563 51 550 35 q 583 111 576 67 q 640 436 601 219 q 650 528 650 494 q 590 688 650 632 q 396 743 529 743 q 208 709 278 743 q 83 600 139 675 q 68 564 68 578 q 96 531 68 543 l 206 482 q 240 472 229 472 q 274 493 260 472 q 308 533 290 518 q 353 547 325 547 q 394 514 394 547 q 392 494 394 506 q 389 476 390 483 l 383 446 l 310 446 q -19 189 -19 446 q 42 36 -19 93 q 263 -21 103 -21 m 290 163 q 232 208 232 163 q 250 253 232 235 q 304 272 268 272 q 354 268 333 272 l 338 181 q 329 169 336 172 q 290 163 315 163 m 168 797 l 303 797 q 318 797 307 797 q 340 801 329 797 q 367 821 351 804 l 417 875 l 454 833 q 466 819 458 829 q 485 803 474 808 q 525 797 497 797 l 642 797 q 681 814 681 797 q 668 838 681 825 l 551 979 q 510 1019 526 1010 q 458 1028 494 1028 l 415 1028 q 356 1022 374 1028 q 313 993 338 1015 l 149 849 q 129 818 129 832 q 168 797 129 797 "},"ä":{"ha":700,"x_min":-19,"x_max":678,"o":"m 263 -21 q 400 -10 342 -21 q 513 21 458 1 q 563 51 550 35 q 583 111 576 67 q 640 436 601 219 q 650 528 650 494 q 590 688 650 632 q 396 743 529 743 q 208 709 278 743 q 83 600 139 675 q 68 564 68 578 q 96 531 68 543 l 206 482 q 240 472 229 472 q 274 493 260 472 q 308 533 290 518 q 353 547 325 547 q 394 514 394 547 q 392 494 394 506 q 389 476 390 483 l 383 446 l 310 446 q -19 189 -19 446 q 42 36 -19 93 q 263 -21 103 -21 m 290 163 q 232 208 232 163 q 250 253 232 235 q 304 272 268 272 q 354 268 333 272 l 338 181 q 329 169 336 172 q 290 163 315 163 m 250 801 l 261 801 q 341 819 318 801 q 374 893 364 838 l 376 911 q 381 946 381 931 q 358 1001 381 983 q 288 1018 336 1018 l 276 1018 q 215 1011 236 1018 q 184 985 194 1004 q 167 928 174 967 l 164 910 q 161 875 161 897 q 182 819 161 838 q 250 801 203 801 m 550 801 l 560 801 q 638 819 617 801 q 671 893 660 838 l 674 911 q 678 946 678 931 q 656 1001 678 983 q 586 1018 633 1018 l 576 1018 q 496 1001 518 1018 q 464 928 474 983 l 461 910 q 458 876 458 885 q 480 819 458 838 q 550 801 501 801 "},"à":{"ha":700,"x_min":-19,"x_max":650,"o":"m 263 -21 q 400 -10 342 -21 q 513 21 458 1 q 563 51 550 35 q 583 111 576 67 q 640 436 601 219 q 650 528 650 494 q 590 688 650 632 q 396 743 529 743 q 208 709 278 743 q 83 600 139 675 q 68 564 68 578 q 96 531 68 543 l 206 482 q 240 472 229 472 q 274 493 260 472 q 308 533 290 518 q 353 547 325 547 q 394 514 394 547 q 392 494 394 506 q 389 476 390 483 l 383 446 l 310 446 q -19 189 -19 446 q 42 36 -19 93 q 263 -21 103 -21 m 290 163 q 232 208 232 163 q 250 253 232 235 q 304 272 268 272 q 354 268 333 272 l 338 181 q 329 169 336 172 q 290 163 315 163 m 219 885 l 450 801 q 488 792 475 792 q 513 803 501 792 l 561 849 q 576 874 576 864 q 557 899 576 886 l 383 1015 q 373 1023 381 1018 q 354 1034 365 1028 q 332 1040 343 1040 q 297 1025 314 1040 l 213 950 q 193 915 193 933 q 219 885 193 893 "},"ā":{"ha":700,"x_min":-19,"x_max":650,"o":"m 263 -21 q 400 -10 342 -21 q 513 21 458 1 q 563 51 550 35 q 583 111 576 67 q 640 436 601 219 q 650 528 650 494 q 590 688 650 632 q 396 743 529 743 q 208 709 278 743 q 83 600 139 675 q 68 564 68 578 q 96 531 68 543 l 206 482 q 240 472 229 472 q 274 493 260 472 q 308 533 290 518 q 353 547 325 547 q 394 514 394 547 q 392 494 394 506 q 389 476 390 483 l 383 446 l 310 446 q -19 189 -19 446 q 42 36 -19 93 q 263 -21 103 -21 m 290 163 q 232 208 232 163 q 250 253 232 235 q 304 272 268 272 q 354 268 333 272 l 338 181 q 329 169 336 172 q 290 163 315 163 m 233 828 l 572 828 q 615 835 604 828 q 632 871 626 842 l 642 928 q 644 954 644 947 q 635 978 644 971 q 606 986 626 986 l 263 986 q 222 979 233 986 q 206 944 211 972 l 196 886 q 193 861 193 867 q 203 836 193 844 q 233 828 213 828 "},"ą":{"ha":700,"x_min":-19,"x_max":650,"o":"m 364 -342 q 518 -303 464 -342 q 528 -283 528 -297 q 524 -260 528 -275 l 504 -187 q 490 -172 500 -172 q 479 -175 488 -172 q 444 -186 457 -186 q 431 -182 435 -186 q 426 -167 426 -178 l 426 -160 q 456 -72 431 -124 q 544 28 482 -21 q 569 62 561 40 q 585 124 576 83 q 640 436 604 228 q 650 528 650 494 q 590 688 650 632 q 396 743 529 743 q 208 709 278 743 q 83 600 139 675 q 68 564 68 578 q 96 531 68 543 l 206 482 q 240 472 229 472 q 274 493 260 472 q 308 533 292 519 q 351 547 324 547 q 394 513 394 547 q 392 493 394 504 q 389 476 390 482 l 382 443 q 310 446 357 446 q -19 189 -19 446 q 42 36 -19 93 q 263 -21 103 -21 q 349 -12 314 -21 q 258 -120 293 -62 q 224 -231 224 -178 q 263 -315 224 -289 q 364 -342 303 -342 m 290 163 q 232 208 232 163 q 250 253 232 235 q 304 272 268 272 q 354 268 333 272 l 338 181 q 329 169 336 172 q 290 163 315 163 "},"å":{"ha":700,"x_min":-19,"x_max":650,"o":"m 263 -21 q 400 -10 342 -21 q 513 21 458 1 q 563 51 550 35 q 583 111 576 67 q 640 436 601 219 q 650 528 650 494 q 590 688 650 632 q 396 743 529 743 q 208 709 278 743 q 83 600 139 675 q 68 564 68 578 q 96 531 68 543 l 206 482 q 240 472 229 472 q 274 493 260 472 q 308 533 290 518 q 353 547 325 547 q 394 514 394 547 q 392 494 394 506 q 389 476 390 483 l 383 446 l 310 446 q -19 189 -19 446 q 42 36 -19 93 q 263 -21 103 -21 m 290 163 q 232 208 232 163 q 250 253 232 235 q 304 272 268 272 q 354 268 333 272 l 338 181 q 329 169 336 172 q 290 163 315 163 m 407 785 q 545 833 492 785 q 599 963 599 881 q 554 1069 599 1029 q 436 1108 510 1108 q 296 1060 350 1108 q 242 926 242 1011 q 287 823 242 861 q 407 785 332 785 m 410 894 q 375 906 388 894 q 363 936 363 917 q 382 981 363 964 q 431 997 401 997 q 464 986 451 997 q 476 954 476 975 q 458 910 476 926 q 410 894 439 894 "},"ǻ":{"ha":700,"x_min":-19,"x_max":650,"o":"m 267 1154 l 299 1117 q 322 1106 307 1106 q 354 1111 326 1106 l 596 1172 q 619 1190 619 1178 q 603 1217 619 1200 l 549 1272 q 508 1289 531 1289 q 468 1279 494 1289 l 272 1193 q 254 1176 254 1185 q 267 1154 254 1172 m 415 776 q 549 823 497 776 q 601 950 601 869 q 558 1052 601 1014 q 444 1090 515 1090 q 308 1044 361 1090 q 256 914 256 997 q 299 813 256 850 q 415 776 343 776 m 418 883 q 385 894 397 883 q 372 924 372 906 q 392 967 372 951 q 439 983 411 983 q 471 972 458 983 q 483 942 483 961 q 465 899 483 914 q 418 883 446 883 m 263 -21 q 400 -10 342 -21 q 513 21 458 1 q 563 51 550 35 q 583 111 576 67 q 640 436 601 219 q 650 528 650 494 q 590 688 650 632 q 396 743 529 743 q 208 709 278 743 q 83 600 139 675 q 68 564 68 578 q 96 531 68 543 l 206 482 q 240 472 229 472 q 274 493 260 472 q 308 533 290 518 q 353 547 325 547 q 394 514 394 547 q 392 494 394 506 q 389 476 390 483 l 383 446 l 310 446 q -19 189 -19 446 q 42 36 -19 93 q 263 -21 103 -21 m 290 163 q 232 208 232 163 q 250 253 232 235 q 304 272 268 272 q 354 268 333 272 l 338 181 q 329 169 336 172 q 290 163 315 163 "},"ã":{"ha":700,"x_min":-19,"x_max":668,"o":"m 263 -21 q 400 -10 342 -21 q 513 21 458 1 q 563 51 550 35 q 583 111 576 67 q 640 436 601 219 q 650 528 650 494 q 590 688 650 632 q 396 743 529 743 q 208 709 278 743 q 83 600 139 675 q 68 564 68 578 q 96 531 68 543 l 206 482 q 240 472 229 472 q 274 493 260 472 q 308 533 290 518 q 353 547 325 547 q 394 514 394 547 q 392 494 394 506 q 389 476 390 483 l 383 446 l 310 446 q -19 189 -19 446 q 42 36 -19 93 q 263 -21 103 -21 m 290 163 q 232 208 232 163 q 250 253 232 235 q 304 272 268 272 q 354 268 333 272 l 338 181 q 329 169 336 172 q 290 163 315 163 m 190 813 l 276 813 q 291 817 285 813 q 299 829 297 821 q 335 869 304 869 q 358 865 347 869 q 386 850 369 860 q 443 822 417 832 q 513 813 469 813 q 613 848 576 813 q 665 971 649 883 l 668 993 q 663 1010 668 1006 q 644 1015 658 1015 l 553 1015 q 531 997 531 1015 q 521 965 529 974 q 496 957 513 957 q 471 962 483 957 q 442 978 458 967 q 382 1006 410 996 q 310 1015 354 1015 q 211 979 249 1015 q 163 856 174 943 q 161 838 161 849 q 167 818 161 824 q 190 813 174 813 "},"æ":{"ha":1013,"x_min":-32,"x_max":989,"o":"m 228 -21 q 343 -9 292 -21 q 439 29 394 3 q 517 -6 468 8 q 611 -21 565 -21 q 788 14 711 -21 q 906 117 865 49 q 915 147 915 132 q 878 193 915 175 l 789 240 q 753 253 764 253 q 729 240 742 253 q 675 189 696 204 q 618 174 654 174 q 556 233 556 174 q 558 257 556 240 l 563 276 q 681 271 607 271 q 818 296 747 271 q 939 380 889 321 q 989 532 989 439 q 918 686 989 629 q 706 743 847 743 q 524 690 610 743 q 451 728 497 713 q 356 743 404 743 q 71 600 171 743 q 56 564 56 579 q 64 543 56 551 q 89 528 72 535 l 199 481 q 228 474 213 474 q 257 489 247 474 q 296 533 278 518 q 340 547 314 547 q 382 511 382 547 q 379 489 382 506 l 368 432 q 283 438 332 438 q 68 392 149 438 q -28 240 -12 346 q -32 192 -32 215 q 36 35 -32 90 q 228 -21 104 -21 m 650 425 q 590 428 621 425 l 599 471 q 632 537 607 514 q 693 560 657 560 q 738 550 724 560 q 751 519 751 540 q 724 455 751 485 q 650 425 696 425 m 278 163 q 219 208 219 163 q 238 253 219 235 q 292 272 256 272 q 342 269 314 272 l 325 181 q 317 169 324 172 q 278 163 303 163 "},"ǽ":{"ha":1013,"x_min":-32,"x_max":989,"o":"m 228 -21 q 343 -9 292 -21 q 439 29 394 3 q 517 -6 468 8 q 611 -21 565 -21 q 788 14 711 -21 q 906 117 865 49 q 915 147 915 132 q 878 193 915 175 l 789 240 q 753 253 764 253 q 729 240 742 253 q 675 189 696 204 q 618 174 654 174 q 556 233 556 174 q 558 257 556 240 l 563 276 q 681 271 607 271 q 818 296 747 271 q 939 380 889 321 q 989 532 989 439 q 918 686 989 629 q 706 743 847 743 q 524 690 610 743 q 451 728 497 713 q 356 743 404 743 q 71 600 171 743 q 56 564 56 579 q 64 543 56 551 q 89 528 72 535 l 199 481 q 228 474 213 474 q 257 489 247 474 q 296 533 278 518 q 340 547 314 547 q 382 511 382 547 q 379 489 382 506 l 368 432 q 283 438 332 438 q 68 392 149 438 q -28 240 -12 346 q -32 192 -32 215 q 36 35 -32 90 q 228 -21 104 -21 m 650 425 q 590 428 621 425 l 599 471 q 632 537 607 514 q 693 560 657 560 q 738 550 724 560 q 751 519 751 540 q 724 455 751 485 q 650 425 696 425 m 278 163 q 219 208 219 163 q 238 253 219 235 q 292 272 256 272 q 342 269 314 272 l 325 181 q 317 169 324 172 q 278 163 303 163 m 379 856 l 413 806 q 439 790 424 790 q 472 797 449 790 l 731 879 q 756 903 756 888 q 738 939 756 918 l 679 1014 q 636 1038 661 1038 q 594 1024 619 1038 l 385 908 q 365 886 365 899 q 379 856 365 876 "},"b":{"ha":728,"x_min":-15,"x_max":685,"o":"m 289 -21 q 538 49 451 -21 q 653 281 625 118 l 679 436 q 685 504 685 468 q 615 681 685 618 q 425 743 546 743 q 356 736 393 743 l 397 965 q 399 985 399 972 q 354 1028 399 1028 l 204 1028 q 161 1019 176 1028 q 142 982 146 1010 l -12 117 l -15 94 q -6 63 -15 75 q 29 36 4 50 q 140 -2 65 17 q 289 -21 214 -21 m 314 204 q 275 207 294 204 q 267 210 269 208 q 265 218 265 213 l 265 224 l 317 508 q 382 521 346 521 q 416 512 406 521 q 426 481 426 503 q 425 458 426 467 l 394 289 q 368 224 386 243 q 314 204 350 204 "},"c":{"ha":682,"x_min":-3,"x_max":657,"o":"m 261 -21 q 464 24 383 -21 q 594 158 544 68 q 608 201 608 182 q 569 243 608 229 l 444 283 q 408 292 414 292 q 378 264 389 292 q 342 212 363 228 q 294 196 322 196 q 254 239 254 196 q 257 263 254 246 l 289 443 q 311 506 296 485 q 363 526 326 526 q 406 512 392 526 q 425 468 419 497 q 453 436 431 436 q 479 440 464 436 l 621 474 q 649 487 642 479 q 657 508 657 494 q 653 535 657 521 q 573 687 632 631 q 393 743 514 743 q 143 668 231 743 q 31 449 56 593 l 4 294 q -3 214 -3 258 q 63 40 -3 101 q 261 -21 128 -21 "},"ć":{"ha":682,"x_min":-3,"x_max":657,"o":"m 261 -21 q 464 24 383 -21 q 594 158 544 68 q 608 201 608 182 q 569 243 608 229 l 444 283 q 408 292 414 292 q 378 264 389 292 q 342 212 363 228 q 294 196 322 196 q 254 239 254 196 q 257 263 254 246 l 289 443 q 311 506 296 485 q 363 526 326 526 q 406 512 392 526 q 425 468 419 497 q 453 436 431 436 q 479 440 464 436 l 621 474 q 649 487 642 479 q 657 508 657 494 q 653 535 657 521 q 573 687 632 631 q 393 743 514 743 q 143 668 231 743 q 31 449 56 593 l 4 294 q -3 214 -3 258 q 63 40 -3 101 q 261 -21 128 -21 m 242 856 l 275 806 q 301 790 286 790 q 335 797 311 790 l 593 879 q 618 903 618 888 q 600 939 618 918 l 542 1014 q 499 1038 524 1038 q 457 1024 482 1038 l 247 908 q 228 886 228 899 q 242 856 228 876 "},"č":{"ha":682,"x_min":-3,"x_max":704,"o":"m 261 -21 q 464 24 383 -21 q 594 158 544 68 q 608 201 608 182 q 569 243 608 229 l 444 283 q 408 292 414 292 q 378 264 389 292 q 342 212 363 228 q 294 196 322 196 q 254 239 254 196 q 257 263 254 246 l 289 443 q 311 506 296 485 q 363 526 326 526 q 406 512 392 526 q 425 468 419 497 q 453 436 431 436 q 479 440 464 436 l 621 474 q 649 487 642 479 q 657 508 657 494 q 653 535 657 521 q 573 687 632 631 q 393 743 514 743 q 143 668 231 743 q 31 449 56 593 l 4 294 q -3 214 -3 258 q 63 40 -3 101 q 261 -21 128 -21 m 375 796 l 418 796 q 478 802 460 796 q 521 831 496 808 l 685 975 q 704 1006 704 992 q 665 1026 704 1026 l 531 1026 q 515 1026 526 1026 q 493 1023 504 1026 q 467 1003 482 1019 l 417 949 l 379 990 q 367 1005 375 994 q 348 1021 360 1015 q 308 1026 336 1026 l 192 1026 q 153 1010 153 1026 q 165 986 153 999 l 282 844 q 323 805 307 814 q 375 796 339 796 "},"ç":{"ha":682,"x_min":-3,"x_max":657,"o":"m 203 -340 q 367 -300 306 -340 q 429 -171 429 -260 q 408 -103 429 -131 q 347 -69 386 -76 q 311 -67 325 -67 l 350 -14 q 494 42 435 0 q 594 158 554 85 q 608 201 608 182 q 569 243 608 229 l 444 283 q 408 292 414 292 q 378 264 389 292 q 342 212 363 228 q 294 196 322 196 q 254 239 254 196 q 257 263 254 246 l 289 443 q 311 506 296 485 q 363 526 326 526 q 406 512 392 526 q 425 468 419 497 q 453 436 431 436 q 479 440 464 436 l 621 474 q 649 487 642 479 q 657 508 657 494 q 653 535 657 521 q 573 687 632 631 q 393 743 514 743 q 143 668 231 743 q 31 449 56 593 l 4 294 q -3 213 -3 258 q 50 53 -3 113 q 210 -18 103 -7 l 147 -112 q 138 -140 138 -126 q 142 -154 138 -149 q 156 -160 147 -160 l 207 -158 q 240 -165 232 -158 q 249 -183 249 -171 q 231 -213 249 -204 q 181 -222 214 -222 q 99 -203 142 -222 q 88 -199 93 -199 q 75 -215 78 -199 l 63 -282 q 71 -307 58 -299 q 203 -340 129 -340 "},"ĉ":{"ha":682,"x_min":-3,"x_max":692,"o":"m 261 -21 q 464 24 383 -21 q 594 158 544 68 q 608 201 608 182 q 569 243 608 229 l 444 283 q 408 292 414 292 q 378 264 389 292 q 342 212 363 228 q 294 196 322 196 q 254 239 254 196 q 257 263 254 246 l 289 443 q 311 506 296 485 q 363 526 326 526 q 406 512 392 526 q 425 468 419 497 q 453 436 431 436 q 479 440 464 436 l 621 474 q 649 487 642 479 q 657 508 657 494 q 653 535 657 521 q 573 687 632 631 q 393 743 514 743 q 143 668 231 743 q 31 449 56 593 l 4 294 q -3 214 -3 258 q 63 40 -3 101 q 261 -21 128 -21 m 179 797 l 314 797 q 329 797 318 797 q 351 801 340 797 q 378 821 363 804 l 428 875 l 465 833 q 477 819 469 829 q 497 803 485 808 q 536 797 508 797 l 653 797 q 692 814 692 797 q 679 838 692 825 l 563 979 q 522 1019 538 1010 q 469 1028 506 1028 l 426 1028 q 367 1022 385 1028 q 324 993 349 1015 l 160 849 q 140 818 140 832 q 179 797 140 797 "},"ċ":{"ha":682,"x_min":-3,"x_max":657,"o":"m 261 -21 q 464 24 383 -21 q 594 158 544 68 q 608 201 608 182 q 569 243 608 229 l 444 283 q 408 292 414 292 q 378 264 389 292 q 342 212 363 228 q 294 196 322 196 q 254 239 254 196 q 257 263 254 246 l 289 443 q 311 506 296 485 q 363 526 326 526 q 406 512 392 526 q 425 468 419 497 q 453 436 431 436 q 479 440 464 436 l 621 474 q 649 487 642 479 q 657 508 657 494 q 653 535 657 521 q 573 687 632 631 q 393 743 514 743 q 143 668 231 743 q 31 449 56 593 l 4 294 q -3 214 -3 258 q 63 40 -3 101 q 261 -21 128 -21 m 371 810 l 460 810 q 521 817 500 810 q 552 843 542 824 q 568 903 563 863 l 571 922 q 574 961 574 950 q 554 1013 574 997 q 488 1028 535 1028 l 407 1028 q 345 1021 365 1028 q 315 994 325 1014 q 299 935 306 975 l 296 918 q 292 872 292 892 q 309 824 292 839 q 371 810 326 810 "},"d":{"ha":728,"x_min":-3,"x_max":757,"o":"m 281 -21 q 542 18 431 -21 q 584 45 574 29 q 601 100 594 61 l 756 965 q 757 983 757 972 q 715 1028 757 1028 l 558 1028 q 519 1019 535 1028 q 500 982 504 1010 l 456 733 q 364 743 419 743 q 140 672 222 743 q 32 453 58 600 l 6 303 q -3 221 -3 260 q 69 41 -3 103 q 281 -21 140 -21 m 299 204 q 267 214 278 204 q 257 246 257 224 q 260 272 257 253 l 289 442 q 313 500 296 481 q 364 519 329 519 q 417 514 393 519 l 365 226 q 349 211 363 217 q 299 204 331 204 "},"ð":{"ha":739,"x_min":-6,"x_max":713,"o":"m 293 -21 q 537 55 447 -21 q 651 275 626 131 l 696 526 q 713 700 713 622 q 646 931 713 854 l 696 976 q 706 996 706 986 q 697 1015 706 1007 l 658 1051 q 640 1063 647 1063 q 622 1053 632 1063 l 565 993 q 440 1024 513 1014 q 261 1033 367 1033 q 224 1024 233 1033 q 208 985 214 1015 l 192 885 q 189 861 189 868 q 201 831 189 840 q 240 822 213 822 q 338 822 304 822 q 385 817 372 821 l 360 793 q 350 775 350 783 q 360 758 350 768 l 394 729 q 417 718 408 718 q 432 726 424 718 l 475 774 q 494 708 494 749 q 489 649 494 681 q 344 681 431 681 q 129 613 211 681 q 24 413 47 546 l 0 281 q -6 215 -6 251 q 72 41 -6 103 q 293 -21 149 -21 m 310 203 q 270 215 285 203 q 256 250 256 226 q 257 268 256 261 l 281 396 q 363 479 294 479 q 404 467 389 479 q 419 429 419 454 q 418 413 419 418 l 396 285 q 310 203 379 203 "},"ď":{"ha":863,"x_min":-3,"x_max":1046,"o":"m 281 -21 q 542 18 431 -21 q 584 45 574 29 q 601 100 594 61 l 756 965 q 757 983 757 972 q 715 1028 757 1028 l 558 1028 q 519 1019 535 1028 q 500 982 504 1010 l 456 733 q 364 743 419 743 q 140 672 222 743 q 32 453 58 600 l 6 303 q -3 221 -3 260 q 69 41 -3 103 q 281 -21 140 -21 m 797 733 l 878 733 q 917 740 906 733 q 940 771 928 747 l 1039 961 q 1046 989 1046 974 q 1033 1017 1046 1007 q 994 1028 1019 1028 l 878 1028 q 833 1018 846 1028 q 813 978 821 1008 l 760 783 q 757 768 757 772 q 768 743 757 753 q 797 733 779 733 m 299 204 q 267 214 278 204 q 257 246 257 224 q 260 272 257 253 l 289 442 q 313 500 296 481 q 364 519 329 519 q 417 514 393 519 l 365 226 q 349 211 363 217 q 299 204 331 204 "},"đ":{"ha":714,"x_min":-3,"x_max":826,"o":"m 281 -21 q 542 18 431 -21 q 584 45 574 29 q 601 100 594 61 l 728 808 l 771 808 q 801 813 793 808 q 813 839 808 818 l 824 903 q 826 924 826 919 q 820 942 826 936 q 800 947 814 947 l 753 947 l 756 965 q 757 983 757 972 q 715 1028 757 1028 l 558 1028 q 519 1019 535 1028 q 500 982 504 1010 l 494 947 l 375 947 q 347 943 354 947 q 335 919 339 939 l 324 854 l 321 832 q 346 808 321 808 l 469 808 l 456 733 q 364 743 419 743 q 140 672 222 743 q 32 453 58 600 l 6 303 q -3 221 -3 260 q 69 41 -3 103 q 281 -21 140 -21 m 299 204 q 267 214 278 204 q 257 246 257 224 q 260 272 257 253 l 289 442 q 313 500 296 481 q 364 519 329 519 q 417 514 393 519 l 365 226 q 349 211 363 217 q 299 204 331 204 "},"e":{"ha":721,"x_min":-10,"x_max":676,"o":"m 392 743 q 141 668 235 743 q 21 449 47 593 l -3 308 q -10 231 -10 264 q 61 47 -10 115 q 281 -21 132 -21 q 462 8 389 -21 q 582 100 535 36 q 603 147 603 128 q 572 189 603 171 l 472 243 q 440 254 450 254 q 425 249 432 254 q 410 233 418 243 q 383 205 397 219 q 350 182 368 190 q 306 174 332 174 q 263 188 281 174 q 246 233 246 203 q 249 257 246 240 l 254 289 q 361 285 310 285 q 591 351 506 285 q 676 529 676 418 q 604 686 676 629 q 392 743 532 743 m 332 451 q 283 453 303 451 l 288 475 q 319 537 294 514 q 385 560 343 560 q 425 549 411 560 q 439 521 439 539 q 412 469 439 486 q 332 451 385 451 "},"é":{"ha":721,"x_min":-10,"x_max":676,"o":"m 392 743 q 141 668 235 743 q 21 449 47 593 l -3 308 q -10 231 -10 264 q 61 47 -10 115 q 281 -21 132 -21 q 462 8 389 -21 q 582 100 535 36 q 603 147 603 128 q 572 189 603 171 l 472 243 q 440 254 450 254 q 425 249 432 254 q 410 233 418 243 q 383 205 397 219 q 350 182 368 190 q 306 174 332 174 q 263 188 281 174 q 246 233 246 203 q 249 257 246 240 l 254 289 q 361 285 310 285 q 591 351 506 285 q 676 529 676 418 q 604 686 676 629 q 392 743 532 743 m 332 451 q 283 453 303 451 l 288 475 q 319 537 294 514 q 385 560 343 560 q 425 549 411 560 q 439 521 439 539 q 412 469 439 486 q 332 451 385 451 m 246 856 l 279 806 q 306 790 290 790 q 339 797 315 790 l 597 879 q 622 903 622 888 q 604 939 622 918 l 546 1014 q 503 1038 528 1038 q 461 1024 486 1038 l 251 908 q 232 886 232 899 q 246 856 232 876 "},"ĕ":{"ha":721,"x_min":-10,"x_max":696,"o":"m 392 743 q 141 668 235 743 q 21 449 47 593 l -3 308 q -10 231 -10 264 q 61 47 -10 115 q 281 -21 132 -21 q 462 8 389 -21 q 582 100 535 36 q 603 147 603 128 q 572 189 603 171 l 472 243 q 440 254 450 254 q 425 249 432 254 q 410 233 418 243 q 383 205 397 219 q 350 182 368 190 q 306 174 332 174 q 263 188 281 174 q 246 233 246 203 q 249 257 246 240 l 254 289 q 361 285 310 285 q 591 351 506 285 q 676 529 676 418 q 604 686 676 629 q 392 743 532 743 m 332 451 q 283 453 303 451 l 288 475 q 319 537 294 514 q 385 560 343 560 q 425 549 411 560 q 439 521 439 539 q 412 469 439 486 q 332 451 385 451 m 426 797 q 582 831 515 797 q 688 931 649 865 q 696 956 696 946 q 665 989 696 975 l 574 1025 q 556 1032 565 1028 q 543 1036 547 1036 q 525 1028 536 1036 q 433 965 490 965 q 390 978 406 965 q 363 1014 375 990 q 338 1035 351 1035 q 315 1029 332 1035 l 222 997 q 205 988 210 993 q 200 976 200 983 q 203 961 200 972 q 279 840 222 882 q 426 797 336 797 "},"ě":{"ha":721,"x_min":-10,"x_max":708,"o":"m 392 743 q 141 668 235 743 q 21 449 47 593 l -3 308 q -10 231 -10 264 q 61 47 -10 115 q 281 -21 132 -21 q 462 8 389 -21 q 582 100 535 36 q 603 147 603 128 q 572 189 603 171 l 472 243 q 440 254 450 254 q 425 249 432 254 q 410 233 418 243 q 383 205 397 219 q 350 182 368 190 q 306 174 332 174 q 263 188 281 174 q 246 233 246 203 q 249 257 246 240 l 254 289 q 361 285 310 285 q 591 351 506 285 q 676 529 676 418 q 604 686 676 629 q 392 743 532 743 m 332 451 q 283 453 303 451 l 288 475 q 319 537 294 514 q 385 560 343 560 q 425 549 411 560 q 439 521 439 539 q 412 469 439 486 q 332 451 385 451 m 379 796 l 422 796 q 482 802 464 796 q 525 831 500 808 l 689 975 q 708 1006 708 992 q 669 1026 708 1026 l 535 1026 q 519 1026 531 1026 q 497 1023 508 1026 q 471 1003 486 1019 l 421 949 l 383 990 q 372 1005 379 994 q 352 1021 364 1015 q 313 1026 340 1026 l 196 1026 q 157 1010 157 1026 q 169 986 157 999 l 286 844 q 327 805 311 814 q 379 796 343 796 "},"ê":{"ha":721,"x_min":-10,"x_max":696,"o":"m 392 743 q 141 668 235 743 q 21 449 47 593 l -3 308 q -10 231 -10 264 q 61 47 -10 115 q 281 -21 132 -21 q 462 8 389 -21 q 582 100 535 36 q 603 147 603 128 q 572 189 603 171 l 472 243 q 440 254 450 254 q 425 249 432 254 q 410 233 418 243 q 383 205 397 219 q 350 182 368 190 q 306 174 332 174 q 263 188 281 174 q 246 233 246 203 q 249 257 246 240 l 254 289 q 361 285 310 285 q 591 351 506 285 q 676 529 676 418 q 604 686 676 629 q 392 743 532 743 m 332 451 q 283 453 303 451 l 288 475 q 319 537 294 514 q 385 560 343 560 q 425 549 411 560 q 439 521 439 539 q 412 469 439 486 q 332 451 385 451 m 183 797 l 318 797 q 333 797 322 797 q 356 801 344 797 q 382 821 367 804 l 432 875 l 469 833 q 481 819 474 829 q 501 803 489 808 q 540 797 513 797 l 657 797 q 696 814 696 797 q 683 838 696 825 l 567 979 q 526 1019 542 1010 q 474 1028 510 1028 l 431 1028 q 371 1022 389 1028 q 328 993 353 1015 l 164 849 q 144 818 144 832 q 183 797 144 797 "},"ë":{"ha":721,"x_min":-10,"x_max":693,"o":"m 392 743 q 141 668 235 743 q 21 449 47 593 l -3 308 q -10 231 -10 264 q 61 47 -10 115 q 281 -21 132 -21 q 462 8 389 -21 q 582 100 535 36 q 603 147 603 128 q 572 189 603 171 l 472 243 q 440 254 450 254 q 425 249 432 254 q 410 233 418 243 q 383 205 397 219 q 350 182 368 190 q 306 174 332 174 q 263 188 281 174 q 246 233 246 203 q 249 257 246 240 l 254 289 q 361 285 310 285 q 591 351 506 285 q 676 529 676 418 q 604 686 676 629 q 392 743 532 743 m 332 451 q 283 453 303 451 l 288 475 q 319 537 294 514 q 385 560 343 560 q 425 549 411 560 q 439 521 439 539 q 412 469 439 486 q 332 451 385 451 m 265 801 l 276 801 q 356 819 333 801 q 389 893 379 838 l 392 911 q 396 946 396 931 q 374 1001 396 983 q 303 1018 351 1018 l 292 1018 q 231 1011 251 1018 q 199 985 210 1004 q 182 928 189 967 l 179 910 q 176 875 176 897 q 197 819 176 838 q 265 801 218 801 m 565 801 l 575 801 q 653 819 632 801 q 686 893 675 838 l 689 911 q 693 946 693 931 q 671 1001 693 983 q 601 1018 649 1018 l 592 1018 q 511 1001 533 1018 q 479 928 489 983 l 476 910 q 474 876 474 885 q 495 819 474 838 q 565 801 517 801 "},"ė":{"ha":721,"x_min":-10,"x_max":676,"o":"m 392 743 q 141 668 235 743 q 21 449 47 593 l -3 308 q -10 231 -10 264 q 61 47 -10 115 q 281 -21 132 -21 q 462 8 389 -21 q 582 100 535 36 q 603 147 603 128 q 572 189 603 171 l 472 243 q 440 254 450 254 q 425 249 432 254 q 410 233 418 243 q 383 205 397 219 q 350 182 368 190 q 306 174 332 174 q 263 188 281 174 q 246 233 246 203 q 249 257 246 240 l 254 289 q 361 285 310 285 q 591 351 506 285 q 676 529 676 418 q 604 686 676 629 q 392 743 532 743 m 332 451 q 283 453 303 451 l 288 475 q 319 537 294 514 q 385 560 343 560 q 425 549 411 560 q 439 521 439 539 q 412 469 439 486 q 332 451 385 451 m 375 810 l 464 810 q 525 817 504 810 q 556 843 546 824 q 572 903 567 863 l 575 922 q 578 961 578 950 q 558 1013 578 997 q 492 1028 539 1028 l 411 1028 q 349 1021 369 1028 q 319 994 329 1014 q 303 935 310 975 l 300 918 q 296 872 296 892 q 313 824 296 839 q 375 810 331 810 "},"è":{"ha":721,"x_min":-10,"x_max":676,"o":"m 392 743 q 141 668 235 743 q 21 449 47 593 l -3 308 q -10 231 -10 264 q 61 47 -10 115 q 281 -21 132 -21 q 462 8 389 -21 q 582 100 535 36 q 603 147 603 128 q 572 189 603 171 l 472 243 q 440 254 450 254 q 425 249 432 254 q 410 233 418 243 q 383 205 397 219 q 350 182 368 190 q 306 174 332 174 q 263 188 281 174 q 246 233 246 203 q 249 257 246 240 l 254 289 q 361 285 310 285 q 591 351 506 285 q 676 529 676 418 q 604 686 676 629 q 392 743 532 743 m 332 451 q 283 453 303 451 l 288 475 q 319 537 294 514 q 385 560 343 560 q 425 549 411 560 q 439 521 439 539 q 412 469 439 486 q 332 451 385 451 m 235 885 l 465 801 q 503 792 490 792 q 528 803 517 792 l 576 849 q 592 874 592 864 q 572 899 592 886 l 399 1015 q 388 1023 396 1018 q 369 1034 381 1028 q 347 1040 358 1040 q 313 1025 329 1040 l 228 950 q 208 915 208 933 q 235 885 208 893 "},"ē":{"ha":721,"x_min":-10,"x_max":676,"o":"m 392 743 q 141 668 235 743 q 21 449 47 593 l -3 308 q -10 231 -10 264 q 61 47 -10 115 q 281 -21 132 -21 q 462 8 389 -21 q 582 100 535 36 q 603 147 603 128 q 572 189 603 171 l 472 243 q 440 254 450 254 q 425 249 432 254 q 410 233 418 243 q 383 205 397 219 q 350 182 368 190 q 306 174 332 174 q 263 188 281 174 q 246 233 246 203 q 249 257 246 240 l 254 289 q 361 285 310 285 q 591 351 506 285 q 676 529 676 418 q 604 686 676 629 q 392 743 532 743 m 332 451 q 283 453 303 451 l 288 475 q 319 537 294 514 q 385 560 343 560 q 425 549 411 560 q 439 521 439 539 q 412 469 439 486 q 332 451 385 451 m 249 828 l 588 828 q 631 835 619 828 q 647 871 642 842 l 657 928 q 660 954 660 947 q 651 978 660 971 q 621 986 642 986 l 278 986 q 238 979 249 986 q 221 944 226 972 l 211 886 q 208 861 208 867 q 218 836 208 844 q 249 828 228 828 "},"ę":{"ha":721,"x_min":-10,"x_max":676,"o":"m 315 -342 q 397 -333 358 -342 q 458 -308 435 -324 q 472 -297 468 -301 q 476 -283 476 -292 l 474 -267 l 451 -182 q 439 -172 449 -172 q 425 -176 433 -172 q 393 -186 408 -186 q 375 -167 375 -186 q 411 -83 375 -128 q 515 31 447 -37 q 582 100 564 78 q 603 147 603 128 q 572 189 603 171 l 472 243 q 440 254 450 254 q 425 249 432 254 q 410 233 418 243 q 383 205 397 219 q 350 182 368 190 q 306 174 332 174 q 262 189 279 174 q 244 236 244 204 q 246 257 244 250 l 251 293 q 361 285 322 285 q 591 351 506 285 q 676 529 676 418 q 604 686 676 629 q 392 743 532 743 q 141 668 235 743 q 21 449 47 593 l -3 308 q -10 231 -10 264 q 61 47 -10 115 q 281 -21 132 -21 l 283 -21 q 199 -131 228 -76 q 172 -231 169 -185 q 315 -342 169 -342 m 332 451 q 283 457 314 451 l 288 475 q 385 560 307 560 q 425 549 411 560 q 439 521 439 539 q 412 469 439 486 q 332 451 385 451 "},"f":{"ha":506,"x_min":31,"x_max":576,"o":"m 526 1028 l 499 1028 q 151 733 203 1028 l 149 722 l 104 722 q 68 714 78 722 q 54 678 58 706 l 35 574 q 33 557 33 568 q 45 523 33 535 q 79 511 57 511 l 111 511 l 32 61 q 31 43 31 54 q 78 0 31 0 l 233 0 q 272 8 264 0 q 286 44 281 15 l 368 511 l 453 511 q 491 519 482 511 q 506 557 500 528 l 524 661 q 525 678 525 667 q 478 722 525 722 l 406 722 q 440 792 414 767 q 507 817 467 817 q 542 825 532 817 q 557 864 551 833 l 575 965 q 576 982 576 971 q 526 1028 576 1028 "},"g":{"ha":724,"x_min":-58,"x_max":689,"o":"m 232 -322 q 472 -243 393 -322 q 578 -15 551 -164 l 688 607 q 689 625 689 614 q 676 662 689 649 q 636 690 664 675 q 534 727 599 711 q 386 743 469 743 q 141 671 225 743 q 29 444 57 599 l 8 326 q 1 249 1 281 q 67 79 1 139 q 260 19 132 19 q 333 26 303 19 l 321 -19 q 288 -84 310 -61 q 229 -107 267 -107 q 192 -96 204 -107 q 165 -62 179 -85 q 149 -41 156 -47 q 133 -35 143 -35 q 111 -40 124 -35 l -29 -100 q -58 -135 -58 -114 q -50 -164 -58 -147 q 52 -281 -14 -239 q 232 -322 118 -322 m 307 243 q 274 251 285 243 q 263 283 263 260 q 264 304 263 296 l 288 444 q 313 501 294 482 q 365 519 331 519 q 403 515 390 519 q 411 508 411 511 l 411 506 l 367 253 q 307 243 338 243 "},"ğ":{"ha":724,"x_min":-58,"x_max":699,"o":"m 232 -322 q 472 -243 393 -322 q 578 -15 551 -164 l 688 607 q 689 625 689 614 q 676 662 689 649 q 636 690 664 675 q 534 727 599 711 q 386 743 469 743 q 141 671 225 743 q 29 444 57 599 l 8 326 q 1 249 1 281 q 67 79 1 139 q 260 19 132 19 q 333 26 303 19 l 321 -19 q 288 -84 310 -61 q 229 -107 267 -107 q 192 -96 204 -107 q 165 -62 179 -85 q 149 -41 156 -47 q 133 -35 143 -35 q 111 -40 124 -35 l -29 -100 q -58 -135 -58 -114 q -50 -164 -58 -147 q 52 -281 -14 -239 q 232 -322 118 -322 m 307 243 q 274 251 285 243 q 263 283 263 260 q 264 304 263 296 l 288 444 q 313 501 294 482 q 365 519 331 519 q 403 515 390 519 q 411 508 411 511 l 411 506 l 367 253 q 307 243 338 243 m 429 797 q 585 831 518 797 q 690 931 651 865 q 699 956 699 946 q 668 989 699 975 l 576 1025 q 559 1032 568 1028 q 546 1036 550 1036 q 528 1028 539 1036 q 436 965 493 965 q 393 978 408 965 q 365 1014 378 990 q 340 1035 354 1035 q 318 1029 335 1035 l 225 997 q 208 988 213 993 q 203 976 203 983 q 206 961 203 972 q 282 840 225 882 q 429 797 339 797 "},"ĝ":{"ha":724,"x_min":-58,"x_max":699,"o":"m 232 -322 q 472 -243 393 -322 q 578 -15 551 -164 l 688 607 q 689 625 689 614 q 676 662 689 649 q 636 690 664 675 q 534 727 599 711 q 386 743 469 743 q 141 671 225 743 q 29 444 57 599 l 8 326 q 1 249 1 281 q 67 79 1 139 q 260 19 132 19 q 333 26 303 19 l 321 -19 q 288 -84 310 -61 q 229 -107 267 -107 q 192 -96 204 -107 q 165 -62 179 -85 q 149 -41 156 -47 q 133 -35 143 -35 q 111 -40 124 -35 l -29 -100 q -58 -135 -58 -114 q -50 -164 -58 -147 q 52 -281 -14 -239 q 232 -322 118 -322 m 307 243 q 274 251 285 243 q 263 283 263 260 q 264 304 263 296 l 288 444 q 313 501 294 482 q 365 519 331 519 q 403 515 390 519 q 411 508 411 511 l 411 506 l 367 253 q 307 243 338 243 m 186 797 l 321 797 q 336 797 325 797 q 358 801 347 797 q 385 821 369 804 l 435 875 l 472 833 q 484 819 476 829 q 503 803 492 808 q 543 797 515 797 l 660 797 q 699 814 699 797 q 686 838 699 825 l 569 979 q 528 1019 544 1010 q 476 1028 513 1028 l 433 1028 q 374 1022 392 1028 q 331 993 356 1015 l 167 849 q 147 818 147 832 q 186 797 147 797 "},"ģ":{"ha":724,"x_min":-58,"x_max":689,"o":"m 339 792 l 458 792 q 503 801 490 792 q 524 842 517 811 l 558 988 q 560 1001 560 993 q 549 1028 560 1018 q 521 1038 539 1038 l 438 1038 q 399 1031 410 1038 q 375 1000 388 1024 l 294 858 q 286 831 286 844 q 300 803 286 814 q 339 792 314 792 m 232 -322 q 472 -243 393 -322 q 578 -15 551 -164 l 688 607 q 689 625 689 614 q 676 662 689 649 q 636 690 664 675 q 534 727 599 711 q 386 743 469 743 q 141 671 225 743 q 29 444 57 599 l 8 326 q 1 249 1 281 q 67 79 1 139 q 260 19 132 19 q 333 26 303 19 l 321 -19 q 288 -84 310 -61 q 229 -107 267 -107 q 192 -96 204 -107 q 165 -62 179 -85 q 149 -41 156 -47 q 133 -35 143 -35 q 111 -40 124 -35 l -29 -100 q -58 -135 -58 -114 q -50 -164 -58 -147 q 52 -281 -14 -239 q 232 -322 118 -322 m 307 243 q 274 251 285 243 q 263 283 263 260 q 264 304 263 296 l 288 444 q 313 501 294 482 q 365 519 331 519 q 403 515 390 519 q 411 508 411 511 l 411 506 l 367 253 q 307 243 338 243 "},"ġ":{"ha":724,"x_min":-58,"x_max":689,"o":"m 232 -322 q 472 -243 393 -322 q 578 -15 551 -164 l 688 607 q 689 625 689 614 q 676 662 689 649 q 636 690 664 675 q 534 727 599 711 q 386 743 469 743 q 141 671 225 743 q 29 444 57 599 l 8 326 q 1 249 1 281 q 67 79 1 139 q 260 19 132 19 q 333 26 303 19 l 321 -19 q 288 -84 310 -61 q 229 -107 267 -107 q 192 -96 204 -107 q 165 -62 179 -85 q 149 -41 156 -47 q 133 -35 143 -35 q 111 -40 124 -35 l -29 -100 q -58 -135 -58 -114 q -50 -164 -58 -147 q 52 -281 -14 -239 q 232 -322 118 -322 m 307 243 q 274 251 285 243 q 263 283 263 260 q 264 304 263 296 l 288 444 q 313 501 294 482 q 365 519 331 519 q 403 515 390 519 q 411 508 411 511 l 411 506 l 367 253 q 307 243 338 243 m 378 810 l 467 810 q 528 817 507 810 q 559 843 549 824 q 575 903 569 863 l 578 922 q 581 961 581 950 q 561 1013 581 997 q 494 1028 542 1028 l 414 1028 q 352 1021 372 1028 q 322 994 332 1014 q 306 935 313 975 l 303 918 q 299 872 299 892 q 316 824 299 839 q 378 810 333 810 "},"h":{"ha":743,"x_min":-22,"x_max":693,"o":"m 17 0 l 175 0 q 218 8 206 0 q 236 44 231 17 l 317 500 q 382 511 353 511 q 418 501 407 511 q 429 469 429 492 l 426 442 l 358 61 q 356 36 356 42 q 365 9 356 18 q 394 0 374 0 l 549 0 q 594 8 579 0 q 615 44 610 17 l 685 433 q 693 524 693 482 q 447 743 693 743 q 360 738 397 743 l 400 967 q 401 985 401 974 q 356 1028 401 1028 l 206 1028 q 164 1019 179 1028 q 144 982 149 1010 l -19 61 q -22 38 -22 44 q 17 0 -22 0 "},"ħ":{"ha":743,"x_min":-24,"x_max":692,"o":"m 15 0 l 174 0 q 217 8 204 0 q 235 44 229 17 l 315 500 q 381 511 351 511 q 417 501 406 511 q 428 469 428 492 l 425 442 l 357 61 q 354 36 354 42 q 363 9 354 18 q 393 0 372 0 l 547 0 q 593 8 578 0 q 614 44 608 17 l 683 433 q 692 524 692 482 q 446 743 692 743 q 358 738 396 743 l 371 807 l 496 807 q 527 811 519 807 q 538 836 535 815 l 549 899 q 551 919 551 915 q 526 943 551 943 l 394 943 l 399 967 q 400 985 400 974 q 354 1028 400 1028 l 204 1028 q 163 1019 178 1028 q 143 982 147 1010 l 136 943 l 100 943 q 71 939 79 943 q 60 915 63 935 l 49 853 q 46 826 46 833 q 51 812 46 817 q 68 807 56 807 l 113 807 l -21 61 q -24 38 -24 44 q 15 0 -24 0 "},"ĥ":{"ha":743,"x_min":-22,"x_max":693,"o":"m 17 0 l 175 0 q 218 8 206 0 q 236 44 231 17 l 317 500 q 382 511 353 511 q 418 501 407 511 q 429 469 429 492 l 426 442 l 358 61 q 356 36 356 42 q 365 9 356 18 q 394 0 374 0 l 549 0 q 594 8 579 0 q 615 44 610 17 l 685 433 q 693 524 693 482 q 447 743 693 743 q 360 738 397 743 l 400 967 q 401 985 401 974 q 356 1028 401 1028 l 206 1028 q 164 1019 179 1028 q 144 982 149 1010 l -19 61 q -22 38 -22 44 q 17 0 -22 0 m 60 1074 l 194 1074 q 210 1074 199 1074 q 232 1077 221 1074 q 258 1097 243 1081 l 308 1151 l 346 1110 q 358 1095 350 1106 q 377 1079 365 1085 q 417 1074 389 1074 l 533 1074 q 572 1090 572 1074 q 560 1114 572 1101 l 443 1256 q 402 1295 418 1286 q 350 1304 386 1304 l 307 1304 q 247 1298 265 1304 q 204 1269 229 1292 l 40 1125 q 21 1094 21 1108 q 60 1074 21 1074 "},"i":{"ha":374,"x_min":-22,"x_max":401,"o":"m 199 810 l 288 810 q 349 817 328 810 q 380 843 369 824 q 396 903 390 863 l 399 922 q 401 961 401 950 q 382 1013 401 997 q 315 1028 363 1028 l 235 1028 q 173 1021 193 1028 q 143 994 153 1014 q 126 935 133 975 l 124 918 q 119 872 119 892 q 137 824 119 839 q 199 810 154 810 m 18 0 l 176 0 q 219 8 208 0 q 236 44 231 17 l 346 661 q 347 681 347 668 q 301 722 347 722 l 151 722 q 110 713 124 722 q 90 678 96 704 l -19 61 q -22 36 -22 42 q 18 0 -22 0 "},"ı":{"ha":374,"x_min":-21,"x_max":346,"o":"m 29 0 l 182 0 q 222 8 213 0 q 236 44 231 15 l 344 661 q 346 679 346 668 q 297 722 346 722 l 144 722 q 105 715 115 722 q 90 678 94 707 l -19 61 q -21 44 -21 56 q 29 0 -21 0 "},"í":{"ha":374,"x_min":-21,"x_max":421,"o":"m 39 840 l 82 797 q 106 786 93 786 q 146 797 117 786 l 397 893 q 421 917 421 903 q 401 949 421 929 l 322 1022 q 282 1039 304 1039 q 231 1019 263 1039 l 39 893 q 21 869 21 882 q 39 840 21 861 m 29 0 l 182 0 q 222 8 213 0 q 236 44 231 15 l 344 661 q 346 679 346 668 q 297 722 346 722 l 144 722 q 105 715 115 722 q 90 678 94 707 l -19 61 q -21 44 -21 56 q 29 0 -21 0 "},"ĭ":{"ha":374,"x_min":-21,"x_max":508,"o":"m 242 797 q 500 928 419 797 q 508 954 508 943 q 479 989 508 976 l 411 1022 q 381 1031 393 1031 q 363 1025 371 1031 q 335 1001 347 1014 q 301 975 315 983 q 265 967 286 967 q 220 973 235 967 q 196 999 206 979 q 179 1026 186 1018 q 163 1033 172 1033 q 146 1031 151 1033 l 47 997 q 30 988 35 993 q 25 975 25 983 q 28 961 25 972 q 101 838 51 879 q 242 797 150 797 m 29 0 l 182 0 q 222 8 213 0 q 236 44 231 15 l 344 661 q 346 679 346 668 q 297 722 346 722 l 144 722 q 105 715 115 722 q 90 678 94 707 l -19 61 q -21 44 -21 56 q 29 0 -21 0 "},"î":{"ha":374,"x_min":-26,"x_max":500,"o":"m 11 797 l 110 797 q 171 801 154 797 q 199 819 188 806 l 246 875 l 274 829 q 301 803 285 810 q 357 797 317 797 l 468 797 q 500 811 500 797 q 486 838 500 821 l 378 976 q 341 1013 357 1004 q 289 1022 325 1022 l 253 1022 q 187 1017 204 1022 q 144 990 169 1013 l -12 851 q -26 824 -26 838 q -17 805 -26 813 q 11 797 -7 797 m 29 0 l 182 0 q 222 8 213 0 q 236 44 231 15 l 344 661 q 346 679 346 668 q 297 722 346 722 l 144 722 q 105 715 115 722 q 90 678 94 707 l -19 61 q -21 44 -21 56 q 29 0 -21 0 "},"ï":{"ha":374,"x_min":-21,"x_max":506,"o":"m 93 801 l 103 801 q 184 819 161 801 q 215 893 207 838 l 218 911 q 221 943 221 936 q 199 1001 221 983 q 129 1018 178 1018 l 119 1018 q 40 1001 61 1018 q 10 928 18 983 l 7 910 q 4 876 4 885 q 24 819 4 838 q 93 801 44 801 m 381 801 l 390 801 q 469 819 447 801 q 500 893 492 838 l 503 911 q 506 944 506 936 q 485 1001 506 983 q 417 1018 464 1018 l 407 1018 q 325 1001 347 1018 q 294 928 303 983 l 292 910 q 289 878 289 888 q 310 820 289 839 q 381 801 332 801 m 29 0 l 182 0 q 222 8 213 0 q 236 44 231 15 l 344 661 q 346 679 346 668 q 297 722 346 722 l 144 722 q 105 715 115 722 q 90 678 94 707 l -19 61 q -21 44 -21 56 q 29 0 -21 0 "},"ì":{"ha":374,"x_min":-21,"x_max":410,"o":"m 344 793 l 393 833 q 410 863 410 850 q 393 888 410 874 l 238 1014 q 183 1042 206 1042 q 151 1029 168 1042 l 57 956 q 38 925 38 940 q 63 897 38 908 l 286 797 q 325 786 311 786 q 344 793 335 786 m 29 0 l 182 0 q 222 8 213 0 q 236 44 231 15 l 344 661 q 346 679 346 668 q 297 722 346 722 l 144 722 q 105 715 115 722 q 90 678 94 707 l -19 61 q -21 44 -21 56 q 29 0 -21 0 "},"ĳ":{"ha":750,"x_min":-22,"x_max":779,"o":"m 199 810 l 288 810 q 349 817 328 810 q 380 843 369 824 q 396 903 390 863 l 399 922 q 401 961 401 950 q 382 1013 401 997 q 315 1028 363 1028 l 235 1028 q 173 1021 193 1028 q 143 994 153 1014 q 126 935 133 975 l 124 918 q 119 872 119 892 q 137 824 119 839 q 199 810 154 810 m 18 0 l 176 0 q 219 8 208 0 q 236 44 231 17 l 346 661 q 347 681 347 668 q 301 722 347 722 l 151 722 q 110 713 124 722 q 90 678 96 704 l -19 61 q -22 36 -22 42 q 18 0 -22 0 "},"ī":{"ha":374,"x_min":-21,"x_max":431,"o":"m 121 828 l 372 828 q 400 838 390 828 q 414 868 410 847 l 428 940 q 422 972 431 960 q 392 983 414 983 l 140 983 q 99 943 106 983 l 86 871 q 92 840 83 851 q 121 828 100 828 m 29 0 l 182 0 q 222 8 213 0 q 236 44 231 15 l 344 661 q 346 679 346 668 q 297 722 346 722 l 144 722 q 105 715 115 722 q 90 678 94 707 l -19 61 q -21 44 -21 56 q 29 0 -21 0 "},"į":{"ha":374,"x_min":-94,"x_max":401,"o":"m 199 810 l 288 810 q 349 817 328 810 q 380 843 369 824 q 396 903 390 863 l 399 922 q 401 961 401 950 q 382 1013 401 997 q 315 1028 363 1028 l 235 1028 q 173 1021 193 1028 q 143 994 153 1014 q 126 935 133 975 l 124 918 q 119 872 119 892 q 137 824 119 839 q 199 810 154 810 m 49 -342 q 128 -333 90 -342 q 192 -308 167 -324 q 206 -297 201 -301 q 210 -283 210 -292 l 207 -267 l 185 -182 q 172 -172 182 -172 q 158 -176 167 -172 q 126 -186 142 -186 q 108 -167 108 -186 q 138 -98 108 -137 q 217 -6 167 -58 q 229 17 225 4 q 236 44 233 31 l 346 661 q 347 679 347 668 q 300 722 347 722 l 156 722 q 110 713 125 722 q 90 678 96 704 l -19 60 q -21 40 -21 53 q 24 -1 -21 -1 q 42 0 35 -1 q -55 -108 -15 -47 q -94 -222 -94 -168 q -60 -312 -94 -282 q 49 -342 -25 -342 "},"ĩ":{"ha":374,"x_min":-21,"x_max":456,"o":"m 61 817 l 131 817 q 146 820 142 817 q 151 831 150 824 q 188 872 157 872 q 205 867 196 872 q 222 854 214 861 q 267 827 244 838 q 325 817 289 817 q 408 850 378 817 q 454 974 439 883 q 456 992 456 981 q 431 1025 456 1025 l 365 1025 q 343 1013 344 1025 q 307 967 336 967 q 272 985 296 967 q 226 1014 249 1003 q 164 1025 203 1025 q 85 990 115 1025 q 38 865 54 956 q 36 846 36 858 q 61 817 36 817 m 29 0 l 182 0 q 222 8 213 0 q 236 44 231 15 l 344 661 q 346 679 346 668 q 297 722 346 722 l 144 722 q 105 715 115 722 q 90 678 94 707 l -19 61 q -21 44 -21 56 q 29 0 -21 0 "},"j":{"ha":376,"x_min":-194,"x_max":406,"o":"m -139 -319 q 50 -290 -24 -319 q 166 -195 124 -260 q 226 -22 208 -131 l 347 661 q 349 678 349 667 q 297 722 349 722 l 156 722 q 110 713 124 722 q 92 675 97 704 l -26 11 q -41 -47 -33 -26 q -67 -79 -49 -67 q -122 -92 -86 -92 q -158 -100 -149 -92 q -172 -139 -167 -108 l -193 -257 q -194 -274 -194 -262 q -139 -319 -194 -319 m 203 810 l 292 810 q 353 817 332 810 q 384 843 374 824 q 400 903 394 863 l 403 922 q 406 961 406 950 q 386 1013 406 997 q 319 1028 367 1028 l 239 1028 q 177 1021 197 1028 q 147 994 157 1014 q 131 935 138 975 l 128 918 q 124 872 124 892 q 141 824 124 839 q 203 810 158 810 "},"ȷ":{"ha":376,"x_min":-194,"x_max":349,"o":"m -139 -319 q 50 -290 -24 -319 q 166 -195 124 -260 q 226 -22 208 -131 l 347 661 q 349 678 349 667 q 297 722 349 722 l 156 722 q 110 713 124 722 q 92 675 97 704 l -26 11 q -41 -47 -33 -26 q -67 -79 -49 -67 q -122 -92 -86 -92 q -158 -100 -149 -92 q -172 -139 -167 -108 l -193 -257 q -194 -274 -194 -262 q -139 -319 -194 -319 "},"ĵ":{"ha":375,"x_min":-196,"x_max":500,"o":"m 11 797 l 110 797 q 171 801 154 797 q 199 819 188 806 l 246 875 l 274 829 q 301 803 285 810 q 357 797 317 797 l 468 797 q 500 811 500 797 q 486 838 500 821 l 378 976 q 341 1013 357 1004 q 289 1022 325 1022 l 253 1022 q 187 1017 204 1022 q 144 990 169 1013 l -12 851 q -26 824 -26 838 q -17 805 -26 813 q 11 797 -7 797 m -140 -319 q 49 -290 -25 -319 q 165 -195 122 -260 q 225 -22 207 -131 l 346 661 q 347 678 347 667 q 296 722 347 722 l 154 722 q 109 713 122 722 q 90 675 96 704 l -28 11 q -42 -47 -35 -26 q -69 -79 -50 -67 q -124 -92 -87 -92 q -159 -100 -150 -92 q -174 -139 -168 -108 l -194 -257 q -196 -274 -196 -262 q -140 -319 -196 -319 "},"k":{"ha":732,"x_min":-22,"x_max":746,"o":"m 22 0 l 178 0 q 219 8 208 0 q 236 46 231 17 l 274 261 l 294 261 q 322 253 313 261 q 335 224 331 246 l 367 61 q 383 13 371 26 q 431 0 394 0 l 576 0 q 621 7 608 0 q 633 32 633 14 q 629 63 633 44 l 563 321 q 539 383 556 363 l 729 646 q 746 686 746 669 q 694 722 746 722 l 553 722 q 498 716 513 722 q 465 681 483 710 l 329 472 l 325 472 l 313 472 l 400 965 q 401 986 401 972 q 357 1028 401 1028 l 207 1028 q 165 1019 181 1028 q 144 982 149 1010 l -19 63 q -22 39 -22 46 q -12 10 -22 19 q 22 0 -1 0 "},"ķ":{"ha":732,"x_min":-22,"x_max":746,"o":"m 22 0 l 178 0 q 219 8 208 0 q 236 46 231 17 l 274 261 l 294 261 q 322 253 313 261 q 335 224 331 246 l 367 61 q 383 13 371 26 q 431 0 394 0 l 576 0 q 621 7 608 0 q 633 32 633 14 q 629 63 633 44 l 563 321 q 539 383 556 363 l 729 646 q 746 686 746 669 q 694 722 746 722 l 553 722 q 498 716 513 722 q 465 681 483 710 l 329 472 l 325 472 l 313 472 l 400 965 q 401 986 401 972 q 357 1028 401 1028 l 207 1028 q 165 1019 181 1028 q 144 982 149 1010 l -19 63 q -22 39 -22 46 q -12 10 -22 19 q 22 0 -1 0 m 138 -361 l 226 -361 q 265 -354 254 -361 q 289 -324 276 -347 l 392 -133 q 399 -106 399 -117 q 385 -77 399 -87 q 347 -67 372 -67 l 222 -67 q 178 -76 190 -67 q 157 -117 167 -86 l 100 -311 q 97 -326 97 -322 q 108 -351 97 -342 q 138 -361 119 -361 "},"ĸ":{"ha":735,"x_min":-21,"x_max":751,"o":"m 32 0 l 178 0 q 219 8 210 0 q 235 47 229 17 l 258 163 l 301 206 l 351 58 q 383 13 364 25 q 451 0 403 0 l 585 0 q 626 6 614 0 q 638 25 638 11 q 629 60 638 39 l 513 407 l 735 653 q 751 692 751 674 q 701 722 751 722 l 544 722 q 480 717 497 722 q 442 683 463 711 l 315 514 l 343 660 q 344 678 344 667 q 293 722 344 722 l 147 722 q 105 714 115 722 q 89 676 94 706 l -18 64 q -21 44 -21 50 q 32 0 -18 0 "},"l":{"ha":378,"x_min":-19,"x_max":404,"o":"m 22 0 l 181 0 q 222 8 211 0 q 239 46 233 17 l 403 967 q 404 986 404 974 q 357 1028 404 1028 l 215 1028 q 168 1019 183 1028 q 147 983 153 1011 l -17 61 q -19 38 -19 44 q 22 0 -19 0 "},"ĺ":{"ha":378,"x_min":-19,"x_max":486,"o":"m 104 1118 l 147 1075 q 171 1064 158 1064 q 211 1075 182 1064 l 463 1171 q 486 1194 486 1181 q 467 1226 486 1207 l 388 1300 q 347 1317 369 1317 q 296 1297 328 1317 l 104 1171 q 86 1147 86 1160 q 104 1118 86 1139 m 22 0 l 181 0 q 222 8 211 0 q 239 46 233 17 l 403 967 q 404 986 404 974 q 357 1028 404 1028 l 215 1028 q 168 1019 183 1028 q 147 983 153 1011 l -17 61 q -19 38 -19 44 q 22 0 -19 0 "},"ľ":{"ha":469,"x_min":-19,"x_max":721,"o":"m 22 0 l 181 0 q 222 8 211 0 q 239 46 233 17 l 403 967 q 404 986 404 974 q 357 1028 404 1028 l 215 1028 q 168 1019 183 1028 q 147 983 153 1011 l -17 61 q -19 38 -19 44 q 22 0 -19 0 m 463 733 l 547 733 q 586 740 575 733 q 610 771 597 747 l 713 961 q 721 989 721 976 q 707 1017 721 1006 q 668 1028 693 1028 l 547 1028 q 503 1018 515 1028 q 482 978 492 1008 l 425 783 q 422 768 422 772 q 433 743 422 753 q 463 733 444 733 "},"ļ":{"ha":378,"x_min":-90,"x_max":404,"o":"m 22 0 l 181 0 q 222 8 211 0 q 239 46 233 17 l 403 967 q 404 986 404 974 q 357 1028 404 1028 l 215 1028 q 168 1019 183 1028 q 147 983 153 1011 l -17 61 q -19 38 -19 44 q 22 0 -19 0 m -50 -361 l 39 -361 q 78 -354 67 -361 q 101 -324 89 -347 l 204 -133 q 211 -106 211 -117 q 198 -77 211 -87 q 160 -67 185 -67 l 35 -67 q -9 -76 3 -67 q -31 -117 -21 -86 l -87 -311 q -90 -326 -90 -322 q -79 -351 -90 -342 q -50 -361 -68 -361 "},"ŀ":{"ha":665,"x_min":-19,"x_max":660,"o":"m 22 0 l 181 0 q 222 8 211 0 q 239 46 233 17 l 403 967 q 404 986 404 974 q 357 1028 404 1028 l 215 1028 q 168 1019 183 1028 q 147 983 153 1011 l -17 61 q -19 38 -19 44 q 22 0 -19 0 m 471 388 l 524 388 q 610 407 586 388 q 646 488 635 426 l 656 544 q 660 582 660 565 q 636 643 660 624 q 561 663 613 663 l 508 663 q 422 642 446 663 q 386 561 397 622 l 376 504 q 372 465 372 483 q 396 406 372 425 q 471 388 419 388 "},"ł":{"ha":496,"x_min":-12,"x_max":515,"o":"m 83 0 l 236 0 q 280 8 268 0 q 297 44 292 17 l 378 497 l 497 551 q 515 575 515 560 q 510 597 515 581 l 483 657 q 474 678 479 671 q 458 685 468 685 q 439 679 450 685 l 404 663 l 460 967 q 461 988 461 974 q 417 1028 461 1028 l 268 1028 q 224 1017 238 1028 q 204 981 210 1007 l 122 525 l 6 475 q -12 449 -12 467 q -8 428 -12 440 l 18 368 q 29 344 24 351 q 46 336 35 336 q 67 343 53 336 l 96 358 l 42 61 q 39 39 39 44 q 83 0 39 0 "},"m":{"ha":1075,"x_min":-25,"x_max":1022,"o":"m 13 0 l 183 0 q 217 10 206 0 q 233 44 229 19 l 313 489 q 325 500 315 496 q 369 510 347 510 q 397 502 389 510 q 404 475 404 494 q 401 444 404 469 l 333 61 q 331 35 331 42 q 340 8 331 17 q 369 0 349 0 l 524 0 q 569 8 554 0 q 589 44 583 17 l 657 431 l 667 488 q 724 510 694 510 q 751 501 743 510 q 760 474 760 493 q 757 444 760 467 l 689 61 q 686 35 686 42 q 695 8 686 17 q 725 0 704 0 l 881 0 q 926 8 913 0 q 946 44 940 17 l 1015 435 q 1022 511 1022 479 q 954 683 1022 622 q 756 743 886 743 q 569 704 665 743 q 499 732 543 721 q 403 743 456 743 q 251 730 322 743 q 129 694 181 717 q 92 667 101 682 q 76 617 83 653 l -22 61 q -25 36 -25 42 q -17 9 -25 18 q 13 0 -8 0 "},"n":{"ha":739,"x_min":-24,"x_max":688,"o":"m 17 0 l 175 0 q 217 8 206 0 q 235 44 229 17 l 314 488 q 317 494 314 492 q 324 499 319 497 q 379 510 343 510 q 413 501 403 510 q 424 471 424 493 q 421 442 424 453 l 353 61 q 350 36 350 42 q 359 8 350 17 q 389 0 368 0 l 546 0 q 592 10 578 0 q 610 46 606 19 l 679 435 q 688 517 688 479 q 408 743 688 743 q 261 731 338 743 q 138 697 185 718 q 96 670 107 685 q 78 615 85 656 l -21 61 q -24 36 -24 42 q -14 8 -24 17 q 17 0 -4 0 "},"ń":{"ha":739,"x_min":-24,"x_max":688,"o":"m 17 0 l 175 0 q 217 8 206 0 q 235 44 229 17 l 314 488 q 317 494 314 492 q 324 499 319 497 q 379 510 343 510 q 413 501 403 510 q 424 471 424 493 q 421 442 424 453 l 353 61 q 350 36 350 42 q 359 8 350 17 q 389 0 368 0 l 546 0 q 592 10 578 0 q 610 46 606 19 l 679 435 q 688 517 688 479 q 408 743 688 743 q 261 731 338 743 q 138 697 185 718 q 96 670 107 685 q 78 615 85 656 l -21 61 q -24 36 -24 42 q -14 8 -24 17 q 17 0 -4 0 m 254 856 l 288 806 q 314 790 299 790 q 347 797 324 790 l 606 879 q 631 903 631 888 q 613 939 631 918 l 554 1014 q 511 1038 536 1038 q 469 1024 494 1038 l 260 908 q 240 886 240 899 q 254 856 240 876 "},"ŉ":{"ha":739,"x_min":-24,"x_max":688,"o":"m 21 750 l 115 750 q 156 756 143 750 q 185 785 168 763 l 339 974 q 351 1001 351 989 q 306 1028 351 1028 l 171 1028 q 131 1019 142 1028 q 104 981 119 1010 l -4 785 q -10 767 -10 775 q -3 753 -10 757 q 21 750 4 750 m 17 0 l 175 0 q 217 8 206 0 q 235 44 229 17 l 314 488 q 317 494 314 492 q 324 499 319 497 q 379 510 343 510 q 413 501 403 510 q 424 471 424 493 q 421 442 424 453 l 353 61 q 350 36 350 42 q 359 8 350 17 q 389 0 368 0 l 546 0 q 592 10 578 0 q 610 46 606 19 l 679 435 q 688 517 688 479 q 408 743 688 743 q 261 731 338 743 q 138 697 185 718 q 96 670 107 685 q 78 615 85 656 l -21 61 q -24 36 -24 42 q -14 8 -24 17 q 17 0 -4 0 "},"ň":{"ha":739,"x_min":-24,"x_max":717,"o":"m 17 0 l 175 0 q 217 8 206 0 q 235 44 229 17 l 314 488 q 317 494 314 492 q 324 499 319 497 q 379 510 343 510 q 413 501 403 510 q 424 471 424 493 q 421 442 424 453 l 353 61 q 350 36 350 42 q 359 8 350 17 q 389 0 368 0 l 546 0 q 592 10 578 0 q 610 46 606 19 l 679 435 q 688 517 688 479 q 408 743 688 743 q 261 731 338 743 q 138 697 185 718 q 96 670 107 685 q 78 615 85 656 l -21 61 q -24 36 -24 42 q -14 8 -24 17 q 17 0 -4 0 m 388 796 l 431 796 q 490 802 472 796 q 533 831 508 808 l 697 975 q 717 1006 717 992 q 678 1026 717 1026 l 543 1026 q 528 1026 539 1026 q 506 1023 517 1026 q 479 1003 494 1019 l 429 949 l 392 990 q 380 1005 388 994 q 360 1021 372 1015 q 321 1026 349 1026 l 204 1026 q 165 1010 165 1026 q 178 986 165 999 l 294 844 q 335 805 319 814 q 388 796 351 796 "},"ņ":{"ha":739,"x_min":-24,"x_max":688,"o":"m 17 0 l 175 0 q 217 8 206 0 q 235 44 229 17 l 314 488 q 317 494 314 492 q 324 499 319 497 q 379 510 343 510 q 413 501 403 510 q 424 471 424 493 q 421 442 424 453 l 353 61 q 350 36 350 42 q 359 8 350 17 q 389 0 368 0 l 546 0 q 592 10 578 0 q 610 46 606 19 l 679 435 q 688 517 688 479 q 408 743 688 743 q 261 731 338 743 q 138 697 185 718 q 96 670 107 685 q 78 615 85 656 l -21 61 q -24 36 -24 42 q -14 8 -24 17 q 17 0 -4 0 m 140 -361 l 229 -361 q 268 -354 257 -361 q 292 -324 279 -347 l 394 -133 q 401 -106 401 -117 q 388 -77 401 -87 q 350 -67 375 -67 l 225 -67 q 181 -76 193 -67 q 160 -117 169 -86 l 103 -311 q 100 -326 100 -322 q 111 -351 100 -342 q 140 -361 122 -361 "},"ŋ":{"ha":774,"x_min":-24,"x_max":686,"o":"m 232 -321 q 486 -248 401 -321 q 600 -14 571 -175 l 679 435 q 686 513 686 469 q 614 685 686 626 q 399 743 542 743 q 257 731 329 743 q 138 697 185 718 q 96 670 107 685 q 78 615 85 656 l -21 61 q -24 36 -24 42 q -14 8 -24 17 q 17 0 -4 0 l 175 0 q 217 8 206 0 q 235 44 229 17 l 314 488 q 317 494 314 492 q 324 499 319 497 q 379 510 343 510 q 413 501 403 510 q 424 471 424 493 q 421 442 424 453 l 344 11 q 314 -69 333 -47 q 250 -92 294 -92 q 215 -100 224 -92 q 200 -139 206 -108 l 179 -258 q 178 -278 178 -265 q 190 -310 178 -300 q 232 -321 203 -321 "},"ñ":{"ha":739,"x_min":-24,"x_max":692,"o":"m 17 0 l 175 0 q 217 8 206 0 q 235 44 229 17 l 314 488 q 317 494 314 492 q 324 499 319 497 q 379 510 343 510 q 413 501 403 510 q 424 471 424 493 q 421 442 424 453 l 353 61 q 350 36 350 42 q 359 8 350 17 q 389 0 368 0 l 546 0 q 592 10 578 0 q 610 46 606 19 l 679 435 q 688 517 688 479 q 408 743 688 743 q 261 731 338 743 q 138 697 185 718 q 96 670 107 685 q 78 615 85 656 l -21 61 q -24 36 -24 42 q -14 8 -24 17 q 17 0 -4 0 m 214 813 l 300 813 q 315 817 308 813 q 322 829 321 821 q 358 869 328 869 q 382 865 371 869 q 410 850 393 860 q 467 822 440 832 q 536 813 493 813 q 636 848 600 813 q 689 971 672 883 l 692 993 q 687 1010 692 1006 q 668 1015 682 1015 l 576 1015 q 554 997 554 1015 q 544 965 553 974 q 519 957 536 957 q 494 962 507 957 q 465 978 482 967 q 406 1006 433 996 q 333 1015 378 1015 q 235 979 272 1015 q 186 856 197 943 q 185 838 185 849 q 191 818 185 824 q 214 813 197 813 "},"o":{"ha":729,"x_min":-1,"x_max":688,"o":"m 288 -21 q 535 54 443 -21 q 653 275 626 129 l 681 431 q 688 500 688 469 q 613 678 688 614 q 394 743 538 743 q 31 447 82 743 l 4 292 q -1 225 -1 260 q 72 44 -1 110 q 288 -21 146 -21 m 314 203 q 256 251 256 203 q 257 269 256 263 l 288 438 q 315 500 296 479 q 372 521 335 521 q 428 474 428 521 q 426 454 428 461 l 397 285 q 370 224 389 244 q 314 203 351 203 "},"ó":{"ha":729,"x_min":-1,"x_max":688,"o":"m 288 -21 q 535 54 443 -21 q 653 275 626 129 l 681 431 q 688 500 688 469 q 613 678 688 614 q 394 743 538 743 q 31 447 82 743 l 4 292 q -1 225 -1 260 q 72 44 -1 110 q 288 -21 146 -21 m 314 203 q 256 251 256 203 q 257 269 256 263 l 288 438 q 315 500 296 479 q 372 521 335 521 q 428 474 428 521 q 426 454 428 461 l 397 285 q 370 224 389 244 q 314 203 351 203 m 250 856 l 283 806 q 310 790 294 790 q 343 797 319 790 l 601 879 q 626 903 626 888 q 608 939 626 918 l 550 1014 q 507 1038 532 1038 q 465 1024 490 1038 l 256 908 q 236 886 236 899 q 250 856 236 876 "},"ŏ":{"ha":729,"x_min":-1,"x_max":700,"o":"m 288 -21 q 535 54 443 -21 q 653 275 626 129 l 681 431 q 688 500 688 469 q 613 678 688 614 q 394 743 538 743 q 31 447 82 743 l 4 292 q -1 225 -1 260 q 72 44 -1 110 q 288 -21 146 -21 m 314 203 q 256 251 256 203 q 257 269 256 263 l 288 438 q 315 500 296 479 q 372 521 335 521 q 428 474 428 521 q 426 454 428 461 l 397 285 q 370 224 389 244 q 314 203 351 203 m 431 797 q 586 831 519 797 q 692 931 653 865 q 700 956 700 946 q 669 989 700 975 l 578 1025 q 560 1032 569 1028 q 547 1036 551 1036 q 529 1028 540 1036 q 438 965 494 965 q 394 978 410 965 q 367 1014 379 990 q 342 1035 356 1035 q 319 1029 336 1035 l 226 997 q 209 988 214 993 q 204 976 204 983 q 207 961 204 972 q 283 840 226 882 q 431 797 340 797 "},"ô":{"ha":729,"x_min":-1,"x_max":700,"o":"m 288 -21 q 535 54 443 -21 q 653 275 626 129 l 681 431 q 688 500 688 469 q 613 678 688 614 q 394 743 538 743 q 31 447 82 743 l 4 292 q -1 225 -1 260 q 72 44 -1 110 q 288 -21 146 -21 m 314 203 q 256 251 256 203 q 257 269 256 263 l 288 438 q 315 500 296 479 q 372 521 335 521 q 428 474 428 521 q 426 454 428 461 l 397 285 q 370 224 389 244 q 314 203 351 203 m 188 797 l 322 797 q 338 797 326 797 q 360 801 349 797 q 386 821 371 804 l 436 875 l 474 833 q 485 819 478 829 q 505 803 493 808 q 544 797 517 797 l 661 797 q 700 814 700 797 q 688 838 700 825 l 571 979 q 530 1019 546 1010 q 478 1028 514 1028 l 435 1028 q 375 1022 393 1028 q 332 993 357 1015 l 168 849 q 149 818 149 832 q 188 797 149 797 "},"ö":{"ha":729,"x_min":-1,"x_max":697,"o":"m 288 -21 q 535 54 443 -21 q 653 275 626 129 l 681 431 q 688 500 688 469 q 613 678 688 614 q 394 743 538 743 q 31 447 82 743 l 4 292 q -1 225 -1 260 q 72 44 -1 110 q 288 -21 146 -21 m 314 203 q 256 251 256 203 q 257 269 256 263 l 288 438 q 315 500 296 479 q 372 521 335 521 q 428 474 428 521 q 426 454 428 461 l 397 285 q 370 224 389 244 q 314 203 351 203 m 269 801 l 281 801 q 360 819 338 801 q 393 893 383 838 l 396 911 q 400 946 400 931 q 378 1001 400 983 q 307 1018 356 1018 l 296 1018 q 235 1011 256 1018 q 203 985 214 1004 q 186 928 193 967 l 183 910 q 181 875 181 897 q 201 819 181 838 q 269 801 222 801 m 569 801 l 579 801 q 658 819 636 801 q 690 893 679 838 l 693 911 q 697 946 697 931 q 675 1001 697 983 q 606 1018 653 1018 l 596 1018 q 515 1001 538 1018 q 483 928 493 983 l 481 910 q 478 876 478 885 q 499 819 478 838 q 569 801 521 801 "},"ò":{"ha":729,"x_min":-1,"x_max":688,"o":"m 288 -21 q 535 54 443 -21 q 653 275 626 129 l 681 431 q 688 500 688 469 q 613 678 688 614 q 394 743 538 743 q 31 447 82 743 l 4 292 q -1 225 -1 260 q 72 44 -1 110 q 288 -21 146 -21 m 314 203 q 256 251 256 203 q 257 269 256 263 l 288 438 q 315 500 296 479 q 372 521 335 521 q 428 474 428 521 q 426 454 428 461 l 397 285 q 370 224 389 244 q 314 203 351 203 m 239 885 l 469 801 q 507 792 494 792 q 532 803 521 792 l 581 849 q 596 874 596 864 q 576 899 596 886 l 403 1015 q 392 1023 400 1018 q 374 1034 385 1028 q 351 1040 363 1040 q 317 1025 333 1040 l 232 950 q 213 915 213 933 q 239 885 213 893 "},"ő":{"ha":729,"x_min":-1,"x_max":788,"o":"m 288 -21 q 535 54 443 -21 q 653 275 626 129 l 681 431 q 688 500 688 469 q 613 678 688 614 q 394 743 538 743 q 31 447 82 743 l 4 292 q -1 225 -1 260 q 72 44 -1 110 q 288 -21 146 -21 m 314 203 q 256 251 256 203 q 257 269 256 263 l 288 438 q 315 500 296 479 q 372 521 335 521 q 428 474 428 521 q 426 454 428 461 l 397 285 q 370 224 389 244 q 314 203 351 203 m 186 811 l 249 797 q 272 793 261 793 q 313 810 290 793 l 493 940 q 510 968 510 956 q 467 1003 510 992 l 376 1024 q 346 1029 351 1029 q 322 1022 333 1029 q 294 997 311 1015 l 171 865 q 158 836 158 851 q 186 811 158 817 m 464 811 l 526 797 q 550 793 539 793 q 590 810 568 793 l 771 940 q 788 967 788 953 q 744 1003 788 993 l 654 1024 q 624 1029 629 1029 q 600 1022 611 1029 q 572 997 589 1015 l 449 865 q 435 838 435 849 q 464 811 435 818 "},"ō":{"ha":729,"x_min":-1,"x_max":688,"o":"m 288 -21 q 535 54 443 -21 q 653 275 626 129 l 681 431 q 688 500 688 469 q 613 678 688 614 q 394 743 538 743 q 31 447 82 743 l 4 292 q -1 225 -1 260 q 72 44 -1 110 q 288 -21 146 -21 m 314 203 q 256 251 256 203 q 257 269 256 263 l 288 438 q 315 500 296 479 q 372 521 335 521 q 428 474 428 521 q 426 454 428 461 l 397 285 q 370 224 389 244 q 314 203 351 203 m 253 828 l 592 828 q 635 835 624 828 q 651 871 646 842 l 661 928 q 664 954 664 947 q 655 978 664 971 q 625 986 646 986 l 282 986 q 242 979 253 986 q 225 944 231 972 l 215 886 q 213 861 213 867 q 222 836 213 844 q 253 828 232 828 "},"ø":{"ha":729,"x_min":-37,"x_max":728,"o":"m -15 -58 l 68 -58 q 99 -57 92 -58 q 114 -47 107 -56 l 149 1 q 286 -21 213 -21 q 535 56 442 -21 q 653 275 628 132 l 681 431 q 686 494 686 460 q 639 649 686 586 l 719 740 q 728 760 728 751 q 708 775 728 775 l 615 775 q 601 775 610 775 q 588 774 593 775 q 578 764 583 772 l 544 717 q 397 743 479 743 q 150 667 244 743 q 31 447 56 590 l 4 292 q -1 226 -1 263 q 51 67 -1 131 l -28 -24 q -37 -44 -37 -36 q -15 -58 -37 -58 m 411 518 l 268 329 l 274 361 l 288 438 q 319 499 294 476 q 382 521 343 521 q 394 521 385 521 q 411 518 404 521 m 303 203 q 285 204 292 203 l 411 369 l 407 344 l 397 285 q 366 224 390 246 q 303 203 342 203 "},"ǿ":{"ha":729,"x_min":-37,"x_max":728,"o":"m -15 -58 l 68 -58 q 99 -57 92 -58 q 114 -47 107 -56 l 149 1 q 286 -21 213 -21 q 535 56 442 -21 q 653 275 628 132 l 681 431 q 686 494 686 460 q 639 649 686 586 l 719 740 q 728 760 728 751 q 708 775 728 775 l 615 775 q 601 775 610 775 q 588 774 593 775 q 578 764 583 772 l 544 717 q 397 743 479 743 q 150 667 244 743 q 31 447 56 590 l 4 292 q -1 226 -1 263 q 51 67 -1 131 l -28 -24 q -37 -44 -37 -36 q -15 -58 -37 -58 m 411 518 l 268 329 l 274 361 l 288 438 q 319 499 294 476 q 382 521 343 521 q 394 521 385 521 q 411 518 404 521 m 303 203 q 285 204 292 203 l 411 369 l 407 344 l 397 285 q 366 224 390 246 q 303 203 342 203 m 254 856 l 288 806 q 314 790 299 790 q 347 797 324 790 l 606 879 q 631 903 631 888 q 613 939 631 918 l 554 1014 q 511 1038 536 1038 q 469 1024 494 1038 l 260 908 q 240 886 240 899 q 254 856 240 876 "},"õ":{"ha":729,"x_min":-1,"x_max":688,"o":"m 288 -21 q 535 54 443 -21 q 653 275 626 129 l 681 431 q 688 500 688 469 q 613 678 688 614 q 394 743 538 743 q 31 447 82 743 l 4 292 q -1 225 -1 260 q 72 44 -1 110 q 288 -21 146 -21 m 314 203 q 256 251 256 203 q 257 269 256 263 l 288 438 q 315 500 296 479 q 372 521 335 521 q 428 474 428 521 q 426 454 428 461 l 397 285 q 370 224 389 244 q 314 203 351 203 m 210 813 l 296 813 q 310 817 304 813 q 318 829 317 821 q 354 869 324 869 q 378 865 367 869 q 406 850 389 860 q 463 822 436 832 q 532 813 489 813 q 632 848 596 813 q 685 971 668 883 l 688 993 q 683 1010 688 1006 q 664 1015 678 1015 l 572 1015 q 550 997 550 1015 q 540 965 549 974 q 515 957 532 957 q 490 962 503 957 q 461 978 478 967 q 401 1006 429 996 q 329 1015 374 1015 q 231 979 268 1015 q 182 856 193 943 q 181 838 181 849 q 187 818 181 824 q 210 813 193 813 "},"œ":{"ha":1046,"x_min":-3,"x_max":1035,"o":"m 269 -21 q 458 40 371 -21 q 650 -21 531 -21 q 822 8 751 -21 q 940 100 893 38 q 961 147 961 128 q 931 189 961 171 l 831 243 q 799 254 808 254 q 783 249 790 254 q 768 233 776 243 q 751 214 764 229 q 720 186 738 199 q 675 174 703 174 q 614 236 614 174 q 615 257 614 249 l 621 293 q 731 285 692 285 q 954 351 874 285 q 1035 529 1035 417 q 965 686 1035 629 q 754 743 894 743 q 651 726 703 743 q 560 682 600 708 q 474 725 528 707 q 363 743 419 743 q 135 669 214 743 q 31 447 57 594 l 4 292 q -3 215 -3 247 q 65 41 -3 103 q 269 -21 133 -21 m 701 451 q 653 457 683 451 l 657 475 q 689 536 665 513 q 744 560 713 560 q 797 521 797 560 q 772 469 797 488 q 701 451 746 451 m 300 200 q 253 243 253 200 q 256 264 253 247 l 286 442 q 311 502 294 482 q 358 522 328 522 q 407 478 407 522 q 406 458 407 465 l 374 279 q 350 220 367 240 q 300 200 333 200 "},"p":{"ha":728,"x_min":-78,"x_max":685,"o":"m -39 -304 l 121 -304 q 163 -296 150 -304 q 181 -260 175 -287 l 224 -11 q 310 -21 275 -21 q 540 51 456 -21 q 650 269 624 122 l 676 419 q 685 503 685 464 q 612 682 685 621 q 396 743 539 743 q 243 732 311 743 q 133 703 175 721 q 93 675 101 689 q 78 622 85 661 l -75 -244 q -78 -268 -78 -261 q -69 -296 -78 -287 q -39 -304 -60 -304 m 308 204 q 263 208 282 204 l 315 497 q 329 513 317 507 q 382 521 347 521 q 416 511 406 521 q 426 478 426 501 l 424 450 l 393 281 q 365 220 385 236 q 308 204 344 204 "},"þ":{"ha":729,"x_min":-76,"x_max":686,"o":"m -35 -304 l 118 -304 q 164 -297 151 -304 q 182 -260 176 -289 l 225 -11 q 315 -21 271 -21 q 542 51 458 -21 q 653 279 625 122 l 679 431 q 686 500 686 472 q 614 679 686 615 q 414 743 542 743 q 358 740 378 743 l 399 965 q 400 986 400 972 q 354 1028 400 1028 l 208 1028 q 163 1018 178 1028 q 142 979 147 1008 l -74 -243 q -76 -267 -76 -260 q -67 -295 -76 -286 q -35 -304 -57 -304 m 314 204 q 264 208 290 204 l 318 511 q 341 517 324 513 q 385 521 358 521 q 428 481 428 521 q 426 461 428 468 l 394 283 q 369 224 388 243 q 314 204 351 204 "},"q":{"ha":728,"x_min":-4,"x_max":693,"o":"m 319 -304 l 479 -304 q 521 -296 508 -304 q 539 -260 533 -287 l 692 606 q 693 626 693 613 q 683 659 693 646 q 646 686 672 672 q 533 724 611 704 q 378 743 456 743 q 140 672 221 743 q 29 436 58 600 l 3 286 q -4 217 -4 244 q 63 42 -4 104 q 240 -21 131 -21 q 325 -14 290 -21 l 285 -243 q 282 -269 282 -262 q 290 -296 282 -287 q 319 -304 299 -304 m 304 204 q 267 214 279 204 q 256 246 256 224 q 257 264 256 257 l 288 443 q 313 501 294 482 q 368 521 331 521 q 407 517 390 521 q 415 508 415 515 l 414 500 l 364 214 q 304 204 332 204 "},"r":{"ha":475,"x_min":-24,"x_max":494,"o":"m 17 0 l 174 0 q 217 8 206 0 q 235 44 229 17 l 310 469 q 316 483 311 479 q 331 489 321 486 q 375 497 358 496 q 417 499 388 499 q 456 507 446 499 q 472 544 467 515 l 493 663 q 494 682 494 669 q 485 709 494 700 q 457 721 476 718 q 390 724 432 724 q 253 712 321 724 q 135 681 186 700 q 92 654 101 668 q 75 604 82 640 l -21 61 q -24 36 -24 42 q 17 0 -24 0 "},"ŕ":{"ha":475,"x_min":-24,"x_max":522,"o":"m 17 0 l 174 0 q 217 8 206 0 q 235 44 229 17 l 310 469 q 316 483 311 479 q 331 489 321 486 q 375 497 358 496 q 417 499 388 499 q 456 507 446 499 q 472 544 467 515 l 493 663 q 494 682 494 669 q 485 709 494 700 q 457 721 476 718 q 390 724 432 724 q 253 712 321 724 q 135 681 186 700 q 92 654 101 668 q 75 604 82 640 l -21 61 q -24 36 -24 42 q 17 0 -24 0 m 146 856 l 179 806 q 206 790 190 790 q 239 797 215 790 l 497 879 q 522 903 522 888 q 504 939 522 918 l 446 1014 q 403 1038 428 1038 q 361 1024 386 1038 l 151 908 q 132 886 132 899 q 146 856 132 876 "},"ř":{"ha":475,"x_min":-24,"x_max":608,"o":"m 17 0 l 174 0 q 217 8 206 0 q 235 44 229 17 l 310 469 q 316 483 311 479 q 331 489 321 486 q 375 497 358 496 q 417 499 388 499 q 456 507 446 499 q 472 544 467 515 l 493 663 q 494 682 494 669 q 485 709 494 700 q 457 721 476 718 q 390 724 432 724 q 253 712 321 724 q 135 681 186 700 q 92 654 101 668 q 75 604 82 640 l -21 61 q -24 36 -24 42 q 17 0 -24 0 m 279 796 l 322 796 q 382 802 364 796 q 425 831 400 808 l 589 975 q 608 1006 608 992 q 569 1026 608 1026 l 435 1026 q 419 1026 431 1026 q 397 1023 408 1026 q 371 1003 386 1019 l 321 949 l 283 990 q 272 1005 279 994 q 252 1021 264 1015 q 213 1026 240 1026 l 96 1026 q 57 1010 57 1026 q 69 986 57 999 l 186 844 q 227 805 211 814 q 279 796 243 796 "},"ŗ":{"ha":475,"x_min":-79,"x_max":494,"o":"m 17 0 l 174 0 q 217 8 206 0 q 235 44 229 17 l 310 469 q 316 483 311 479 q 331 489 321 486 q 375 497 358 496 q 417 499 388 499 q 456 507 446 499 q 472 544 467 515 l 493 663 q 494 682 494 669 q 485 709 494 700 q 457 721 476 718 q 390 724 432 724 q 253 712 321 724 q 135 681 186 700 q 92 654 101 668 q 75 604 82 640 l -21 61 q -24 36 -24 42 q 17 0 -24 0 m -39 -361 l 50 -361 q 89 -354 78 -361 q 113 -324 100 -347 l 215 -133 q 222 -106 222 -117 q 209 -77 222 -87 q 171 -67 196 -67 l 46 -67 q 2 -76 14 -67 q -19 -117 -10 -86 l -76 -311 q -79 -326 -79 -322 q -68 -351 -79 -342 q -39 -361 -57 -361 "},"s":{"ha":682,"x_min":-24,"x_max":635,"o":"m 278 -21 q 522 47 432 -21 q 611 247 611 114 q 551 381 611 329 q 346 444 490 433 q 265 486 265 451 q 344 532 265 532 q 425 494 407 532 q 458 471 436 471 q 483 475 469 471 l 603 513 q 628 526 621 518 q 635 546 635 533 q 629 575 635 550 q 539 698 610 653 q 347 743 468 743 q 117 677 201 743 q 32 492 32 611 q 93 349 32 399 q 272 285 154 299 q 351 270 326 279 q 375 239 375 261 q 353 201 375 211 q 282 190 331 190 q 222 202 244 190 q 188 240 199 214 q 157 264 178 264 q 131 258 150 264 l 13 218 q -24 175 -24 206 q -21 160 -24 171 q 79 26 1 72 q 278 -21 157 -21 "},"ś":{"ha":682,"x_min":-24,"x_max":635,"o":"m 278 -21 q 522 47 432 -21 q 611 247 611 114 q 551 381 611 329 q 346 444 490 433 q 265 486 265 451 q 344 532 265 532 q 425 494 407 532 q 458 471 436 471 q 483 475 469 471 l 603 513 q 628 526 621 518 q 635 546 635 533 q 629 575 635 550 q 539 698 610 653 q 347 743 468 743 q 117 677 201 743 q 32 492 32 611 q 93 349 32 399 q 272 285 154 299 q 351 270 326 279 q 375 239 375 261 q 353 201 375 211 q 282 190 331 190 q 222 202 244 190 q 188 240 199 214 q 157 264 178 264 q 131 258 150 264 l 13 218 q -24 175 -24 206 q -21 160 -24 171 q 79 26 1 72 q 278 -21 157 -21 m 211 856 l 244 806 q 271 790 256 790 q 304 797 281 790 l 563 879 q 588 903 588 888 q 569 939 588 918 l 511 1014 q 468 1038 493 1038 q 426 1024 451 1038 l 217 908 q 197 886 197 899 q 211 856 197 876 "},"š":{"ha":682,"x_min":-24,"x_max":674,"o":"m 278 -21 q 522 47 432 -21 q 611 247 611 114 q 551 381 611 329 q 346 444 490 433 q 265 486 265 451 q 344 532 265 532 q 425 494 407 532 q 458 471 436 471 q 483 475 469 471 l 603 513 q 628 526 621 518 q 635 546 635 533 q 629 575 635 550 q 539 698 610 653 q 347 743 468 743 q 117 677 201 743 q 32 492 32 611 q 93 349 32 399 q 272 285 154 299 q 351 270 326 279 q 375 239 375 261 q 353 201 375 211 q 282 190 331 190 q 222 202 244 190 q 188 240 199 214 q 157 264 178 264 q 131 258 150 264 l 13 218 q -24 175 -24 206 q -21 160 -24 171 q 79 26 1 72 q 278 -21 157 -21 m 344 796 l 388 796 q 447 802 429 796 q 490 831 465 808 l 654 975 q 674 1006 674 992 q 635 1026 674 1026 l 500 1026 q 485 1026 496 1026 q 463 1023 474 1026 q 436 1003 451 1019 l 386 949 l 349 990 q 337 1005 344 994 q 317 1021 329 1015 q 278 1026 306 1026 l 161 1026 q 122 1010 122 1026 q 135 986 122 999 l 251 844 q 292 805 276 814 q 344 796 308 796 "},"ş":{"ha":682,"x_min":-24,"x_max":635,"o":"m 192 -340 q 356 -300 294 -340 q 418 -171 418 -260 q 397 -103 418 -131 q 336 -69 375 -76 q 300 -67 314 -67 l 335 -18 q 538 60 464 -6 q 611 247 611 126 q 551 381 611 329 q 346 444 490 433 q 265 486 265 451 q 344 532 265 532 q 425 494 407 532 q 458 471 436 471 q 483 475 469 471 l 603 513 q 628 526 621 518 q 635 546 635 533 q 629 575 635 550 q 539 698 610 653 q 347 743 468 743 q 117 677 201 743 q 32 492 32 611 q 93 349 32 399 q 272 285 154 299 q 351 270 326 279 q 375 239 375 261 q 353 201 375 211 q 282 190 331 190 q 222 202 244 190 q 188 240 199 214 q 157 264 178 264 q 131 258 150 264 l 13 218 q -24 175 -24 206 q -21 160 -24 171 q 55 42 -3 86 q 201 -15 113 -3 l 136 -112 q 126 -140 126 -126 q 131 -154 126 -149 q 144 -160 136 -160 l 196 -158 q 229 -165 221 -158 q 238 -183 238 -171 q 220 -213 238 -204 q 169 -222 203 -222 q 88 -203 131 -222 q 76 -199 82 -199 q 64 -215 67 -199 l 51 -282 q 60 -307 47 -299 q 192 -340 118 -340 "},"ŝ":{"ha":682,"x_min":-24,"x_max":661,"o":"m 278 -21 q 522 47 432 -21 q 611 247 611 114 q 551 381 611 329 q 346 444 490 433 q 265 486 265 451 q 344 532 265 532 q 425 494 407 532 q 458 471 436 471 q 483 475 469 471 l 603 513 q 628 526 621 518 q 635 546 635 533 q 629 575 635 550 q 539 698 610 653 q 347 743 468 743 q 117 677 201 743 q 32 492 32 611 q 93 349 32 399 q 272 285 154 299 q 351 270 326 279 q 375 239 375 261 q 353 201 375 211 q 282 190 331 190 q 222 202 244 190 q 188 240 199 214 q 157 264 178 264 q 131 258 150 264 l 13 218 q -24 175 -24 206 q -21 160 -24 171 q 79 26 1 72 q 278 -21 157 -21 m 149 797 l 283 797 q 299 797 288 797 q 321 801 310 797 q 347 821 332 804 l 397 875 l 435 833 q 447 819 439 829 q 466 803 454 808 q 506 797 478 797 l 622 797 q 661 814 661 797 q 649 838 661 825 l 532 979 q 491 1019 507 1010 q 439 1028 475 1028 l 396 1028 q 336 1022 354 1028 q 293 993 318 1015 l 129 849 q 110 818 110 832 q 149 797 110 797 "},"ș":{"ha":682,"x_min":-24,"x_max":635,"o":"m 278 -21 q 522 47 432 -21 q 611 247 611 114 q 551 381 611 329 q 346 444 490 433 q 265 486 265 451 q 344 532 265 532 q 425 494 407 532 q 458 471 436 471 q 483 475 469 471 l 603 513 q 628 526 621 518 q 635 546 635 533 q 629 575 635 550 q 539 698 610 653 q 347 743 468 743 q 117 677 201 743 q 32 492 32 611 q 93 349 32 399 q 272 285 154 299 q 351 270 326 279 q 375 239 375 261 q 353 201 375 211 q 282 190 331 190 q 222 202 244 190 q 188 240 199 214 q 157 264 178 264 q 131 258 150 264 l 13 218 q -24 175 -24 206 q -21 160 -24 171 q 79 26 1 72 q 278 -21 157 -21 m 113 -361 l 201 -361 q 240 -354 229 -361 q 264 -324 251 -347 l 367 -133 q 374 -106 374 -117 q 360 -77 374 -87 q 322 -67 347 -67 l 197 -67 q 153 -76 165 -67 q 132 -117 142 -86 l 75 -311 q 72 -326 72 -322 q 83 -351 72 -342 q 113 -361 94 -361 "},"ß":{"ha":801,"x_min":-18,"x_max":781,"o":"m 35 0 l 176 0 q 222 9 210 0 q 239 50 233 18 l 356 711 q 385 775 363 751 q 449 799 408 799 q 488 784 474 799 q 503 744 503 769 q 460 657 503 683 q 417 646 442 646 q 385 636 394 646 q 371 596 376 626 l 350 474 q 347 444 347 451 q 358 417 347 426 q 393 408 368 408 q 429 403 414 408 q 467 349 467 389 q 453 291 467 315 q 413 254 439 267 q 360 243 390 243 q 316 235 326 243 q 300 193 306 226 l 278 67 q 276 49 276 60 q 329 0 276 0 l 386 0 q 647 92 556 0 q 739 351 739 185 q 635 538 739 488 l 636 542 q 743 650 706 583 q 781 803 781 717 q 703 978 781 914 q 479 1042 626 1042 q 225 963 324 1042 q 101 740 126 883 l -17 67 q -18 49 -18 61 q -5 13 -18 26 q 35 0 8 0 "},"ſ":{"ha":446,"x_min":32,"x_max":581,"o":"m 86 0 l 233 0 q 277 8 265 0 q 294 44 289 17 l 413 714 q 510 817 432 817 q 546 825 536 817 q 561 864 556 833 l 579 965 q 581 982 581 971 q 522 1028 581 1028 q 274 959 361 1028 q 161 735 188 890 l 158 722 l 107 722 q 67 715 78 722 q 53 678 57 707 l 33 574 q 32 557 32 568 q 82 511 32 511 l 121 511 l 42 61 q 40 40 40 54 q 51 10 40 19 q 86 0 61 0 "},"t":{"ha":513,"x_min":22,"x_max":515,"o":"m 353 0 q 391 10 381 0 q 407 49 401 19 l 428 169 q 429 190 429 178 q 418 221 429 211 q 378 231 407 231 q 338 240 350 231 q 326 275 326 249 q 332 319 326 283 l 367 511 l 442 511 q 481 520 471 511 q 496 557 490 529 l 514 661 q 515 679 515 668 q 467 722 515 722 l 404 722 l 422 828 q 424 847 424 835 q 378 889 424 889 l 232 889 q 186 881 201 889 q 167 844 171 872 l 144 722 l 99 722 q 61 713 75 722 q 43 678 47 704 l 24 574 q 22 558 22 568 q 75 511 22 511 l 107 511 l 75 326 q 65 229 65 265 q 135 56 65 111 q 353 0 206 0 "},"ŧ":{"ha":513,"x_min":1,"x_max":515,"o":"m 351 0 q 390 9 379 0 q 407 49 401 18 l 428 168 q 429 188 429 175 q 417 220 429 210 q 375 231 404 231 q 333 240 344 231 q 321 265 321 249 q 322 281 321 275 l 329 314 l 394 314 q 424 318 417 314 q 436 343 432 322 l 447 407 q 449 425 449 414 q 443 445 449 439 q 422 451 438 451 l 356 451 l 367 511 l 436 511 q 479 519 468 511 q 496 557 490 528 l 514 661 q 515 679 515 668 q 467 722 515 722 l 404 722 l 422 828 q 424 844 424 833 q 374 889 424 889 l 235 889 q 187 881 201 889 q 167 844 172 872 l 144 722 l 107 722 q 61 714 75 722 q 43 678 47 706 l 24 574 q 22 558 22 568 q 75 511 22 511 l 107 511 l 96 451 l 54 451 q 26 447 33 451 q 15 424 18 443 l 4 360 q 1 339 1 343 q 28 314 1 314 l 72 314 l 67 285 q 60 215 60 243 q 133 55 60 110 q 351 0 206 0 "},"ť":{"ha":517,"x_min":22,"x_max":756,"o":"m 504 771 l 589 771 q 627 778 615 771 q 651 808 639 785 l 747 985 q 756 1013 756 1000 q 742 1040 756 1029 q 703 1051 728 1051 l 582 1051 q 538 1042 550 1051 q 517 1001 525 1032 l 467 821 q 464 806 464 810 q 475 781 464 790 q 504 771 486 771 m 353 0 q 391 10 381 0 q 407 49 401 19 l 428 169 q 429 190 429 178 q 418 221 429 211 q 378 231 407 231 q 338 240 350 231 q 326 275 326 249 q 332 319 326 283 l 367 511 l 442 511 q 481 520 471 511 q 496 557 490 529 l 514 661 q 515 679 515 668 q 467 722 515 722 l 404 722 l 422 828 q 424 847 424 835 q 378 889 424 889 l 232 889 q 186 881 201 889 q 167 844 171 872 l 144 722 l 99 722 q 61 713 75 722 q 43 678 47 704 l 24 574 q 22 558 22 568 q 75 511 22 511 l 107 511 l 75 326 q 65 229 65 265 q 135 56 65 111 q 353 0 206 0 "},"ţ":{"ha":513,"x_min":22,"x_max":515,"o":"m 467 722 l 404 722 l 422 828 q 424 847 424 835 q 378 889 424 889 l 232 889 q 186 881 201 889 q 167 844 171 872 l 144 722 l 99 722 q 61 713 75 722 q 43 678 47 704 l 24 574 q 22 558 22 568 q 75 511 22 511 l 107 511 l 75 326 q 67 231 67 275 q 102 93 67 144 q 211 18 138 42 l 124 -112 q 113 -140 113 -128 q 118 -154 113 -149 q 132 -160 124 -160 l 183 -158 q 217 -165 208 -158 q 225 -183 225 -171 q 208 -213 225 -204 q 157 -222 190 -222 q 75 -203 118 -222 q 64 -199 69 -199 q 51 -215 54 -199 l 39 -282 q 47 -307 35 -299 q 179 -340 106 -340 q 344 -300 282 -340 q 406 -171 406 -260 q 384 -103 406 -131 q 324 -69 363 -76 q 288 -67 301 -67 l 336 0 l 335 0 l 353 0 q 391 10 381 0 q 407 49 401 19 l 428 169 q 429 190 429 178 q 418 221 429 211 q 378 231 407 231 q 338 240 350 231 q 326 275 326 249 q 332 319 326 283 l 367 511 l 442 511 q 481 520 471 511 q 496 557 490 529 l 514 661 q 515 679 515 668 q 467 722 515 722 "},"ț":{"ha":513,"x_min":22,"x_max":515,"o":"m 353 0 q 391 10 381 0 q 407 49 401 19 l 428 169 q 429 190 429 178 q 418 221 429 211 q 378 231 407 231 q 338 240 350 231 q 326 275 326 249 q 332 319 326 283 l 367 511 l 442 511 q 481 520 471 511 q 496 557 490 529 l 514 661 q 515 679 515 668 q 467 722 515 722 l 404 722 l 422 828 q 424 847 424 835 q 378 889 424 889 l 232 889 q 186 881 201 889 q 167 844 171 872 l 144 722 l 99 722 q 61 713 75 722 q 43 678 47 704 l 24 574 q 22 558 22 568 q 75 511 22 511 l 107 511 l 75 326 q 65 229 65 265 q 135 56 65 111 q 353 0 206 0 m 86 -361 l 175 -361 q 214 -354 203 -361 q 238 -324 225 -347 l 340 -133 q 347 -106 347 -117 q 334 -77 347 -87 q 296 -67 321 -67 l 171 -67 q 127 -76 139 -67 q 106 -117 115 -86 l 49 -311 q 46 -326 46 -322 q 57 -351 46 -342 q 86 -361 68 -361 "},"u":{"ha":739,"x_min":8,"x_max":718,"o":"m 288 -21 q 438 -9 374 -21 q 557 25 501 3 q 600 54 589 38 q 617 106 611 71 l 715 661 q 718 686 718 681 q 710 713 718 704 q 681 722 701 722 l 511 722 q 475 712 486 722 q 460 678 464 701 l 382 242 q 379 231 381 233 q 374 225 378 228 q 347 217 364 221 q 315 213 331 213 q 281 221 292 213 q 271 251 271 229 q 274 281 271 269 l 342 661 q 344 688 344 681 q 335 714 344 706 q 306 722 326 722 l 150 722 q 105 713 121 722 q 85 678 89 704 l 15 288 q 8 213 8 243 q 79 40 8 100 q 288 -21 150 -21 "},"ú":{"ha":739,"x_min":8,"x_max":718,"o":"m 288 -21 q 438 -9 374 -21 q 557 25 501 3 q 600 54 589 38 q 617 106 611 71 l 715 661 q 718 686 718 681 q 710 713 718 704 q 681 722 701 722 l 511 722 q 475 712 486 722 q 460 678 464 701 l 382 242 q 379 231 381 233 q 374 225 378 228 q 347 217 364 221 q 315 213 331 213 q 281 221 292 213 q 271 251 271 229 q 274 281 271 269 l 342 661 q 344 688 344 681 q 335 714 344 706 q 306 722 326 722 l 150 722 q 105 713 121 722 q 85 678 89 704 l 15 288 q 8 213 8 243 q 79 40 8 100 q 288 -21 150 -21 m 254 856 l 288 806 q 314 790 299 790 q 347 797 324 790 l 606 879 q 631 903 631 888 q 613 939 631 918 l 554 1014 q 511 1038 536 1038 q 469 1024 494 1038 l 260 908 q 240 886 240 899 q 254 856 240 876 "},"ŭ":{"ha":739,"x_min":8,"x_max":718,"o":"m 288 -21 q 438 -9 374 -21 q 557 25 501 3 q 600 54 589 38 q 617 106 611 71 l 715 661 q 718 686 718 681 q 710 713 718 704 q 681 722 701 722 l 511 722 q 475 712 486 722 q 460 678 464 701 l 382 242 q 379 231 381 233 q 374 225 378 228 q 347 217 364 221 q 315 213 331 213 q 281 221 292 213 q 271 251 271 229 q 274 281 271 269 l 342 661 q 344 688 344 681 q 335 714 344 706 q 306 722 326 722 l 150 722 q 105 713 121 722 q 85 678 89 704 l 15 288 q 8 213 8 243 q 79 40 8 100 q 288 -21 150 -21 m 435 797 q 590 831 524 797 q 696 931 657 865 q 704 956 704 946 q 674 989 704 975 l 582 1025 q 565 1032 574 1028 q 551 1036 556 1036 q 533 1028 544 1036 q 442 965 499 965 q 399 978 414 965 q 371 1014 383 990 q 346 1035 360 1035 q 324 1029 340 1035 l 231 997 q 213 988 218 993 q 208 976 208 983 q 211 961 208 972 q 288 840 231 882 q 435 797 344 797 "},"û":{"ha":739,"x_min":8,"x_max":718,"o":"m 288 -21 q 438 -9 374 -21 q 557 25 501 3 q 600 54 589 38 q 617 106 611 71 l 715 661 q 718 686 718 681 q 710 713 718 704 q 681 722 701 722 l 511 722 q 475 712 486 722 q 460 678 464 701 l 382 242 q 379 231 381 233 q 374 225 378 228 q 347 217 364 221 q 315 213 331 213 q 281 221 292 213 q 271 251 271 229 q 274 281 271 269 l 342 661 q 344 688 344 681 q 335 714 344 706 q 306 722 326 722 l 150 722 q 105 713 121 722 q 85 678 89 704 l 15 288 q 8 213 8 243 q 79 40 8 100 q 288 -21 150 -21 m 192 797 l 326 797 q 342 797 331 797 q 364 801 353 797 q 390 821 375 804 l 440 875 l 478 833 q 490 819 482 829 q 509 803 497 808 q 549 797 521 797 l 665 797 q 704 814 704 797 q 692 838 704 825 l 575 979 q 534 1019 550 1010 q 482 1028 518 1028 l 439 1028 q 379 1022 397 1028 q 336 993 361 1015 l 172 849 q 153 818 153 832 q 192 797 153 797 "},"ü":{"ha":739,"x_min":8,"x_max":718,"o":"m 288 -21 q 438 -9 374 -21 q 557 25 501 3 q 600 54 589 38 q 617 106 611 71 l 715 661 q 718 686 718 681 q 710 713 718 704 q 681 722 701 722 l 511 722 q 475 712 486 722 q 460 678 464 701 l 382 242 q 379 231 381 233 q 374 225 378 228 q 347 217 364 221 q 315 213 331 213 q 281 221 292 213 q 271 251 271 229 q 274 281 271 269 l 342 661 q 344 688 344 681 q 335 714 344 706 q 306 722 326 722 l 150 722 q 105 713 121 722 q 85 678 89 704 l 15 288 q 8 213 8 243 q 79 40 8 100 q 288 -21 150 -21 m 274 801 l 285 801 q 365 819 342 801 q 397 893 388 838 l 400 911 q 404 946 404 931 q 382 1001 404 983 q 311 1018 360 1018 l 300 1018 q 239 1011 260 1018 q 208 985 218 1004 q 190 928 197 967 l 188 910 q 185 875 185 897 q 206 819 185 838 q 274 801 226 801 m 574 801 l 583 801 q 662 819 640 801 q 694 893 683 838 l 697 911 q 701 946 701 931 q 679 1001 701 983 q 610 1018 657 1018 l 600 1018 q 519 1001 542 1018 q 488 928 497 983 l 485 910 q 482 876 482 885 q 503 819 482 838 q 574 801 525 801 "},"ù":{"ha":739,"x_min":8,"x_max":718,"o":"m 288 -21 q 438 -9 374 -21 q 557 25 501 3 q 600 54 589 38 q 617 106 611 71 l 715 661 q 718 686 718 681 q 710 713 718 704 q 681 722 701 722 l 511 722 q 475 712 486 722 q 460 678 464 701 l 382 242 q 379 231 381 233 q 374 225 378 228 q 347 217 364 221 q 315 213 331 213 q 281 221 292 213 q 271 251 271 229 q 274 281 271 269 l 342 661 q 344 688 344 681 q 335 714 344 706 q 306 722 326 722 l 150 722 q 105 713 121 722 q 85 678 89 704 l 15 288 q 8 213 8 243 q 79 40 8 100 q 288 -21 150 -21 m 243 885 l 474 801 q 511 792 499 792 q 536 803 525 792 l 585 849 q 600 874 600 864 q 581 899 600 886 l 407 1015 q 397 1023 404 1018 q 378 1034 389 1028 q 356 1040 367 1040 q 321 1025 338 1040 l 236 950 q 217 915 217 933 q 243 885 217 893 "},"ű":{"ha":739,"x_min":8,"x_max":792,"o":"m 288 -21 q 438 -9 374 -21 q 557 25 501 3 q 600 54 589 38 q 617 106 611 71 l 715 661 q 718 686 718 681 q 710 713 718 704 q 681 722 701 722 l 511 722 q 475 712 486 722 q 460 678 464 701 l 382 242 q 379 231 381 233 q 374 225 378 228 q 347 217 364 221 q 315 213 331 213 q 281 221 292 213 q 271 251 271 229 q 274 281 271 269 l 342 661 q 344 688 344 681 q 335 714 344 706 q 306 722 326 722 l 150 722 q 105 713 121 722 q 85 678 89 704 l 15 288 q 8 213 8 243 q 79 40 8 100 q 288 -21 150 -21 m 190 811 l 253 797 q 276 793 265 793 q 317 810 294 793 l 497 940 q 514 968 514 956 q 471 1003 514 992 l 381 1024 q 350 1029 356 1029 q 326 1022 338 1029 q 299 997 315 1015 l 175 865 q 163 836 163 851 q 190 811 163 817 m 468 811 l 531 797 q 554 793 543 793 q 594 810 572 793 l 775 940 q 792 967 792 953 q 749 1003 792 993 l 658 1024 q 628 1029 633 1029 q 604 1022 615 1029 q 576 997 593 1015 l 453 865 q 439 838 439 849 q 468 811 439 818 "},"ū":{"ha":739,"x_min":8,"x_max":718,"o":"m 288 -21 q 438 -9 374 -21 q 557 25 501 3 q 600 54 589 38 q 617 106 611 71 l 715 661 q 718 686 718 681 q 710 713 718 704 q 681 722 701 722 l 511 722 q 475 712 486 722 q 460 678 464 701 l 382 242 q 379 231 381 233 q 374 225 378 228 q 347 217 364 221 q 315 213 331 213 q 281 221 292 213 q 271 251 271 229 q 274 281 271 269 l 342 661 q 344 688 344 681 q 335 714 344 706 q 306 722 326 722 l 150 722 q 105 713 121 722 q 85 678 89 704 l 15 288 q 8 213 8 243 q 79 40 8 100 q 288 -21 150 -21 m 257 828 l 596 828 q 639 835 628 828 q 656 871 650 842 l 665 928 q 668 954 668 947 q 659 978 668 971 q 629 986 650 986 l 286 986 q 246 979 257 986 q 229 944 235 972 l 219 886 q 217 861 217 867 q 226 836 217 844 q 257 828 236 828 "},"ų":{"ha":739,"x_min":8,"x_max":717,"o":"m 397 -342 q 478 -333 440 -342 q 540 -308 517 -324 q 554 -297 550 -301 q 558 -283 558 -292 l 556 -267 l 533 -182 q 521 -172 531 -172 q 507 -176 515 -172 q 475 -186 490 -186 q 457 -167 457 -186 q 483 -103 457 -140 q 558 -7 510 -65 l 589 31 q 606 62 600 44 q 617 106 611 79 l 714 661 q 717 688 717 681 q 681 722 717 722 l 522 722 q 478 714 492 722 q 460 678 465 706 l 382 239 q 374 226 381 229 q 367 222 368 222 q 315 213 347 213 q 281 221 292 213 q 271 251 271 229 q 274 281 271 269 l 340 661 q 343 689 343 681 q 335 714 343 706 q 307 722 326 722 l 151 722 q 104 714 119 722 q 85 678 89 706 l 15 288 q 8 215 8 246 q 76 42 8 104 q 274 -21 144 -21 q 383 -8 346 -21 q 287 -121 319 -64 q 254 -228 254 -178 q 397 -342 254 -342 "},"ů":{"ha":739,"x_min":8,"x_max":718,"o":"m 288 -21 q 438 -9 374 -21 q 557 25 501 3 q 600 54 589 38 q 617 106 611 71 l 715 661 q 718 686 718 681 q 710 713 718 704 q 681 722 701 722 l 511 722 q 475 712 486 722 q 460 678 464 701 l 382 242 q 379 231 381 233 q 374 225 378 228 q 347 217 364 221 q 315 213 331 213 q 281 221 292 213 q 271 251 271 229 q 274 281 271 269 l 342 661 q 344 688 344 681 q 335 714 344 706 q 306 722 326 722 l 150 722 q 105 713 121 722 q 85 678 89 704 l 15 288 q 8 213 8 243 q 79 40 8 100 q 288 -21 150 -21 m 431 754 q 569 802 515 754 q 622 932 622 850 q 578 1038 622 999 q 460 1078 533 1078 q 319 1029 374 1078 q 265 896 265 981 q 310 792 265 831 q 431 754 356 754 m 433 864 q 399 875 411 864 q 386 906 386 886 q 406 950 386 933 q 454 967 425 967 q 488 956 475 967 q 500 924 500 944 q 481 880 500 896 q 433 864 463 864 "},"ũ":{"ha":739,"x_min":8,"x_max":718,"o":"m 288 -21 q 438 -9 374 -21 q 557 25 501 3 q 600 54 589 38 q 617 106 611 71 l 715 661 q 718 686 718 681 q 710 713 718 704 q 681 722 701 722 l 511 722 q 475 712 486 722 q 460 678 464 701 l 382 242 q 379 231 381 233 q 374 225 378 228 q 347 217 364 221 q 315 213 331 213 q 281 221 292 213 q 271 251 271 229 q 274 281 271 269 l 342 661 q 344 688 344 681 q 335 714 344 706 q 306 722 326 722 l 150 722 q 105 713 121 722 q 85 678 89 704 l 15 288 q 8 213 8 243 q 79 40 8 100 q 288 -21 150 -21 m 214 813 l 300 813 q 315 817 308 813 q 322 829 321 821 q 358 869 328 869 q 382 865 371 869 q 410 850 393 860 q 467 822 440 832 q 536 813 493 813 q 636 848 600 813 q 689 971 672 883 l 692 993 q 687 1010 692 1006 q 668 1015 682 1015 l 576 1015 q 554 997 554 1015 q 544 965 553 974 q 519 957 536 957 q 494 962 507 957 q 465 978 482 967 q 406 1006 433 996 q 333 1015 378 1015 q 235 979 272 1015 q 186 856 197 943 q 185 838 185 849 q 191 818 185 824 q 214 813 197 813 "},"v":{"ha":728,"x_min":46,"x_max":754,"o":"m 193 0 l 353 0 q 401 7 386 0 q 431 39 417 14 l 742 650 q 754 693 754 678 q 710 722 754 722 l 557 722 q 499 715 513 722 q 474 676 486 708 l 376 438 q 349 344 361 400 q 329 243 336 288 l 317 243 q 324 375 324 308 q 322 419 324 406 l 308 661 q 295 709 307 696 q 244 722 283 722 l 99 722 q 57 715 68 722 q 46 688 46 708 q 47 665 46 674 l 136 56 q 151 13 139 26 q 193 0 164 0 "},"w":{"ha":1026,"x_min":49,"x_max":1049,"o":"m 157 0 l 297 0 q 342 6 328 0 q 365 39 356 13 l 436 225 q 471 331 454 272 q 496 439 488 390 l 507 439 q 499 242 499 346 l 497 56 q 514 14 497 28 q 561 0 531 0 l 715 0 q 760 7 746 0 q 785 39 775 14 l 1040 653 q 1049 688 1049 674 q 997 722 1049 722 l 853 722 q 808 720 819 722 q 793 710 797 718 q 781 676 789 703 l 718 493 q 689 380 704 451 q 667 260 674 308 l 654 260 q 667 374 661 311 q 674 476 672 436 l 678 661 q 663 708 679 694 q 601 722 646 722 l 497 722 q 449 720 463 722 q 427 709 435 718 q 413 676 419 700 l 354 493 q 324 379 342 451 q 299 260 307 307 l 286 260 q 310 476 310 411 l 308 661 q 305 699 308 686 q 288 717 301 711 q 246 722 275 722 l 104 722 q 58 713 68 722 q 50 669 49 704 l 92 56 q 110 15 93 29 q 157 0 128 0 "},"ẃ":{"ha":1026,"x_min":49,"x_max":1049,"o":"m 157 0 l 297 0 q 342 6 328 0 q 365 39 356 13 l 436 225 q 471 331 454 272 q 496 439 488 390 l 507 439 q 499 242 499 346 l 497 56 q 514 14 497 28 q 561 0 531 0 l 715 0 q 760 7 746 0 q 785 39 775 14 l 1040 653 q 1049 688 1049 674 q 997 722 1049 722 l 853 722 q 808 720 819 722 q 793 710 797 718 q 781 676 789 703 l 718 493 q 689 380 704 451 q 667 260 674 308 l 654 260 q 667 374 661 311 q 674 476 672 436 l 678 661 q 663 708 679 694 q 601 722 646 722 l 497 722 q 449 720 463 722 q 427 709 435 718 q 413 676 419 700 l 354 493 q 324 379 342 451 q 299 260 307 307 l 286 260 q 310 476 310 411 l 308 661 q 305 699 308 686 q 288 717 301 711 q 246 722 275 722 l 104 722 q 58 713 68 722 q 50 669 49 704 l 92 56 q 110 15 93 29 q 157 0 128 0 m 401 856 l 435 806 q 461 790 446 790 q 494 797 471 790 l 753 879 q 778 903 778 888 q 760 939 778 918 l 701 1014 q 658 1038 683 1038 q 617 1024 642 1038 l 407 908 q 388 886 388 899 q 401 856 388 876 "},"ŵ":{"ha":1026,"x_min":49,"x_max":1049,"o":"m 157 0 l 297 0 q 342 6 328 0 q 365 39 356 13 l 436 225 q 471 331 454 272 q 496 439 488 390 l 507 439 q 499 242 499 346 l 497 56 q 514 14 497 28 q 561 0 531 0 l 715 0 q 760 7 746 0 q 785 39 775 14 l 1040 653 q 1049 688 1049 674 q 997 722 1049 722 l 853 722 q 808 720 819 722 q 793 710 797 718 q 781 676 789 703 l 718 493 q 689 380 704 451 q 667 260 674 308 l 654 260 q 667 374 661 311 q 674 476 672 436 l 678 661 q 663 708 679 694 q 601 722 646 722 l 497 722 q 449 720 463 722 q 427 709 435 718 q 413 676 419 700 l 354 493 q 324 379 342 451 q 299 260 307 307 l 286 260 q 310 476 310 411 l 308 661 q 305 699 308 686 q 288 717 301 711 q 246 722 275 722 l 104 722 q 58 713 68 722 q 50 669 49 704 l 92 56 q 110 15 93 29 q 157 0 128 0 m 339 797 l 474 797 q 489 797 478 797 q 511 801 500 797 q 538 821 522 804 l 588 875 l 625 833 q 637 819 629 829 q 656 803 644 808 q 696 797 668 797 l 813 797 q 851 814 851 797 q 839 838 851 825 l 722 979 q 681 1019 697 1010 q 629 1028 665 1028 l 586 1028 q 526 1022 544 1028 q 483 993 508 1015 l 319 849 q 300 818 300 832 q 339 797 300 797 "},"ẅ":{"ha":1026,"x_min":49,"x_max":1049,"o":"m 157 0 l 297 0 q 342 6 328 0 q 365 39 356 13 l 436 225 q 471 331 454 272 q 496 439 488 390 l 507 439 q 499 242 499 346 l 497 56 q 514 14 497 28 q 561 0 531 0 l 715 0 q 760 7 746 0 q 785 39 775 14 l 1040 653 q 1049 688 1049 674 q 997 722 1049 722 l 853 722 q 808 720 819 722 q 793 710 797 718 q 781 676 789 703 l 718 493 q 689 380 704 451 q 667 260 674 308 l 654 260 q 667 374 661 311 q 674 476 672 436 l 678 661 q 663 708 679 694 q 601 722 646 722 l 497 722 q 449 720 463 722 q 427 709 435 718 q 413 676 419 700 l 354 493 q 324 379 342 451 q 299 260 307 307 l 286 260 q 310 476 310 411 l 308 661 q 305 699 308 686 q 288 717 301 711 q 246 722 275 722 l 104 722 q 58 713 68 722 q 50 669 49 704 l 92 56 q 110 15 93 29 q 157 0 128 0 m 421 801 l 432 801 q 512 819 489 801 q 544 893 535 838 l 547 911 q 551 946 551 931 q 529 1001 551 983 q 458 1018 507 1018 l 447 1018 q 386 1011 407 1018 q 355 985 365 1004 q 338 928 344 967 l 335 910 q 332 875 332 897 q 353 819 332 838 q 421 801 374 801 m 721 801 l 731 801 q 809 819 788 801 q 842 893 831 838 l 844 911 q 849 946 849 931 q 826 1001 849 983 q 757 1018 804 1018 l 747 1018 q 667 1001 689 1018 q 635 928 644 983 l 632 910 q 629 876 629 885 q 651 819 629 838 q 721 801 672 801 "},"ẁ":{"ha":1026,"x_min":49,"x_max":1049,"o":"m 157 0 l 297 0 q 342 6 328 0 q 365 39 356 13 l 436 225 q 471 331 454 272 q 496 439 488 390 l 507 439 q 499 242 499 346 l 497 56 q 514 14 497 28 q 561 0 531 0 l 715 0 q 760 7 746 0 q 785 39 775 14 l 1040 653 q 1049 688 1049 674 q 997 722 1049 722 l 853 722 q 808 720 819 722 q 793 710 797 718 q 781 676 789 703 l 718 493 q 689 380 704 451 q 667 260 674 308 l 654 260 q 667 374 661 311 q 674 476 672 436 l 678 661 q 663 708 679 694 q 601 722 646 722 l 497 722 q 449 720 463 722 q 427 709 435 718 q 413 676 419 700 l 354 493 q 324 379 342 451 q 299 260 307 307 l 286 260 q 310 476 310 411 l 308 661 q 305 699 308 686 q 288 717 301 711 q 246 722 275 722 l 104 722 q 58 713 68 722 q 50 669 49 704 l 92 56 q 110 15 93 29 q 157 0 128 0 m 390 885 l 621 801 q 658 792 646 792 q 683 803 672 792 l 732 849 q 747 874 747 864 q 728 899 747 886 l 554 1015 q 544 1023 551 1018 q 525 1034 536 1028 q 503 1040 514 1040 q 468 1025 485 1040 l 383 950 q 364 915 364 933 q 390 885 364 893 "},"x":{"ha":739,"x_min":-78,"x_max":756,"o":"m -19 0 l 124 0 q 155 -1 133 0 q 190 5 176 -1 q 221 38 204 11 l 324 204 l 368 54 q 391 10 378 21 q 446 0 404 0 l 589 0 q 633 5 621 0 q 646 22 646 10 q 638 54 646 33 l 513 371 l 739 651 q 756 689 756 672 q 742 713 756 704 q 701 722 728 722 l 554 722 q 524 723 544 722 q 492 717 504 724 q 464 683 481 711 l 374 532 l 333 668 q 309 712 324 701 q 253 722 294 722 l 110 722 q 67 716 81 722 q 54 697 54 710 q 63 668 54 690 l 185 374 l -57 71 q -78 29 -78 43 q -19 0 -78 0 "},"y":{"ha":743,"x_min":-44,"x_max":717,"o":"m 247 -322 q 487 -244 408 -322 q 594 -7 565 -165 l 714 661 q 717 685 717 678 q 679 722 717 722 l 518 722 q 476 714 489 722 q 458 678 464 706 l 385 268 q 322 254 357 254 q 287 263 297 254 q 276 292 276 271 q 279 322 276 310 l 340 661 q 343 688 343 681 q 334 714 343 706 q 304 722 325 722 l 151 722 q 103 714 119 722 q 83 678 88 706 l 21 329 q 14 254 14 285 q 81 81 14 143 q 275 19 149 19 q 349 26 311 19 l 336 -19 q 304 -84 325 -61 q 246 -107 283 -107 q 204 -94 218 -107 q 175 -54 190 -81 q 149 -35 164 -35 q 122 -42 140 -35 l -12 -100 q -44 -135 -44 -114 q -36 -161 -44 -144 q 66 -281 0 -239 q 247 -322 132 -322 "},"ý":{"ha":743,"x_min":-44,"x_max":717,"o":"m 247 -322 q 487 -244 408 -322 q 594 -7 565 -165 l 714 661 q 717 685 717 678 q 679 722 717 722 l 518 722 q 476 714 489 722 q 458 678 464 706 l 385 268 q 322 254 357 254 q 287 263 297 254 q 276 292 276 271 q 279 322 276 310 l 340 661 q 343 688 343 681 q 334 714 343 706 q 304 722 325 722 l 151 722 q 103 714 119 722 q 83 678 88 706 l 21 329 q 14 254 14 285 q 81 81 14 143 q 275 19 149 19 q 349 26 311 19 l 336 -19 q 304 -84 325 -61 q 246 -107 283 -107 q 204 -94 218 -107 q 175 -54 190 -81 q 149 -35 164 -35 q 122 -42 140 -35 l -12 -100 q -44 -135 -44 -114 q -36 -161 -44 -144 q 66 -281 0 -239 q 247 -322 132 -322 m 254 856 l 288 806 q 314 790 299 790 q 347 797 324 790 l 606 879 q 631 903 631 888 q 613 939 631 918 l 554 1014 q 511 1038 536 1038 q 469 1024 494 1038 l 260 908 q 240 886 240 899 q 254 856 240 876 "},"ŷ":{"ha":743,"x_min":-44,"x_max":717,"o":"m 247 -322 q 487 -244 408 -322 q 594 -7 565 -165 l 714 661 q 717 685 717 678 q 679 722 717 722 l 518 722 q 476 714 489 722 q 458 678 464 706 l 385 268 q 322 254 357 254 q 287 263 297 254 q 276 292 276 271 q 279 322 276 310 l 340 661 q 343 688 343 681 q 334 714 343 706 q 304 722 325 722 l 151 722 q 103 714 119 722 q 83 678 88 706 l 21 329 q 14 254 14 285 q 81 81 14 143 q 275 19 149 19 q 349 26 311 19 l 336 -19 q 304 -84 325 -61 q 246 -107 283 -107 q 204 -94 218 -107 q 175 -54 190 -81 q 149 -35 164 -35 q 122 -42 140 -35 l -12 -100 q -44 -135 -44 -114 q -36 -161 -44 -144 q 66 -281 0 -239 q 247 -322 132 -322 m 192 797 l 326 797 q 342 797 331 797 q 364 801 353 797 q 390 821 375 804 l 440 875 l 478 833 q 490 819 482 829 q 509 803 497 808 q 549 797 521 797 l 665 797 q 704 814 704 797 q 692 838 704 825 l 575 979 q 534 1019 550 1010 q 482 1028 518 1028 l 439 1028 q 379 1022 397 1028 q 336 993 361 1015 l 172 849 q 153 818 153 832 q 192 797 153 797 "},"ÿ":{"ha":743,"x_min":-44,"x_max":717,"o":"m 247 -322 q 487 -244 408 -322 q 594 -7 565 -165 l 714 661 q 717 685 717 678 q 679 722 717 722 l 518 722 q 476 714 489 722 q 458 678 464 706 l 385 268 q 322 254 357 254 q 287 263 297 254 q 276 292 276 271 q 279 322 276 310 l 340 661 q 343 688 343 681 q 334 714 343 706 q 304 722 325 722 l 151 722 q 103 714 119 722 q 83 678 88 706 l 21 329 q 14 254 14 285 q 81 81 14 143 q 275 19 149 19 q 349 26 311 19 l 336 -19 q 304 -84 325 -61 q 246 -107 283 -107 q 204 -94 218 -107 q 175 -54 190 -81 q 149 -35 164 -35 q 122 -42 140 -35 l -12 -100 q -44 -135 -44 -114 q -36 -161 -44 -144 q 66 -281 0 -239 q 247 -322 132 -322 m 274 801 l 285 801 q 365 819 342 801 q 397 893 388 838 l 400 911 q 404 946 404 931 q 382 1001 404 983 q 311 1018 360 1018 l 300 1018 q 239 1011 260 1018 q 208 985 218 1004 q 190 928 197 967 l 188 910 q 185 875 185 897 q 206 819 185 838 q 274 801 226 801 m 574 801 l 583 801 q 662 819 640 801 q 694 893 683 838 l 697 911 q 701 946 701 931 q 679 1001 701 983 q 610 1018 657 1018 l 600 1018 q 519 1001 542 1018 q 488 928 497 983 l 485 910 q 482 876 482 885 q 503 819 482 838 q 574 801 525 801 "},"ỳ":{"ha":743,"x_min":-44,"x_max":717,"o":"m 247 -322 q 487 -244 408 -322 q 594 -7 565 -165 l 714 661 q 717 685 717 678 q 679 722 717 722 l 518 722 q 476 714 489 722 q 458 678 464 706 l 385 268 q 322 254 357 254 q 287 263 297 254 q 276 292 276 271 q 279 322 276 310 l 340 661 q 343 688 343 681 q 334 714 343 706 q 304 722 325 722 l 151 722 q 103 714 119 722 q 83 678 88 706 l 21 329 q 14 254 14 285 q 81 81 14 143 q 275 19 149 19 q 349 26 311 19 l 336 -19 q 304 -84 325 -61 q 246 -107 283 -107 q 204 -94 218 -107 q 175 -54 190 -81 q 149 -35 164 -35 q 122 -42 140 -35 l -12 -100 q -44 -135 -44 -114 q -36 -161 -44 -144 q 66 -281 0 -239 q 247 -322 132 -322 m 243 885 l 474 801 q 511 792 499 792 q 536 803 525 792 l 585 849 q 600 874 600 864 q 581 899 600 886 l 407 1015 q 397 1023 404 1018 q 378 1034 389 1028 q 356 1040 367 1040 q 321 1025 338 1040 l 236 950 q 217 915 217 933 q 243 885 217 893 "},"z":{"ha":656,"x_min":-43,"x_max":644,"o":"m 3 0 l 492 0 q 528 8 519 0 q 542 44 536 15 l 563 160 q 564 178 564 167 q 518 219 564 219 l 296 219 l 588 488 q 614 517 607 506 q 624 553 621 529 l 643 661 q 644 678 644 667 q 632 710 644 699 q 597 722 619 722 l 128 722 q 91 715 100 722 q 78 678 82 707 l 57 563 q 56 544 56 556 q 100 503 56 503 l 292 503 l 1 225 q -15 202 -11 211 q -22 169 -18 193 l -42 61 q -43 44 -43 56 q -31 12 -43 24 q 3 0 -19 0 "},"ź":{"ha":656,"x_min":-43,"x_max":644,"o":"m 3 0 l 492 0 q 528 8 519 0 q 542 44 536 15 l 563 160 q 564 178 564 167 q 518 219 564 219 l 296 219 l 588 488 q 614 517 607 506 q 624 553 621 529 l 643 661 q 644 678 644 667 q 632 710 644 699 q 597 722 619 722 l 128 722 q 91 715 100 722 q 78 678 82 707 l 57 563 q 56 544 56 556 q 100 503 56 503 l 292 503 l 1 225 q -15 202 -11 211 q -22 169 -18 193 l -42 61 q -43 44 -43 56 q -31 12 -43 24 q 3 0 -19 0 m 214 856 l 247 806 q 274 790 258 790 q 307 797 283 790 l 565 879 q 590 903 590 888 q 572 939 590 918 l 514 1014 q 471 1038 496 1038 q 429 1024 454 1038 l 219 908 q 200 886 200 899 q 214 856 200 876 "},"ž":{"ha":656,"x_min":-43,"x_max":676,"o":"m 3 0 l 492 0 q 528 8 519 0 q 542 44 536 15 l 563 160 q 564 178 564 167 q 518 219 564 219 l 296 219 l 588 488 q 614 517 607 506 q 624 553 621 529 l 643 661 q 644 678 644 667 q 632 710 644 699 q 597 722 619 722 l 128 722 q 91 715 100 722 q 78 678 82 707 l 57 563 q 56 544 56 556 q 100 503 56 503 l 292 503 l 1 225 q -15 202 -11 211 q -22 169 -18 193 l -42 61 q -43 44 -43 56 q -31 12 -43 24 q 3 0 -19 0 m 347 796 l 390 796 q 450 802 432 796 q 493 831 468 808 l 657 975 q 676 1006 676 992 q 638 1026 676 1026 l 503 1026 q 488 1026 499 1026 q 465 1023 476 1026 q 439 1003 454 1019 l 389 949 l 351 990 q 340 1005 347 994 q 320 1021 332 1015 q 281 1026 308 1026 l 164 1026 q 125 1010 125 1026 q 138 986 125 999 l 254 844 q 295 805 279 814 q 347 796 311 796 "},"ż":{"ha":656,"x_min":-43,"x_max":644,"o":"m 3 0 l 492 0 q 528 8 519 0 q 542 44 536 15 l 563 160 q 564 178 564 167 q 518 219 564 219 l 296 219 l 588 488 q 614 517 607 506 q 624 553 621 529 l 643 661 q 644 678 644 667 q 632 710 644 699 q 597 722 619 722 l 128 722 q 91 715 100 722 q 78 678 82 707 l 57 563 q 56 544 56 556 q 100 503 56 503 l 292 503 l 1 225 q -15 202 -11 211 q -22 169 -18 193 l -42 61 q -43 44 -43 56 q -31 12 -43 24 q 3 0 -19 0 m 343 810 l 432 810 q 493 817 472 810 q 524 843 514 824 q 540 903 535 863 l 543 922 q 546 961 546 950 q 526 1013 546 997 q 460 1028 507 1028 l 379 1028 q 317 1021 338 1028 q 288 994 297 1014 q 271 935 278 975 l 268 918 q 264 872 264 892 q 281 824 264 839 q 343 810 299 810 "},"ﬁ":{"ha":806,"x_min":28,"x_max":840,"o":"m 790 1028 l 528 1028 q 271 958 367 1028 q 149 735 175 888 l 146 722 l 108 722 q 69 715 79 722 q 53 678 58 707 l 35 574 q 33 556 33 567 q 82 511 33 511 l 108 511 l 29 61 q 28 44 28 56 q 79 0 28 0 l 229 0 q 270 8 261 0 q 285 44 279 15 l 367 511 l 500 511 l 421 61 q 419 44 419 56 q 469 0 419 0 l 622 0 q 662 8 653 0 q 676 44 671 15 l 785 661 q 786 679 786 668 q 738 722 786 722 l 404 722 q 443 791 413 765 q 521 817 474 817 l 764 817 q 806 825 796 817 q 821 864 815 833 l 839 965 q 840 983 840 972 q 790 1028 840 1028 "},"ﬂ":{"ha":821,"x_min":28,"x_max":847,"o":"m 78 0 l 228 0 q 269 8 260 0 q 285 44 279 15 l 367 511 l 414 511 q 454 519 444 511 q 469 557 464 526 l 488 661 q 489 679 489 668 q 440 722 489 722 l 404 722 l 403 719 q 442 791 411 765 q 521 817 472 817 l 561 817 l 428 61 q 426 43 426 54 q 475 0 426 0 l 628 0 q 668 8 658 0 q 683 44 678 15 l 846 965 q 847 982 847 971 q 796 1028 847 1028 l 526 1028 q 270 957 365 1028 q 149 736 175 886 l 146 722 l 108 722 q 69 715 79 722 q 53 678 58 707 l 35 574 q 33 556 33 567 q 82 511 33 511 l 108 511 l 29 61 q 28 43 28 54 q 78 0 28 0 "},"ª":{"ha":481,"x_min":65,"x_max":481,"o":"m 251 489 q 390 510 315 489 q 428 531 418 518 q 444 571 439 543 q 472 724 464 672 q 481 796 481 775 q 440 897 481 860 q 317 935 400 935 q 203 912 247 935 q 129 846 158 889 q 124 831 124 839 q 138 813 124 821 l 199 776 q 218 768 211 768 q 238 782 225 768 q 285 808 261 808 q 307 788 307 808 q 301 753 307 783 q 261 756 282 756 q 65 607 65 756 q 251 489 65 489 m 256 606 q 242 611 247 606 q 236 625 236 617 q 244 644 236 638 q 261 650 251 650 q 283 647 269 650 l 278 615 q 269 607 276 610 q 256 606 264 606 "},"º":{"ha":468,"x_min":71,"x_max":475,"o":"m 244 489 q 456 661 426 489 l 471 746 q 475 786 475 767 q 429 896 475 856 q 297 936 383 936 q 157 892 210 936 q 89 763 104 847 l 75 678 q 71 636 71 657 q 116 528 71 568 q 244 489 161 489 m 258 642 q 239 660 239 642 l 239 667 l 254 754 q 283 783 260 783 q 304 764 304 783 l 304 757 l 289 675 q 280 650 286 658 q 258 642 274 642 "},"А":{"ha":900,"x_min":-81,"x_max":818,"o":"m -39 0 l 126 0 q 172 3 157 0 q 194 17 186 7 q 213 50 201 26 l 260 160 l 517 160 l 526 57 q 539 14 529 28 q 582 0 549 0 l 754 0 q 802 12 786 0 q 814 51 818 24 l 679 932 q 619 986 671 986 l 442 986 q 396 980 410 986 q 368 946 382 974 l -74 65 q -81 36 -81 47 q -69 10 -81 19 q -39 0 -58 0 m 501 378 l 354 378 l 419 531 q 486 756 467 640 l 499 756 q 492 601 492 686 q 493 543 492 561 l 501 378 "},"Б":{"ha":836,"x_min":-8,"x_max":822,"o":"m 40 0 l 401 0 q 599 47 514 0 q 732 180 685 94 q 779 375 779 265 q 702 567 779 499 q 479 635 625 635 l 369 635 l 392 760 l 738 760 q 783 768 772 760 q 800 810 794 776 l 821 931 q 822 946 822 936 q 809 976 822 967 q 765 986 796 986 l 213 986 q 166 976 179 986 q 147 935 153 967 l -6 64 q -8 43 -8 50 q 40 0 -8 0 m 379 226 l 297 226 l 331 411 l 419 411 q 485 394 465 411 q 506 339 506 378 q 473 256 506 286 q 379 226 440 226 "}}}
